<svg xmlns="http://www.w3.org/2000/svg" viewBox="0 0 405 94">
  <defs/>
  <path d="M11.3,93.9 C7.567,93.9 4.567,93.567 2.3,92.9 L4.3,80 C6.167,80.467 8.2,80.7 10.4,80.7 C12.867,80.7 14.933,79.967 16.6,78.5 C18.333,77.1 19.6,75.2 20.4,72.8 L21.1,70.6 L0.5,21 L16.8,21 L26.9,50.7 C27.833,53.233 28.567,56 29.1,59 C29.633,56 30.367,53.233 31.3,50.7 L41.4,21 L57.4,21 L34.4,76.3 C32,81.967 28.967,86.3 25.3,89.3 C21.7,92.367 17.033,93.9 11.3,93.9 Z M64.906,21 L78.406,21 L78.406,73 L64.906,73 L64.906,21 Z M63.506,8.7 C63.506,6.5 64.273,4.633 65.806,3.1 C67.406,1.567 69.34,0.8 71.606,0.8 C73.94,0.8 75.873,1.567 77.406,3.1 C78.94,4.633 79.706,6.5 79.706,8.7 C79.706,10.967 78.94,12.867 77.406,14.4 C75.873,15.933 73.94,16.7 71.606,16.7 C69.34,16.7 67.406,15.933 65.806,14.4 C64.273,12.8 63.506,10.9 63.506,8.7 Z M86.091,21 L101.891,21 L108.591,50.5 C109.324,53.5 109.857,56.133 110.191,58.4 C110.657,55.533 111.224,52.867 111.891,50.4 L119.491,21 L134.991,21 L143.091,50.4 C143.757,52.867 144.324,55.533 144.791,58.4 C145.124,56.133 145.657,53.5 146.391,50.5 L153.591,21 L168.291,21 L152.091,73 L137.491,73 L128.991,43.4 C128.191,41 127.591,38.4 127.191,35.6 C126.724,38.667 126.191,41.267 125.591,43.4 L117.791,73 L102.291,73 L86.091,21 Z M198.634,74.3 C193.368,74.3 188.701,73.1 184.634,70.7 C180.568,68.233 177.401,64.933 175.134,60.8 C172.868,56.667 171.734,52.1 171.734,47.1 C171.734,42.167 172.901,37.6 175.234,33.4 C177.568,29.2 180.768,25.867 184.834,23.4 C188.968,20.933 193.568,19.7 198.634,19.7 C203.701,19.7 208.234,20.933 212.234,23.4 C216.301,25.867 219.434,29.2 221.634,33.4 C223.901,37.533 225.034,42.1 225.034,47.1 C225.034,48.767 224.901,50.367 224.634,51.9 L185.734,51.9 C186.534,55.033 188.034,57.567 190.234,59.5 C192.501,61.367 195.301,62.3 198.634,62.3 C201.434,62.3 203.934,61.667 206.134,60.4 C208.334,59.067 210.068,57.367 211.334,55.3 L221.834,63.2 C219.701,66.533 216.568,69.233 212.434,71.3 C208.301,73.3 203.701,74.3 198.634,74.3 Z M211.434,41.8 C210.634,38.8 209.068,36.3 206.734,34.3 C204.401,32.3 201.634,31.3 198.434,31.3 C195.301,31.3 192.568,32.267 190.234,34.2 C187.968,36.133 186.468,38.667 185.734,41.8 L211.434,41.8 Z M235.961,21 L249.261,21 L249.261,28.6 C251.994,22.733 257.294,19.8 265.161,19.8 C268.894,19.8 272.261,20.7 275.261,22.5 C278.261,24.233 280.628,26.733 282.361,30 C284.094,33.2 284.961,36.933 284.961,41.2 L284.961,73 L271.461,73 L271.461,44.5 C271.461,40.167 270.461,36.933 268.461,34.8 C266.461,32.667 263.728,31.6 260.261,31.6 C257.194,31.6 254.628,32.7 252.561,34.9 C250.494,37.033 249.461,40.233 249.461,44.5 L249.461,73 L235.961,73 L235.961,21 Z M304.704,74.3 C302.171,74.3 300.037,73.433 298.304,71.7 C296.571,69.967 295.704,67.9 295.704,65.5 C295.704,63.1 296.571,61.067 298.304,59.4 C300.037,57.667 302.171,56.8 304.704,56.8 C307.237,56.8 309.337,57.667 311.004,59.4 C312.737,61.067 313.604,63.1 313.604,65.5 C313.604,67.967 312.737,70.067 311.004,71.8 C309.337,73.467 307.237,74.3 304.704,74.3 Z M346.516,74.3 C341.85,74.3 337.55,73.1 333.616,70.7 C329.683,68.233 326.55,64.933 324.216,60.8 C321.95,56.667 320.816,52.133 320.816,47.2 C320.816,42.267 321.95,37.733 324.216,33.6 C326.55,29.4 329.683,26.067 333.616,23.6 C337.55,21.133 341.85,19.9 346.516,19.9 C350.783,19.9 354.216,20.7 356.816,22.3 C359.483,23.9 361.55,26.2 363.016,29.2 L363.016,21 L376.416,21 L376.416,73 L363.316,73 L363.316,64.5 C361.783,67.633 359.683,70.067 357.016,71.8 C354.416,73.467 350.916,74.3 346.516,74.3 Z M334.316,47.1 C334.316,49.767 334.916,52.267 336.116,54.6 C337.383,56.867 339.083,58.7 341.216,60.1 C343.416,61.433 345.916,62.1 348.716,62.1 C351.583,62.1 354.116,61.433 356.316,60.1 C358.583,58.767 360.316,56.967 361.516,54.7 C362.716,52.433 363.316,49.933 363.316,47.2 C363.316,44.467 362.716,41.967 361.516,39.7 C360.316,37.367 358.583,35.533 356.316,34.2 C354.116,32.8 351.583,32.1 348.716,32.1 C345.916,32.1 343.416,32.8 341.216,34.2 C339.016,35.533 337.316,37.333 336.116,39.6 C334.916,41.867 334.316,44.367 334.316,47.1 Z M389.438,21 L402.938,21 L402.938,73 L389.438,73 L389.438,21 Z M388.038,8.7 C388.038,6.5 388.804,4.633 390.338,3.1 C391.938,1.567 393.871,0.8 396.138,0.8 C398.471,0.8 400.404,1.567 401.938,3.1 C403.471,4.633 404.238,6.5 404.238,8.7 C404.238,10.967 403.471,12.867 401.938,14.4 C400.404,15.933 398.471,16.7 396.138,16.7 C393.871,16.7 391.938,15.933 390.338,14.4 C388.804,12.8 388.038,10.9 388.038,8.7 Z"/>
  <path d="M2.3,92.9 L1.312,92.747 L1.178,93.612 L2.018,93.859 L2.3,92.9 Z M4.3,80 L4.543,79.03 L3.48,78.764 L3.312,79.847 L4.3,80 Z M16.6,78.5 L15.972,77.722 L15.955,77.735 L15.939,77.749 L16.6,78.5 Z M20.4,72.8 L21.349,73.116 L21.353,73.103 L20.4,72.8 Z M21.1,70.6 L22.053,70.903 L22.164,70.554 L22.023,70.216 L21.1,70.6 Z M0.5,21 L0.5,20 L-0.998,20 L-0.424,21.384 L0.5,21 Z M16.8,21 L17.747,20.678 L17.516,20 L16.8,20 L16.8,21 Z M26.9,50.7 L25.953,51.022 L25.957,51.034 L25.962,51.046 L26.9,50.7 Z M29.1,59 L28.115,59.175 L30.085,59.175 L29.1,59 Z M31.3,50.7 L32.238,51.046 L32.243,51.034 L32.247,51.022 L31.3,50.7 Z M41.4,21 L41.4,20 L40.684,20 L40.453,20.678 L41.4,21 Z M57.4,21 L58.323,21.384 L58.899,20 L57.4,20 L57.4,21 Z M34.4,76.3 L35.321,76.69 L35.323,76.684 L34.4,76.3 Z M25.3,89.3 L24.667,88.526 L24.659,88.532 L24.651,88.539 L25.3,89.3 Z M11.3,92.9 C7.614,92.9 4.72,92.569 2.582,91.941 L2.018,93.859 C4.413,94.564 7.52,94.9 11.3,94.9 L11.3,92.9 Z M3.288,93.053 L5.288,80.153 L3.312,79.847 L1.312,92.747 L3.288,93.053 Z M4.057,80.97 C6.014,81.459 8.13,81.7 10.4,81.7 L10.4,79.7 C8.27,79.7 6.32,79.474 4.543,79.03 L4.057,80.97 Z M10.4,81.7 C13.081,81.7 15.391,80.896 17.261,79.251 L15.939,77.749 C14.476,79.037 12.652,79.7 10.4,79.7 L10.4,81.7 Z M17.228,79.278 C19.13,77.742 20.497,75.672 21.349,73.116 L19.451,72.484 C18.703,74.728 17.537,76.458 15.972,77.722 L17.228,79.278 Z M21.353,73.103 L22.053,70.903 L20.147,70.297 L19.447,72.497 L21.353,73.103 Z M22.023,70.216 L1.424,20.616 L-0.424,21.384 L20.177,70.984 L22.023,70.216 Z M0.5,22 L16.8,22 L16.8,20 L0.5,20 L0.5,22 Z M15.853,21.322 L25.953,51.022 L27.847,50.378 L17.747,20.678 L15.853,21.322 Z M25.962,51.046 C26.872,53.517 27.591,56.226 28.115,59.175 L30.085,58.825 C29.542,55.774 28.794,52.95 27.838,50.354 L25.962,51.046 Z M30.085,59.175 C30.609,56.226 31.328,53.517 32.238,51.046 L30.362,50.354 C29.405,52.95 28.658,55.774 28.115,58.825 L30.085,59.175 Z M32.247,51.022 L42.347,21.322 L40.453,20.678 L30.353,50.378 L32.247,51.022 Z M41.4,22 L57.4,22 L57.4,20 L41.4,20 L41.4,22 Z M56.477,20.616 L33.477,75.916 L35.323,76.684 L58.323,21.384 L56.477,20.616 Z M33.479,75.91 C31.124,81.471 28.176,85.655 24.667,88.526 L25.933,90.074 C29.757,86.945 32.876,82.463 35.321,76.69 L33.479,75.91 Z M24.651,88.539 C21.269,91.42 16.848,92.9 11.3,92.9 L11.3,94.9 C17.218,94.9 22.131,93.313 25.948,90.061 L24.651,88.539 Z M64.906,21 L64.906,20 L63.906,20 L63.906,21 L64.906,21 Z M78.406,21 L79.406,21 L79.406,20 L78.406,20 L78.406,21 Z M78.406,73 L78.406,74 L79.406,74 L79.406,73 L78.406,73 Z M64.906,73 L63.906,73 L63.906,74 L64.906,74 L64.906,73 Z M65.806,3.1 L65.114,2.378 L65.107,2.385 L65.099,2.393 L65.806,3.1 Z M65.806,14.4 L65.084,15.092 L65.099,15.107 L65.114,15.122 L65.806,14.4 Z M64.906,22 L78.406,22 L78.406,20 L64.906,20 L64.906,22 Z M77.406,21 L77.406,73 L79.406,73 L79.406,21 L77.406,21 Z M78.406,72 L64.906,72 L64.906,74 L78.406,74 L78.406,72 Z M65.906,73 L65.906,21 L63.906,21 L63.906,73 L65.906,73 Z M64.506,8.7 C64.506,6.761 65.171,5.15 66.513,3.807 L65.099,2.393 C63.375,4.117 62.506,6.239 62.506,8.7 L64.506,8.7 Z M66.498,3.822 C67.907,2.472 69.591,1.8 71.606,1.8 L71.606,-0.2 C69.088,-0.2 66.905,0.662 65.114,2.378 L66.498,3.822 Z M71.606,1.8 C73.697,1.8 75.368,2.477 76.699,3.807 L78.113,2.393 C76.377,0.657 74.183,-0.2 71.606,-0.2 L71.606,1.8 Z M76.699,3.807 C78.042,5.15 78.706,6.761 78.706,8.7 L80.706,8.7 C80.706,6.239 79.837,4.117 78.113,2.393 L76.699,3.807 Z M78.706,8.7 C78.706,10.715 78.036,12.356 76.699,13.693 L78.113,15.107 C79.844,13.377 80.706,11.219 80.706,8.7 L78.706,8.7 Z M76.699,13.693 C75.368,15.024 73.697,15.7 71.606,15.7 L71.606,17.7 C74.183,17.7 76.377,16.843 78.113,15.107 L76.699,13.693 Z M71.606,15.7 C69.591,15.7 67.907,15.028 66.498,13.678 L65.114,15.122 C66.905,16.838 69.088,17.7 71.606,17.7 L71.606,15.7 Z M66.528,13.708 C65.172,12.293 64.506,10.64 64.506,8.7 L62.506,8.7 C62.506,11.16 63.374,13.307 65.084,15.092 L66.528,13.708 Z M86.091,21 L86.091,20 L84.732,20 L85.136,21.297 L86.091,21 Z M101.891,21 L102.866,20.779 L102.689,20 L101.891,20 L101.891,21 Z M108.591,50.5 L107.615,50.721 L107.617,50.73 L107.619,50.737 L108.591,50.5 Z M110.191,58.4 L109.201,58.545 L111.178,58.561 L110.191,58.4 Z M111.891,50.4 L112.856,50.661 L112.859,50.65 L111.891,50.4 Z M119.491,21 L119.491,20 L118.716,20 L118.522,20.75 L119.491,21 Z M134.991,21 L135.955,20.734 L135.752,20 L134.991,20 L134.991,21 Z M143.091,50.4 L144.056,50.139 L144.055,50.134 L143.091,50.4 Z M144.791,58.4 L143.804,58.561 L145.78,58.545 L144.791,58.4 Z M153.591,21 L153.591,20 L152.805,20 L152.619,20.763 L153.591,21 Z M168.291,21 L169.245,21.297 L169.65,20 L168.291,20 L168.291,21 Z M152.091,73 L152.091,74 L152.826,74 L153.045,73.297 L152.091,73 Z M137.491,73 L136.529,73.276 L136.737,74 L137.491,74 L137.491,73 Z M128.991,43.4 L129.952,43.124 L129.946,43.104 L129.939,43.084 L128.991,43.4 Z M127.191,35.6 L128.181,35.459 L126.202,35.45 L127.191,35.6 Z M125.591,43.4 L124.628,43.129 L124.626,43.137 L124.624,43.145 L125.591,43.4 Z M117.791,73 L117.791,74 L118.561,74 L118.758,73.255 L117.791,73 Z M102.291,73 L101.336,73.297 L101.555,74 L102.291,74 L102.291,73 Z M86.091,22 L101.891,22 L101.891,20 L86.091,20 L86.091,22 Z M100.915,21.221 L107.615,50.721 L109.566,50.279 L102.866,20.779 L100.915,21.221 Z M107.619,50.737 C108.348,53.717 108.874,56.318 109.201,58.545 L111.18,58.255 C110.841,55.948 110.3,53.283 109.562,50.263 L107.619,50.737 Z M111.178,58.561 C111.64,55.723 112.199,53.09 112.856,50.661 L110.925,50.139 C110.249,52.643 109.675,55.343 109.204,58.239 L111.178,58.561 Z M112.859,50.65 L120.459,21.25 L118.522,20.75 L110.922,50.15 L112.859,50.65 Z M119.491,22 L134.991,22 L134.991,20 L119.491,20 L119.491,22 Z M134.027,21.266 L142.127,50.666 L144.055,50.134 L135.955,20.734 L134.027,21.266 Z M142.125,50.661 C142.782,53.09 143.342,55.723 143.804,58.561 L145.778,58.239 C145.306,55.343 144.733,52.643 144.056,50.139 L142.125,50.661 Z M145.78,58.545 C146.108,56.318 146.634,53.717 147.362,50.737 L145.419,50.263 C144.681,53.283 144.14,55.948 143.801,58.255 L145.78,58.545 Z M147.362,50.737 L154.562,21.237 L152.619,20.763 L145.419,50.263 L147.362,50.737 Z M153.591,22 L168.291,22 L168.291,20 L153.591,20 L153.591,22 Z M167.336,20.703 L151.136,72.703 L153.045,73.297 L169.245,21.297 L167.336,20.703 Z M152.091,72 L137.491,72 L137.491,74 L152.091,74 L152.091,72 Z M138.452,72.724 L129.952,43.124 L128.029,43.676 L136.529,73.276 L138.452,72.724 Z M129.939,43.084 C129.16,40.747 128.573,38.206 128.181,35.459 L126.201,35.741 C126.608,38.594 127.221,41.253 128.042,43.716 L129.939,43.084 Z M126.202,35.45 C125.739,38.49 125.213,41.048 124.628,43.129 L126.553,43.671 C127.168,41.486 127.709,38.843 128.179,35.75 L126.202,35.45 Z M124.624,43.145 L116.824,72.745 L118.758,73.255 L126.558,43.655 L124.624,43.145 Z M117.791,72 L102.291,72 L102.291,74 L117.791,74 L117.791,72 Z M103.245,72.703 L87.045,20.703 L85.136,21.297 L101.336,73.297 L103.245,72.703 Z M184.634,70.7 L184.116,71.555 L184.126,71.561 L184.634,70.7 Z M184.834,23.4 L184.322,22.541 L184.316,22.545 L184.834,23.4 Z M212.234,23.4 L211.709,24.251 L211.716,24.255 L212.234,23.4 Z M221.634,33.4 L220.749,33.864 L220.753,33.873 L220.758,33.881 L221.634,33.4 Z M224.634,51.9 L224.634,52.9 L225.475,52.9 L225.62,52.071 L224.634,51.9 Z M185.734,51.9 L185.734,50.9 L184.447,50.9 L184.765,52.147 L185.734,51.9 Z M190.234,59.5 L189.574,60.251 L189.586,60.262 L189.599,60.272 L190.234,59.5 Z M206.134,60.4 L206.633,61.267 L206.643,61.261 L206.653,61.255 L206.134,60.4 Z M211.334,55.3 L211.936,54.501 L211.057,53.84 L210.482,54.777 L211.334,55.3 Z M221.834,63.2 L222.677,63.739 L223.176,62.958 L222.436,62.401 L221.834,63.2 Z M212.434,71.3 L212.87,72.2 L212.882,72.194 L212.434,71.3 Z M211.434,41.8 L211.434,42.8 L212.736,42.8 L212.401,41.542 L211.434,41.8 Z M190.234,34.2 L189.596,33.43 L189.591,33.434 L189.585,33.439 L190.234,34.2 Z M185.734,41.8 L184.761,41.572 L184.473,42.8 L185.734,42.8 L185.734,41.8 Z M198.634,73.3 C193.525,73.3 189.038,72.138 185.143,69.839 L184.126,71.561 C188.364,74.062 193.21,75.3 198.634,75.3 L198.634,73.3 Z M185.153,69.845 C181.235,67.469 178.193,64.297 176.011,60.319 L174.258,61.281 C176.609,65.57 179.9,68.998 184.116,71.555 L185.153,69.845 Z M176.011,60.319 C173.83,56.342 172.734,51.943 172.734,47.1 L170.734,47.1 C170.734,52.258 171.905,56.991 174.258,61.281 L176.011,60.319 Z M172.734,47.1 C172.734,42.332 173.86,37.933 176.109,33.886 L174.36,32.914 C171.942,37.267 170.734,42.002 170.734,47.1 L172.734,47.1 Z M176.109,33.886 C178.358,29.836 181.436,26.631 185.353,24.255 L184.316,22.545 C180.099,25.103 176.777,28.564 174.36,32.914 L176.109,33.886 Z M185.347,24.259 C189.317,21.89 193.738,20.7 198.634,20.7 L198.634,18.7 C193.397,18.7 188.618,19.977 184.322,22.541 L185.347,24.259 Z M198.634,20.7 C203.531,20.7 207.88,21.889 211.709,24.251 L212.759,22.549 C208.589,19.977 203.871,18.7 198.634,18.7 L198.634,20.7 Z M211.716,24.255 C215.627,26.628 218.633,29.826 220.749,33.864 L222.52,32.936 C220.235,28.574 216.975,25.106 212.753,22.545 L211.716,24.255 Z M220.758,33.881 C222.938,37.858 224.034,42.258 224.034,47.1 L226.034,47.1 C226.034,41.942 224.864,37.209 222.511,32.919 L220.758,33.881 Z M224.034,47.1 C224.034,48.713 223.905,50.256 223.649,51.729 L225.62,52.071 C225.897,50.478 226.034,48.82 226.034,47.1 L224.034,47.1 Z M224.634,50.9 L185.734,50.9 L185.734,52.9 L224.634,52.9 L224.634,50.9 Z M184.765,52.147 C185.61,55.455 187.207,58.171 189.574,60.251 L190.894,58.749 C188.861,56.962 187.459,54.612 186.703,51.653 L184.765,52.147 Z M189.599,60.272 C192.068,62.306 195.102,63.3 198.634,63.3 L198.634,61.3 C195.5,61.3 192.934,60.428 190.87,58.728 L189.599,60.272 Z M198.634,63.3 C201.591,63.3 204.266,62.63 206.633,61.267 L205.635,59.533 C203.602,60.704 201.278,61.3 198.634,61.3 L198.634,63.3 Z M206.653,61.255 C208.98,59.844 210.832,58.033 212.187,55.823 L210.482,54.777 C209.304,56.7 207.688,58.289 205.616,59.545 L206.653,61.255 Z M210.733,56.099 L221.233,63.999 L222.436,62.401 L211.936,54.501 L210.733,56.099 Z M220.992,62.661 C218.971,65.819 215.987,68.406 211.987,70.406 L212.882,72.194 C217.149,70.061 220.431,67.248 222.677,63.739 L220.992,62.661 Z M211.999,70.4 C208.015,72.328 203.566,73.3 198.634,73.3 L198.634,75.3 C203.836,75.3 208.587,74.272 212.87,72.2 L211.999,70.4 Z M212.401,41.542 C211.549,38.349 209.874,35.674 207.385,33.541 L206.084,35.059 C208.262,36.926 209.72,39.251 210.468,42.058 L212.401,41.542 Z M207.385,33.541 C204.863,31.378 201.862,30.3 198.434,30.3 L198.434,32.3 C201.406,32.3 203.939,33.221 206.084,35.059 L207.385,33.541 Z M198.434,30.3 C195.077,30.3 192.116,31.343 189.596,33.43 L190.872,34.97 C193.02,33.191 195.525,32.3 198.434,32.3 L198.434,30.3 Z M189.585,33.439 C187.143,35.522 185.539,38.249 184.761,41.572 L186.708,42.028 C187.397,39.085 188.792,36.744 190.883,34.961 L189.585,33.439 Z M185.734,42.8 L211.434,42.8 L211.434,40.8 L185.734,40.8 L185.734,42.8 Z M235.961,21 L235.961,20 L234.961,20 L234.961,21 L235.961,21 Z M249.261,21 L250.261,21 L250.261,20 L249.261,20 L249.261,21 Z M249.261,28.6 L248.261,28.6 L250.167,29.022 L249.261,28.6 Z M275.261,22.5 L274.746,23.358 L274.754,23.362 L274.761,23.366 L275.261,22.5 Z M282.361,30 L281.478,30.469 L281.482,30.476 L282.361,30 Z M284.961,73 L284.961,74 L285.961,74 L285.961,73 L284.961,73 Z M271.461,73 L270.461,73 L270.461,74 L271.461,74 L271.461,73 Z M252.561,34.9 L253.279,35.596 L253.285,35.59 L253.29,35.585 L252.561,34.9 Z M249.461,73 L249.461,74 L250.461,74 L250.461,73 L249.461,73 Z M235.961,73 L234.961,73 L234.961,74 L235.961,74 L235.961,73 Z M235.961,22 L249.261,22 L249.261,20 L235.961,20 L235.961,22 Z M248.261,21 L248.261,28.6 L250.261,28.6 L250.261,21 L248.261,21 Z M250.167,29.022 C251.451,26.267 253.318,24.232 255.77,22.875 C258.234,21.511 261.348,20.8 265.161,20.8 L265.161,18.8 C261.107,18.8 257.638,19.555 254.802,21.125 C251.954,22.701 249.804,25.067 248.354,28.178 L250.167,29.022 Z M265.161,20.8 C268.726,20.8 271.912,21.657 274.746,23.358 L275.775,21.642 C272.61,19.743 269.063,18.8 265.161,18.8 L265.161,20.8 Z M274.761,23.366 C277.587,24.999 279.826,27.356 281.478,30.469 L283.244,29.531 C281.429,26.111 278.935,23.468 275.761,21.634 L274.761,23.366 Z M281.482,30.476 C283.123,33.507 283.961,37.071 283.961,41.2 L285.961,41.2 C285.961,36.796 285.065,32.893 283.24,29.524 L281.482,30.476 Z M283.961,41.2 L283.961,73 L285.961,73 L285.961,41.2 L283.961,41.2 Z M284.961,72 L271.461,72 L271.461,74 L284.961,74 L284.961,72 Z M272.461,73 L272.461,44.5 L270.461,44.5 L270.461,73 L272.461,73 Z M272.461,44.5 C272.461,40.033 271.432,36.507 269.19,34.116 L267.731,35.484 C269.49,37.36 270.461,40.3 270.461,44.5 L272.461,44.5 Z M269.19,34.116 C266.966,31.744 263.948,30.6 260.261,30.6 L260.261,32.6 C263.507,32.6 265.955,33.59 267.731,35.484 L269.19,34.116 Z M260.261,30.6 C256.923,30.6 254.091,31.811 251.832,34.215 L253.29,35.585 C255.164,33.59 257.465,32.6 260.261,32.6 L260.261,30.6 Z M251.843,34.204 C249.529,36.592 248.461,40.087 248.461,44.5 L250.461,44.5 C250.461,40.38 251.459,37.474 253.279,35.596 L251.843,34.204 Z M248.461,44.5 L248.461,73 L250.461,73 L250.461,44.5 L248.461,44.5 Z M249.461,72 L235.961,72 L235.961,74 L249.461,74 L249.461,72 Z M236.961,73 L236.961,21 L234.961,21 L234.961,73 L236.961,73 Z M298.304,59.4 L298.997,60.121 L299.004,60.114 L299.011,60.107 L298.304,59.4 Z M311.004,59.4 L310.283,60.093 L310.297,60.107 L310.311,60.121 L311.004,59.4 Z M304.704,73.3 C302.426,73.3 300.55,72.532 299.011,70.993 L297.597,72.407 C299.525,74.335 301.915,75.3 304.704,75.3 L304.704,73.3 Z M299.011,70.993 C297.461,69.443 296.704,67.629 296.704,65.5 L294.704,65.5 C294.704,68.171 295.68,70.491 297.597,72.407 L299.011,70.993 Z M296.704,65.5 C296.704,63.373 297.459,61.599 298.997,60.121 L297.611,58.679 C295.682,60.534 294.704,62.827 294.704,65.5 L296.704,65.5 Z M299.011,60.107 C300.55,58.568 302.426,57.8 304.704,57.8 L304.704,55.8 C301.915,55.8 299.525,56.765 297.597,58.693 L299.011,60.107 Z M304.704,57.8 C306.982,57.8 308.816,58.567 310.283,60.093 L311.725,58.707 C309.859,56.766 307.493,55.8 304.704,55.8 L304.704,57.8 Z M310.311,60.121 C311.848,61.599 312.604,63.373 312.604,65.5 L314.604,65.5 C314.604,62.827 313.626,60.534 311.697,58.679 L310.311,60.121 Z M312.604,65.5 C312.604,67.703 311.841,69.548 310.297,71.093 L311.711,72.507 C313.633,70.585 314.604,68.23 314.604,65.5 L312.604,65.5 Z M310.297,71.093 C308.833,72.557 306.994,73.3 304.704,73.3 L304.704,75.3 C307.481,75.3 309.842,74.376 311.711,72.507 L310.297,71.093 Z M333.616,70.7 L333.085,71.547 L333.096,71.554 L333.616,70.7 Z M324.216,60.8 L323.34,61.281 L323.346,61.292 L324.216,60.8 Z M324.216,33.6 L323.342,33.114 L323.34,33.119 L324.216,33.6 Z M356.816,22.3 L356.292,23.152 L356.302,23.157 L356.816,22.3 Z M363.016,29.2 L362.118,29.639 L364.016,29.2 L363.016,29.2 Z M363.016,21 L363.016,20 L362.016,20 L362.016,21 L363.016,21 Z M376.416,21 L377.416,21 L377.416,20 L376.416,20 L376.416,21 Z M376.416,73 L376.416,74 L377.416,74 L377.416,73 L376.416,73 Z M363.316,73 L362.316,73 L362.316,74 L363.316,74 L363.316,73 Z M363.316,64.5 L364.316,64.5 L362.418,64.06 L363.316,64.5 Z M357.016,71.8 L357.556,72.642 L357.561,72.638 L357.016,71.8 Z M336.116,54.6 L335.227,55.057 L335.235,55.073 L335.243,55.088 L336.116,54.6 Z M341.216,60.1 L340.668,60.936 L340.683,60.946 L340.698,60.955 L341.216,60.1 Z M356.316,60.1 L355.809,59.238 L355.798,59.245 L356.316,60.1 Z M361.516,39.7 L360.627,40.157 L360.633,40.168 L361.516,39.7 Z M356.316,34.2 L355.78,35.044 L355.794,35.053 L355.809,35.062 L356.316,34.2 Z M341.216,34.2 L341.735,35.055 L341.744,35.05 L341.753,35.044 L341.216,34.2 Z M346.516,73.3 C342.031,73.3 337.912,72.149 334.137,69.846 L333.096,71.554 C337.188,74.051 341.668,75.3 346.516,75.3 L346.516,73.3 Z M334.148,69.853 C330.359,67.477 327.341,64.3 325.087,60.308 L323.346,61.292 C325.759,65.567 329.008,68.99 333.085,71.547 L334.148,69.853 Z M325.093,60.319 C322.911,56.34 321.816,51.973 321.816,47.2 L319.816,47.2 C319.816,52.293 320.988,56.993 323.34,61.281 L325.093,60.319 Z M321.816,47.2 C321.816,42.427 322.911,38.06 325.093,34.081 L323.34,33.119 C320.988,37.407 319.816,42.107 319.816,47.2 L321.816,47.2 Z M325.091,34.086 C327.345,30.028 330.362,26.821 334.148,24.447 L333.085,22.753 C329.004,25.312 325.755,28.772 323.342,33.114 L325.091,34.086 Z M334.148,24.447 C337.921,22.081 342.037,20.9 346.516,20.9 L346.516,18.9 C341.663,18.9 337.179,20.186 333.085,22.753 L334.148,24.447 Z M346.516,20.9 C350.668,20.9 353.901,21.68 356.292,23.152 L357.341,21.448 C354.532,19.72 350.898,18.9 346.516,18.9 L346.516,20.9 Z M356.302,23.157 C358.791,24.651 360.73,26.799 362.118,29.639 L363.915,28.761 C362.37,25.601 360.176,23.149 357.331,21.442 L356.302,23.157 Z M364.016,29.2 L364.016,21 L362.016,21 L362.016,29.2 L364.016,29.2 Z M363.016,22 L376.416,22 L376.416,20 L363.016,20 L363.016,22 Z M375.416,21 L375.416,73 L377.416,73 L377.416,21 L375.416,21 Z M376.416,72 L363.316,72 L363.316,74 L376.416,74 L376.416,72 Z M364.316,73 L364.316,64.5 L362.316,64.5 L362.316,73 L364.316,73 Z M362.418,64.06 C360.956,67.047 358.972,69.336 356.471,70.962 L357.561,72.638 C360.394,70.797 362.61,68.219 364.215,64.94 L362.418,64.06 Z M356.477,70.958 C354.092,72.487 350.803,73.3 346.516,73.3 L346.516,75.3 C351.03,75.3 354.74,74.447 357.556,72.642 L356.477,70.958 Z M333.316,47.1 C333.316,49.923 333.953,52.58 335.227,55.057 L337.006,54.143 C335.88,51.953 335.316,49.61 335.316,47.1 L333.316,47.1 Z M335.243,55.088 C336.587,57.492 338.397,59.446 340.668,60.936 L341.765,59.264 C339.769,57.954 338.179,56.241 336.989,54.112 L335.243,55.088 Z M340.698,60.955 C343.068,62.392 345.75,63.1 348.716,63.1 L348.716,61.1 C346.082,61.1 343.765,60.475 341.735,59.245 L340.698,60.955 Z M348.716,63.1 C351.744,63.1 354.461,62.394 356.835,60.955 L355.798,59.245 C353.772,60.473 351.422,61.1 348.716,61.1 L348.716,63.1 Z M356.823,60.962 C359.245,59.537 361.111,57.603 362.4,55.168 L360.633,54.232 C359.522,56.331 357.921,57.996 355.809,59.238 L356.823,60.962 Z M362.4,55.168 C363.682,52.748 364.316,50.085 364.316,47.2 L362.316,47.2 C362.316,49.781 361.751,52.119 360.633,54.232 L362.4,55.168 Z M364.316,47.2 C364.316,44.315 363.682,41.652 362.4,39.232 L360.633,40.168 C361.751,42.281 362.316,44.619 362.316,47.2 L364.316,47.2 Z M362.406,39.243 C361.119,36.741 359.253,34.767 356.823,33.338 L355.809,35.062 C357.913,36.3 359.514,37.993 360.627,40.157 L362.406,39.243 Z M356.853,33.356 C354.477,31.844 351.754,31.1 348.716,31.1 L348.716,33.1 C351.412,33.1 353.756,33.756 355.78,35.044 L356.853,33.356 Z M348.716,31.1 C345.741,31.1 343.052,31.847 340.68,33.356 L341.753,35.044 C343.781,33.753 346.092,33.1 348.716,33.1 L348.716,31.1 Z M340.698,33.345 C338.344,34.772 336.517,36.705 335.233,39.132 L337,40.068 C338.115,37.962 339.689,36.295 341.735,35.055 L340.698,33.345 Z M335.233,39.132 C333.951,41.552 333.316,44.215 333.316,47.1 L335.316,47.1 C335.316,44.519 335.882,42.181 337,40.068 L335.233,39.132 Z M389.438,21 L389.438,20 L388.438,20 L388.438,21 L389.438,21 Z M402.938,21 L403.938,21 L403.938,20 L402.938,20 L402.938,21 Z M402.938,73 L402.938,74 L403.938,74 L403.938,73 L402.938,73 Z M389.438,73 L388.438,73 L388.438,74 L389.438,74 L389.438,73 Z M390.337,3.1 L389.646,2.378 L389.638,2.385 L389.63,2.393 L390.337,3.1 Z M390.337,14.4 L389.616,15.092 L389.63,15.107 L389.646,15.122 L390.337,14.4 Z M389.438,22 L402.938,22 L402.938,20 L389.438,20 L389.438,22 Z M401.938,21 L401.938,73 L403.938,73 L403.938,21 L401.938,21 Z M402.938,72 L389.438,72 L389.438,74 L402.938,74 L402.938,72 Z M390.438,73 L390.438,21 L388.438,21 L388.438,73 L390.438,73 Z M389.038,8.7 C389.038,6.761 389.702,5.15 391.045,3.807 L389.63,2.393 C387.906,4.117 387.038,6.239 387.038,8.7 L389.038,8.7 Z M391.029,3.822 C392.439,2.472 394.122,1.8 396.138,1.8 L396.138,-0.2 C393.62,-0.2 391.436,0.662 389.646,2.378 L391.029,3.822 Z M396.138,1.8 C398.228,1.8 399.9,2.477 401.23,3.807 L402.645,2.393 C400.909,0.657 398.714,-0.2 396.138,-0.2 L396.138,1.8 Z M401.23,3.807 C402.573,5.15 403.237,6.761 403.237,8.7 L405.237,8.7 C405.237,6.239 404.369,4.117 402.645,2.393 L401.23,3.807 Z M403.237,8.7 C403.237,10.715 402.567,12.356 401.23,13.693 L402.645,15.107 C404.375,13.377 405.237,11.219 405.237,8.7 L403.237,8.7 Z M401.23,13.693 C399.9,15.024 398.228,15.7 396.138,15.7 L396.138,17.7 C398.714,17.7 400.909,16.843 402.645,15.107 L401.23,13.693 Z M396.138,15.7 C394.122,15.7 392.439,15.028 391.029,13.678 L389.646,15.122 C391.436,16.838 393.62,17.7 396.138,17.7 L396.138,15.7 Z M391.059,13.708 C389.703,12.293 389.038,10.64 389.038,8.7 L387.038,8.7 C387.038,11.16 387.905,13.307 389.616,15.092 L391.059,13.708 Z"/>
</svg>
