<svg width="200" height="200" viewBox="0 0 200 200" fill="none" xmlns="http://www.w3.org/2000/svg">
  <circle cx="100" cy="100" r="100" fill="#745DF9" />
  <mask id="mask0_480_31" style="mask-type:alpha" maskUnits="userSpaceOnUse" x="0" y="0" width="200" height="200">
    <circle cx="100" cy="100" r="100" fill="#745DF9" />
  </mask>
  <g mask="url(#mask0_480_31)">
    <path fill-rule="evenodd" clip-rule="evenodd"
      d="M100.346 115.833L126.93 93H73.1346L100.346 115.833ZM100.04 152.128L79.6609 169.631C73.9319 174.552 65.154 174.025 60.0549 168.454C54.9559 162.883 55.4665 154.379 61.1955 149.458L78.8193 134.321L27.7253 91.4484C24.257 88.5382 22.5547 84.3043 22.7372 80.1056C22.7284 79.9048 22.7239 79.7029 22.7239 79.5C22.7239 72.0442 28.7681 66 36.2239 66H163.224C168.731 66 173.468 69.2973 175.568 74.0253C178.271 79.3325 177.121 85.9246 172.346 90.0263L121.567 133.639L171.86 175.84C177.783 180.81 178.555 189.641 173.585 195.564C168.615 201.487 159.785 202.259 153.861 197.289L100.04 152.128Z"
      fill="white" />
    <circle cx="99.7239" cy="38" r="18" fill="white" />
  </g>
</svg>