<svg xmlns="http://www.w3.org/2000/svg" viewBox="0 0 200 200">
  <defs />
  <path
    d="M93.667,0.217 C96.432,-0.044 103.96,0.027 107.899,0.352 C125.36,1.79 140.71,7.133 155.456,16.905 C179.165,32.615 194.614,57.102 199.05,86 C200.109,92.897 200.129,107.006 199.09,113.671 C195.814,134.694 187.873,151.669 174.131,167.024 C158.63,184.347 137.973,195.302 113.671,199.09 C107.138,200.109 92.862,200.109 86.329,199.09 C68.518,196.314 53.216,189.99 39.941,179.917 C20.896,165.467 7.627,144.996 2.506,122.16 C-3.976,93.261 2.408,63.344 20.038,40 C32.012,24.144 48.261,12.216 66.715,5.736 C75.481,2.658 82.049,1.313 93.667,0.217 Z M160.765,72.145 L158.833,71.167 L100.667,71.103 C55.412,71.054 42.163,71.132 40.984,71.452 C38.002,72.26 35.256,74.647 33.879,77.626 C33.31,78.857 33.167,79.803 33.167,82.333 C33.167,85.101 33.28,85.731 34.068,87.333 C34.564,88.342 35.614,89.782 36.401,90.534 C37.189,91.286 47.508,99.441 59.333,108.655 C71.158,117.87 81.028,125.591 81.265,125.815 C81.612,126.141 79.638,127.833 71.307,134.354 C65.593,138.827 60.565,142.948 60.135,143.512 C56.251,148.603 57.48,155.508 62.91,159.108 C66.136,161.246 70.236,161.546 73.73,159.9 C74.704,159.441 80.878,154.841 87.45,149.677 C94.023,144.513 99.594,140.362 99.831,140.453 C100.068,140.544 111.34,149.276 124.881,159.858 C138.421,170.439 149.996,179.306 150.602,179.561 C156.408,182.003 163.173,179.197 165.322,173.453 C166.608,170.016 166.01,165.657 163.866,162.847 C163.399,162.234 152.798,153.748 140.308,143.99 L117.6,126.248 L118.384,125.509 C118.814,125.103 128.842,117.226 140.667,108.005 C152.492,98.785 162.811,90.624 163.599,89.87 C164.386,89.117 165.436,87.675 165.932,86.667 C167.136,84.218 167.218,80.017 166.11,77.608 C165.099,75.412 163.023,73.289 160.765,72.145 Z M103.036,30.34 C102.05,30.153 100.55,30.016 99.705,30.037 C89.541,30.278 81.983,40.118 84.51,49.819 C86.74,58.381 95.478,63.662 103.819,61.49 C112.381,59.26 117.662,50.522 115.49,42.181 C113.937,36.221 108.927,31.457 103.036,30.34 Z M75.679,93.458 C75.264,93.069 78.89,93 99.662,93 C113.121,93 123.991,93.127 123.817,93.282 C122.64,94.332 100.188,111.743 99.838,111.878 C99.499,112.008 77.885,95.529 75.679,93.458 Z" />
</svg>