<svg width="16" height="16" viewBox="0 0 16 16" fill="none" xmlns="http://www.w3.org/2000/svg">
<g clip-path="url(#clip0_2053_109)">
<path d="M14.6666 3.43331V5.23331C14.6666 6.73331 14.0666 7.33331 12.5666 7.33331H10.7666C9.26658 7.33331 8.66658 6.73331 8.66658 5.23331V3.43331C8.66658 1.93331 9.26658 1.33331 10.7666 1.33331H12.5666C14.0666 1.33331 14.6666 1.93331 14.6666 3.43331ZM7.33325 10.7666V12.5666C7.33325 14.0666 6.73325 14.6666 5.23325 14.6666H3.43325C1.93325 14.6666 1.33325 14.0666 1.33325 12.5666V10.7666C1.33325 9.26665 1.93325 8.66665 3.43325 8.66665H5.23325C6.73325 8.66665 7.33325 9.26665 7.33325 10.7666Z" stroke="#7C7C94" stroke-width="1.5" stroke-linecap="round" stroke-linejoin="round"/>
<path opacity="0.4" d="M11.5867 7.334V9.08067C11.5867 10.874 10.8733 11.5873 9.08 11.5873H7.33333V10.7673C7.33333 9.26733 6.73333 8.66734 5.23333 8.66734H4.41333V6.92067C4.41333 5.12733 5.12666 4.414 6.92 4.414H8.66666V5.234C8.66666 6.734 9.26666 7.334 10.7667 7.334H11.5867Z" stroke="#7C7C94" stroke-width="1.5" stroke-linecap="round" stroke-linejoin="round"/>
</g>
<defs>
<clipPath id="clip0_2053_109">
<rect width="16" height="16" fill="white"/>
</clipPath>
</defs>
</svg>
