<svg width="20" height="20" viewBox="0 0 20 20" fill="none" xmlns="http://www.w3.org/2000/svg">
  <path opacity="0.4"
    d="M10 20C15.523 20 20 15.523 20 10C20 4.477 15.523 0 10 0C4.477 0 0 4.477 0 10C0 15.523 4.477 20 10 20Z"
    fill="#7C7C94" />
  <path
    d="M11.06 10.0001L13.36 7.70006C13.65 7.41006 13.65 6.93007 13.36 6.64007C13.2189 6.50058 13.0284 6.42236 12.83 6.42236C12.6316 6.42236 12.4411 6.50058 12.3 6.64007L10 8.94006L7.7 6.64007C7.55886 6.50058 7.36843 6.42236 7.17 6.42236C6.97157 6.42236 6.78114 6.50058 6.64 6.64007C6.35 6.93007 6.35 7.41006 6.64 7.70006L8.94 10.0001L6.64 12.3001C6.35 12.5901 6.35 13.0701 6.64 13.3601C6.79 13.5101 6.98 13.5801 7.17 13.5801C7.36 13.5801 7.55 13.5101 7.7 13.3601L10 11.0601L12.3 13.3601C12.45 13.5101 12.64 13.5801 12.83 13.5801C13.02 13.5801 13.21 13.5101 13.36 13.3601C13.65 13.0701 13.65 12.5901 13.36 12.3001L11.06 10.0001Z"
    fill="white" />
</svg>