<svg width="24" height="24" viewBox="0 0 24 24" fill="none" xmlns="http://www.w3.org/2000/svg">
<path d="M18.5 12.648V16.348C18.5 19.468 15.59 21.998 12 21.998C8.41 21.998 5.5 19.468 5.5 16.348V12.648C5.5 15.768 8.41 17.998 12 17.998C15.59 17.998 18.5 15.768 18.5 12.648Z" fill="#745DF9"/>
<path opacity="0.4" d="M18.5 7.64801V12.648C18.5 15.768 15.59 17.998 12 17.998C8.41 17.998 5.5 15.768 5.5 12.648V7.64801C5.5 8.55801 5.75 9.39801 6.19 10.118C7.26 11.878 9.46 12.998 12 12.998C14.54 12.998 16.74 11.878 17.81 10.118C18.25 9.39801 18.5 8.55801 18.5 7.64801Z" fill="#745DF9"/>
<path d="M18.5 7.65C18.5 8.56 18.25 9.4 17.81 10.12C16.74 11.88 14.54 13 12 13C9.46 13 7.26 11.88 6.19 10.12C5.75 9.4 5.5 8.56 5.5 7.65C5.5 4.53 8.41 2 12 2C13.8 2 15.42 2.63 16.6 3.65C17.77 4.68 18.5 6.09 18.5 7.65Z" fill="#745DF9"/>
</svg>
