<svg width="16" height="16" viewBox="0 0 16 16" fill="none" xmlns="http://www.w3.org/2000/svg">
<g clip-path="url(#clip0_2053_97)">
<path d="M10.6667 8.26667V10.2667C10.6667 12.9333 9.60008 14 6.93341 14H4.40008C1.73341 14 0.666748 12.9333 0.666748 10.2667V7.73333C0.666748 5.06667 1.73341 4 4.40008 4H6.40008" stroke="#7C7C94" stroke-width="1.5" stroke-linecap="round" stroke-linejoin="round"/>
<path opacity="0.4" d="M10.6666 8.26667H8.53324C6.93324 8.26667 6.3999 7.73333 6.3999 6.13333V4L10.6666 8.26667Z" stroke="#7C7C94" stroke-width="1.5" stroke-linecap="round" stroke-linejoin="round"/>
<path d="M4 2.66669C4 1.56002 4.89333 0.666687 6 0.666687H10M14 4.66669V8.79335C14 9.82669 13.16 10.6667 12.1267 10.6667" stroke="#7C7C94" stroke-width="1.5" stroke-linecap="round" stroke-linejoin="round"/>
<path opacity="0.4" d="M14 4.66669H12C10.5 4.66669 10 4.16669 10 2.66669V0.666687L14 4.66669Z" stroke="#7C7C94" stroke-width="1.5" stroke-linecap="round" stroke-linejoin="round"/>
</g>
<defs>
<clipPath id="clip0_2053_97">
<rect width="16" height="16" fill="white"/>
</clipPath>
</defs>
</svg>
