<svg width="16" height="16" viewBox="0 0 16 16" fill="none" xmlns="http://www.w3.org/2000/svg">
<g clip-path="url(#clip0_2053_99)">
<path opacity="0.4" d="M7.33325 1.33331H5.99992C2.66659 1.33331 1.33325 2.66665 1.33325 5.99998V9.99998C1.33325 13.3333 2.66659 14.6666 5.99992 14.6666H9.99992C13.3333 14.6666 14.6666 13.3333 14.6666 9.99998V8.66665" stroke="#7C7C94" stroke-width="1.5" stroke-linecap="round" stroke-linejoin="round"/>
<path d="M10.6933 2.01399L5.43992 7.26732C5.23992 7.46732 5.03992 7.86066 4.99992 8.14732L4.71325 10.154C4.60659 10.8807 5.11992 11.3873 5.84659 11.2873L7.85325 11.0007C8.13325 10.9607 8.52659 10.7607 8.73325 10.5607L13.9866 5.30732C14.8933 4.40066 15.3199 3.34732 13.9866 2.01399C12.6533 0.680657 11.5999 1.10732 10.6933 2.01399Z" stroke="#7C7C94" stroke-width="1.5" stroke-miterlimit="10" stroke-linecap="round" stroke-linejoin="round"/>
<path opacity="0.4" d="M9.93994 2.76532C10.161 3.5503 10.5799 4.26536 11.1566 4.84202C11.7332 5.41867 12.4483 5.83759 13.2333 6.05865" stroke="#7C7C94" stroke-width="1.5" stroke-miterlimit="10" stroke-linecap="round" stroke-linejoin="round"/>
</g>
<defs>
<clipPath id="clip0_2053_99">
<rect width="16" height="16" fill="white"/>
</clipPath>
</defs>
</svg>
