<svg width="16" height="16" viewBox="0 0 16 16" fill="none" xmlns="http://www.w3.org/2000/svg">
  <path
    d="M15.68 8.18177C15.68 7.6145 15.6291 7.06905 15.5345 6.54541H8V9.63995H12.3054C12.12 10.64 11.5564 11.4872 10.7091 12.0545V14.0618H13.2945C14.8073 12.669 15.68 10.6181 15.68 8.18177Z"
    fill="#4285F4" />
  <path
    d="M7.99999 16C10.16 16 11.9709 15.2836 13.2945 14.0618L10.7091 12.0546C9.99272 12.5346 9.07636 12.8182 7.99999 12.8182C5.91636 12.8182 4.15272 11.4109 3.52363 9.52002H0.85091V11.5927C2.16727 14.2073 4.87272 16 7.99999 16Z"
    fill="#34A853" />
  <path
    d="M3.52363 9.51995C3.36363 9.03995 3.27272 8.52722 3.27272 7.99995C3.27272 7.47268 3.36363 6.95995 3.52363 6.47995V4.40723H0.850908C0.309091 5.48723 0 6.70904 0 7.99995C0 9.29086 0.309091 10.5127 0.850908 11.5927L3.52363 9.51995Z"
    fill="#FBBC05" />
  <path
    d="M7.99999 3.18181C9.17454 3.18181 10.2291 3.58545 11.0582 4.37818L13.3527 2.08363C11.9673 0.792726 10.1564 0 7.99999 0C4.87272 0 2.16727 1.79273 0.85091 4.40727L3.52363 6.47999C4.15272 4.58909 5.91636 3.18181 7.99999 3.18181Z"
    fill="#EA4335" />
</svg>