<svg width="24" height="24" viewBox="0 0 24 24" fill="none" xmlns="http://www.w3.org/2000/svg">
<path d="M16.44 3.10199C14.63 3.10199 13.01 3.98199 12 5.33199C11.4841 4.6408 10.8143 4.07938 10.0435 3.69228C9.27281 3.30519 8.42247 3.10308 7.56 3.10199C4.49 3.10199 2 5.60199 2 8.69199C2 9.88199 2.19 10.982 2.52 12.002C4.1 17.002 8.97 19.992 11.38 20.812C11.72 20.932 12.28 20.932 12.62 20.812C15.03 19.992 19.9 17.002 21.48 12.002C21.81 10.982 22 9.88199 22 8.69199C22 5.60199 19.51 3.10199 16.44 3.10199Z" fill="#7C7C94"/>
</svg>
