<svg width="16" height="16" viewBox="0 0 16 16" fill="none" xmlns="http://www.w3.org/2000/svg">
<path d="M7.39887 4.00325L7.99919 4.80761L8.60045 4.00395C9.13889 3.28426 10.0006 2.81799 10.9599 2.81799C12.5889 2.81799 13.9166 4.14536 13.9166 5.79466C13.9166 6.50642 13.8032 7.16195 13.6063 7.77046L13.6063 7.77046L13.6048 7.77534C13.1318 9.27207 12.1573 10.4929 11.0852 11.4142C10.0099 12.3384 8.87969 12.9237 8.17167 13.1646L8.17165 13.1646L8.16366 13.1674C8.16373 13.1674 8.16368 13.1674 8.1635 13.1675C8.16168 13.168 8.14605 13.1727 8.11488 13.1771C8.08225 13.1817 8.04264 13.1847 7.99992 13.1847C7.95719 13.1847 7.91758 13.1817 7.88495 13.1771C7.85062 13.1722 7.83514 13.167 7.8362 13.1674L7.83622 13.1674L7.82817 13.1646C7.12014 12.9237 5.98992 12.3384 4.9146 11.4142C3.84257 10.4929 2.86803 9.27207 2.39506 7.77534L2.39508 7.77534L2.3935 7.77046C2.19663 7.16195 2.08325 6.50642 2.08325 5.79466C2.08325 4.14552 3.41071 2.81825 5.03945 2.81799C5.49769 2.81864 5.94949 2.92606 6.35899 3.13174C6.76863 3.33748 7.12468 3.63588 7.39887 4.00325Z" stroke="#7C7C94" stroke-width="1.5"/>
</svg>
