<svg width="24" height="24" viewBox="0 0 24 24" fill="none" xmlns="http://www.w3.org/2000/svg">
<path d="M19.21 6.36099C18.17 4.26099 16.16 2.71099 13.83 2.20099C11.39 1.66099 8.89003 2.24099 6.98003 3.78099C6.03725 4.53082 5.27663 5.48452 4.75531 6.57048C4.23398 7.65643 3.9655 8.84639 3.97003 10.051C3.97003 12.641 5.52003 15.351 7.86003 16.921V17.751C7.85003 18.031 7.84003 18.461 8.18003 18.811C8.53003 19.171 9.05003 19.211 9.46003 19.211H14.59C15.13 19.211 15.54 19.061 15.82 18.781C16.2 18.391 16.19 17.891 16.18 17.621V16.921C19.28 14.831 21.23 10.421 19.21 6.36099Z" fill="#745DF9"/>
<path opacity="0.4" d="M15.26 21.998C15.2 21.998 15.13 21.988 15.07 21.968C13.06 21.398 10.95 21.398 8.93997 21.968C8.56997 22.068 8.17997 21.858 8.07997 21.488C8.05413 21.4 8.04608 21.3078 8.0563 21.2167C8.06652 21.1255 8.09481 21.0374 8.1395 20.9573C8.18419 20.8772 8.24439 20.8069 8.31658 20.7503C8.38878 20.6938 8.47152 20.6522 8.55997 20.628C10.82 19.988 13.2 19.988 15.46 20.628C15.83 20.738 16.05 21.118 15.94 21.488C15.84 21.798 15.56 21.998 15.26 21.998Z" fill="#745DF9"/>
</svg>
