<svg width="16" height="16" viewBox="0 0 16 16" fill="none" xmlns="http://www.w3.org/2000/svg">
<g clip-path="url(#clip0_2053_104)">
<path d="M14.6666 6.66665V8.66665C14.6666 11.3333 13.3333 12.6666 10.6666 12.6666H10.3333C10.1266 12.6666 9.92658 12.7666 9.79992 12.9333L8.79992 14.2666C8.35992 14.8533 7.63992 14.8533 7.19992 14.2666L6.19992 12.9333C6.09325 12.7866 5.84659 12.6666 5.66659 12.6666H5.33325C2.66659 12.6666 1.33325 12 1.33325 8.66665V5.33331C1.33325 2.66665 2.66659 1.33331 5.33325 1.33331H9.33325" stroke="#7C7C94" stroke-width="1.5" stroke-miterlimit="10" stroke-linecap="round" stroke-linejoin="round"/>
<path opacity="0.4" d="M12.9999 4.66665C13.4419 4.66665 13.8659 4.49105 14.1784 4.17849C14.491 3.86593 14.6666 3.44201 14.6666 2.99998C14.6666 2.55795 14.491 2.13403 14.1784 1.82147C13.8659 1.50891 13.4419 1.33331 12.9999 1.33331C12.5579 1.33331 12.134 1.50891 11.8214 1.82147C11.5088 2.13403 11.3333 2.55795 11.3333 2.99998C11.3333 3.44201 11.5088 3.86593 11.8214 4.17849C12.134 4.49105 12.5579 4.66665 12.9999 4.66665Z" stroke="#7C7C94" stroke-width="1.5" stroke-linecap="round" stroke-linejoin="round"/>
<path opacity="0.4" d="M10.6634 7.33331H10.6687M7.99674 7.33331H8.00274M5.33008 7.33331H5.33541" stroke="#7C7C94" stroke-width="2" stroke-linecap="round" stroke-linejoin="round"/>
</g>
<defs>
<clipPath id="clip0_2053_104">
<rect width="16" height="16" fill="white"/>
</clipPath>
</defs>
</svg>
