<svg width="16" height="16" viewBox="0 0 16 16" fill="none" xmlns="http://www.w3.org/2000/svg">
<g clip-path="url(#clip0_2053_107)">
<path d="M12.7073 12.4454L11.2807 9.59869L9.854 12.4454M10.1147 11.94H12.4613" stroke="#7C7C94" stroke-width="1.5" stroke-linecap="round" stroke-linejoin="round"/>
<path d="M6.00858 3.90131H3.30192M4.64859 3.44798V3.90131M11.2799 14.6666C10.8351 14.6666 10.3946 14.5789 9.98367 14.4087C9.57271 14.2384 9.19932 13.9889 8.88481 13.6743C8.5703 13.3597 8.32083 12.9863 8.15064 12.5753C7.98045 12.1643 7.89287 11.7238 7.89292 11.279C7.89296 10.8341 7.98062 10.3937 8.15089 9.98273C8.32116 9.57177 8.57071 9.19838 8.88528 8.88387C9.19985 8.56936 9.5733 8.31989 9.98428 8.1497C10.3953 7.97951 10.8358 7.89194 11.2806 7.89198C12.179 7.89207 13.0405 8.24903 13.6757 8.88434C14.3109 9.51965 14.6677 10.3813 14.6676 11.2796C14.6675 12.178 14.3105 13.0396 13.6752 13.6748C13.0399 14.3099 12.1783 14.6667 11.2799 14.6666ZM3.34659 1.33331H5.95992C7.33992 1.33331 8.00658 1.99998 7.97325 3.34665V5.95998C8.00658 7.33998 7.33992 8.00665 5.95992 7.97331H3.34659C1.99992 7.99998 1.33325 7.33331 1.33325 5.95331V3.33998C1.33325 1.99998 1.99992 1.33331 3.34659 1.33331Z" stroke="#7C7C94" stroke-width="1.5" stroke-linecap="round" stroke-linejoin="round"/>
<path d="M5.32728 3.896C5.32728 5.06266 4.41395 6.00933 3.29395 6.00933" stroke="#7C7C94" stroke-width="1.5" stroke-linecap="round" stroke-linejoin="round"/>
<path d="M6.00677 6.00665C5.5201 6.00665 5.0801 5.74665 4.77344 5.33331" stroke="#7C7C94" stroke-width="1.5" stroke-linecap="round" stroke-linejoin="round"/>
<path opacity="0.4" d="M1.33325 9.99998C1.33325 12.58 3.41992 14.6666 5.99992 14.6666L5.29992 13.5M14.6666 5.99998C14.6666 3.41998 12.5799 1.33331 9.99992 1.33331L10.6999 2.49998" stroke="#7C7C94" stroke-width="1.5" stroke-linecap="round" stroke-linejoin="round"/>
</g>
<defs>
<clipPath id="clip0_2053_107">
<rect width="16" height="16" fill="white"/>
</clipPath>
</defs>
</svg>
