<svg width="24" height="24" viewBox="0 0 24 24" fill="none" xmlns="http://www.w3.org/2000/svg">
<path opacity="0.4" d="M16.92 22C16.2528 21.9999 15.5921 21.8684 14.9756 21.613C14.3592 21.3576 13.7991 20.9833 13.3273 20.5115C12.8556 20.0396 12.4814 19.4794 12.2261 18.863C11.9708 18.2465 11.8394 17.5857 11.8395 16.9185C11.8396 16.2513 11.9711 15.5906 12.2265 14.9741C12.4819 14.3577 12.8562 13.7976 13.328 13.3258C13.7999 12.8541 14.3601 12.4799 14.9765 12.2246C15.593 11.9693 16.2538 11.8379 16.921 11.838C18.2686 11.8381 19.5609 12.3736 20.5137 13.3265C21.4664 14.2795 22.0016 15.5719 22.0015 16.9195C22.0014 18.2671 21.4659 19.5594 20.513 20.5122C19.56 21.4649 18.2676 22.0001 16.92 22ZM5.02 2H8.94C11.01 2 12.01 3 11.96 5.02V8.94C12.01 11.01 11.01 12.01 8.94 11.96H5.02C3 12 2 11 2 8.93V5.01C2 3 3 2 5.02 2Z" fill="#7C7C94"/>
<path d="M9.01 8.262C8.7 8.262 8.41 8.142 8.14 7.942C8.39 7.542 8.57 7.092 8.66 6.602H9C9.41 6.602 9.75 6.262 9.75 5.852C9.75 5.442 9.41 5.102 9 5.102H7.71C7.6929 4.91709 7.60771 4.74512 7.47098 4.61947C7.33424 4.49382 7.1557 4.42344 6.97 4.422C6.58 4.422 6.27 4.722 6.23 5.102H4.94C4.53 5.102 4.19 5.442 4.19 5.852C4.19 6.262 4.53 6.602 4.94 6.602H7.11C6.81 7.562 5.95 8.262 4.93 8.262C4.52 8.262 4.18 8.602 4.18 9.012C4.18 9.422 4.52 9.762 4.93 9.762C5.71463 9.75922 6.47806 9.50708 7.11 9.042C7.66 9.502 8.32 9.762 9 9.762C9.41 9.762 9.75 9.422 9.75 9.012C9.75 8.602 9.42 8.262 9.01 8.262ZM9 22.75C4.73 22.75 1.25 19.27 1.25 15C1.25 14.59 1.59 14.25 2 14.25C2.41 14.25 2.75 14.59 2.75 15C2.75 17.96 4.81 20.44 7.58 21.09L7.31 20.64C7.20789 20.4689 7.17792 20.2643 7.22668 20.0712C7.27544 19.878 7.39894 19.7121 7.57 19.61C7.74107 19.5079 7.94568 19.4779 8.13885 19.5267C8.33201 19.5754 8.49789 19.6989 8.6 19.87L9.65 21.62C9.79 21.85 9.79 22.14 9.66 22.37C9.52 22.6 9.27 22.75 9 22.75ZM21.998 9.75C21.588 9.75 21.248 9.41 21.248 9C21.248 6.04 19.188 3.56 16.418 2.91L16.688 3.36C16.7386 3.4447 16.7719 3.53853 16.7862 3.63614C16.8005 3.73374 16.7955 3.8332 16.7713 3.92885C16.7472 4.02449 16.7044 4.11444 16.6455 4.19357C16.5866 4.27269 16.5127 4.33944 16.428 4.39C16.3433 4.44056 16.2495 4.47394 16.1519 4.48824C16.0543 4.50253 15.9548 4.49746 15.8592 4.47332C15.7635 4.44918 15.6736 4.40643 15.5944 4.34752C15.5153 4.28862 15.4486 4.2147 15.398 4.13L14.348 2.38C14.2802 2.26704 14.2435 2.13811 14.2417 2.00635C14.24 1.87459 14.2732 1.74473 14.338 1.63C14.468 1.39 14.718 1.25 14.988 1.25C19.258 1.25 22.738 4.73 22.738 9C22.7393 9.09802 22.7212 9.19532 22.6846 9.28626C22.648 9.3772 22.5937 9.45996 22.5248 9.52974C22.456 9.59951 22.374 9.65492 22.2835 9.69273C22.1931 9.73054 22.096 9.75001 21.998 9.75ZM19.73 18.33L17.59 14.06C17.5267 13.936 17.431 13.8314 17.313 13.7574C17.195 13.6835 17.0592 13.6429 16.92 13.64C16.7816 13.6408 16.646 13.6795 16.5279 13.7517C16.4098 13.824 16.3137 13.9271 16.25 14.05L14.11 18.32C13.92 18.69 14.07 19.14 14.45 19.33C14.553 19.38 14.6655 19.4073 14.78 19.41C15.05 19.41 15.32 19.26 15.45 19L15.62 18.66H18.21L18.38 19C18.57 19.37 19.02 19.52 19.39 19.34C19.77 19.15 19.92 18.7 19.73 18.33ZM16.38 17.16L16.93 16.07L17.48 17.16H16.38Z" fill="#7C7C94"/>
</svg>
