<svg width="16" height="16" viewBox="0 0 16 16" fill="none" xmlns="http://www.w3.org/2000/svg">
<g clip-path="url(#clip0_2053_103)">
<path d="M7.83341 6.28667L5.66674 10L5.24674 10.7267L3.60007 13.54C3.48007 13.7533 3.17341 13.76 3.04007 13.5533L0.78674 10.1867C0.750805 10.131 0.731689 10.0662 0.731689 10C0.731689 9.93378 0.750805 9.86896 0.78674 9.81333L3.23341 6.14667C3.29341 6.05333 3.40007 6 3.51341 6H7.66674L7.83341 6.28667Z" stroke="#1F1E40" stroke-width="1.5" stroke-miterlimit="10" stroke-linecap="round" stroke-linejoin="round"/>
<path opacity="0.4" d="M5.66676 10H9.42009C9.68009 10 9.84009 9.72 9.70676 9.5L7.83343 6.28667L7.66676 6L5.62676 2.5C5.49343 2.28 5.65343 2 5.91343 2H10.4734C10.5934 2 10.7068 2.06 10.7601 2.16667L15.2268 9.82C15.2934 9.93333 15.2868 10.0667 15.2201 10.1733L12.7668 13.8533C12.7068 13.9467 12.6001 14 12.4868 14H8.18009C8.06676 14 7.96009 13.9467 7.90009 13.8533L5.80676 10.7133L5.51343 10.2667L5.66676 10Z" stroke="#1F1E40" stroke-width="1.5" stroke-miterlimit="10"/>
</g>
<defs>
<clipPath id="clip0_2053_103">
<rect width="16" height="16" fill="white"/>
</clipPath>
</defs>
</svg>
