<svg width="19" height="16" viewBox="0 0 19 16" fill="none" xmlns="http://www.w3.org/2000/svg">
  <path
    d="M6.88038 0C3.08037 0 0 2.6808 0 5.98614C0 7.78964 0.92625 9.41296 2.37658 10.5112C2.45706 10.5713 2.51681 10.6563 2.54714 10.7539C2.57747 10.8514 2.57679 10.9563 2.54521 11.0534L2.23646 12.2601C2.22142 12.3172 2.19846 12.3751 2.19846 12.4338C2.19846 12.5667 2.30137 12.6743 2.42804 12.6743C2.47519 12.6723 2.52092 12.6571 2.56025 12.6302L4.06679 11.722C4.15017 11.6672 4.2441 11.6317 4.34209 11.6179C4.44009 11.6041 4.53982 11.6123 4.63442 11.6421C5.36424 11.8603 6.12041 11.9709 6.88038 11.9706C7.09888 11.9706 7.31025 11.9486 7.52242 11.9299C6.84396 9.82796 7.64671 7.87607 9.05192 6.67428C10.4001 5.52059 12.1252 5.05993 13.6855 5.1757C13.2295 2.25438 10.3637 0 6.88038 0ZM4.57979 3.10069C5.08804 3.10069 5.49971 3.532 5.49971 4.06278C5.50054 4.18805 5.47741 4.31227 5.43163 4.42833C5.38585 4.5444 5.31832 4.65004 5.2329 4.73923C5.14748 4.82842 5.04583 4.8994 4.93377 4.94813C4.82171 4.99686 4.70143 5.02238 4.57979 5.02324C4.45809 5.02238 4.33774 4.99684 4.22563 4.94805C4.11351 4.89927 4.01183 4.82822 3.9264 4.73894C3.84097 4.64967 3.77346 4.54393 3.72772 4.42777C3.68199 4.31161 3.65894 4.18731 3.65988 4.06196C3.65988 3.53119 4.07154 3.09988 4.57979 3.09988V3.10069ZM9.18175 3.10069C9.69 3.10069 10.1017 3.532 10.1017 4.06278C10.1025 4.18805 10.0794 4.31227 10.0336 4.42833C9.98781 4.5444 9.92028 4.65004 9.83486 4.73923C9.74944 4.82842 9.64779 4.8994 9.53573 4.94813C9.42367 4.99686 9.30339 5.02238 9.18175 5.02324C9.06011 5.02238 8.93983 4.99686 8.82777 4.94813C8.71571 4.8994 8.61406 4.82842 8.52864 4.73923C8.44322 4.65004 8.37569 4.5444 8.32991 4.42833C8.28413 4.31227 8.261 4.18805 8.26183 4.06278C8.26183 3.532 8.6735 3.10069 9.18175 3.10069ZM13.4093 5.43824C11.9866 5.39584 10.4437 5.85569 9.22925 6.89441C7.86758 8.0587 7.10204 9.92744 7.82008 11.9658C8.56583 13.9658 10.7223 15.4138 13.2699 15.4138C13.9238 15.4138 14.554 15.3159 15.139 15.1398C15.218 15.1151 15.3011 15.1083 15.3829 15.1199C15.4646 15.1314 15.5429 15.161 15.6125 15.2067L16.8665 15.9617C16.8993 15.9847 16.9376 15.998 16.9773 16C17.0834 16 17.1673 15.9095 17.1673 15.7986C17.1673 15.7497 17.1491 15.7008 17.1372 15.6543L16.8783 14.649C16.8667 14.6077 16.8606 14.5649 16.8601 14.5218C16.8598 14.4586 16.8741 14.3962 16.9018 14.3398C16.9294 14.2834 16.9697 14.2346 17.0192 14.1973C18.2273 13.2833 19 11.9299 19 10.4297C19 7.81247 16.6796 5.67061 13.7307 5.46596V5.46433C13.6238 5.45618 13.5169 5.44232 13.4085 5.43987L13.4093 5.43824ZM11.4063 8.10762C11.8299 8.10762 12.1735 8.46637 12.1735 8.90828C12.1742 9.01278 12.1549 9.1164 12.1168 9.21324C12.0786 9.31007 12.0223 9.39822 11.9511 9.47264C11.8798 9.54706 11.7951 9.60631 11.7016 9.64699C11.6081 9.68767 11.5078 9.709 11.4063 9.70974C11.3049 9.709 11.2045 9.68767 11.1111 9.64699C11.0176 9.60631 10.9328 9.54706 10.8616 9.47264C10.7904 9.39822 10.7341 9.31007 10.6959 9.21324C10.6577 9.1164 10.6385 9.01278 10.6392 8.90828C10.6392 8.46637 10.9828 8.10762 11.4071 8.10762H11.4063ZM15.2412 8.10762C15.6647 8.10762 16.0083 8.46637 16.0083 8.90828C16.009 9.01278 15.9898 9.1164 15.9516 9.21324C15.9134 9.31007 15.8571 9.39822 15.7859 9.47264C15.7147 9.54706 15.6299 9.60631 15.5364 9.64699C15.443 9.68767 15.3426 9.709 15.2412 9.70974C15.1397 9.709 15.0394 9.68767 14.9459 9.64699C14.8524 9.60631 14.7677 9.54706 14.6964 9.47264C14.6252 9.39822 14.5689 9.31007 14.5307 9.21324C14.4926 9.1164 14.4733 9.01278 14.474 8.90828C14.474 8.46637 14.8176 8.10762 15.2412 8.10762Z"
    fill="#07C160" />
</svg>