<svg xmlns="http://www.w3.org/2000/svg" viewBox="0 0 16 16">
  <defs/>
  <path d="M11.132,7.555 Q11.799,7.842 12.355,8.398 Q13.503,9.546 13.503,11.167 Q13.503,15.083 9.587,15.083 L4.587,15.083 Q3.726,15.083 3.115,14.472 Q2.503,13.861 2.503,13 L2.503,8 L2.503,3 Q2.503,2.139 3.115,1.528 Q3.726,0.917 4.587,0.917 L8,0.917 Q11.917,0.917 11.917,4.833 Q11.917,6.587 11.132,7.555 Z M4.003,8.75 L4.003,13 Q4.003,13.239 4.175,13.411 Q4.347,13.583 4.587,13.583 L9.587,13.583 Q12.003,13.583 12.003,11.167 Q12.003,10.167 11.295,9.459 Q10.586,8.75 9.587,8.75 L4.003,8.75 Z M8,7.25 Q8.999,7.25 9.708,6.541 Q10.417,5.833 10.417,4.833 Q10.417,3.834 9.708,3.125 Q8.999,2.417 8,2.417 L4.587,2.417 Q4.347,2.417 4.175,2.589 Q4.003,2.761 4.003,3 L4.003,7.25 L8,7.25 Z"/>
</svg>
