<svg xmlns="http://www.w3.org/2000/svg" viewBox="0 0 16 14">
  <defs/>
  <path d="M1.467,0 L2.962,0 C3.376,0 3.712,0.336 3.712,0.75 C3.712,1.164 3.376,1.5 2.962,1.5 L2.922,1.5 L2.656,5.76 L9.327,5.76 L9.592,1.498 C9.201,1.473 8.891,1.148 8.891,0.75 C8.891,0.336 9.227,0 9.641,0 L11.135,0 C11.549,0 11.885,0.336 11.885,0.75 C11.885,1.164 11.549,1.5 11.135,1.5 L11.095,1.5 L10.471,11.522 C10.86,11.549 11.168,11.874 11.168,12.27 C11.168,12.684 10.832,13.02 10.418,13.02 L8.923,13.02 C8.509,13.02 8.173,12.684 8.173,12.27 C8.173,11.856 8.509,11.52 8.923,11.52 L8.968,11.52 L9.234,7.26 L2.563,7.26 L2.298,11.522 C2.687,11.549 2.994,11.874 2.994,12.27 C2.994,12.684 2.659,13.02 2.244,13.02 L0.75,13.02 C0.336,13.02 0,12.684 0,12.27 C0,11.856 0.336,11.52 0.75,11.52 L0.795,11.52 L1.419,1.498 C1.027,1.473 0.717,1.148 0.717,0.75 C0.717,0.336 1.053,0 1.467,0 Z M12.106,13.653 C12.692,13.64 13.05,13.609 13.18,13.561 C13.225,13.544 13.266,13.513 13.302,13.468 C13.354,13.399 13.409,13.215 13.468,12.916 C13.572,12.405 13.751,11.425 14.005,9.977 C14.2,8.873 14.303,8.269 14.313,8.165 L14.22,8.214 L13.058,8.736 C12.768,8.867 12.583,8.95 12.501,8.985 L12.408,8.912 L12.574,8.253 L13.429,8.019 C13.679,7.95 13.976,7.853 14.318,7.726 C14.663,7.599 14.967,7.472 15.231,7.345 C15.348,7.289 15.45,7.232 15.538,7.174 L15.719,7.311 C15.693,7.421 15.585,7.996 15.397,9.034 L14.913,11.69 C14.773,12.478 14.693,12.95 14.674,13.106 C14.667,13.168 14.664,13.227 14.664,13.282 C14.664,13.39 14.693,13.469 14.752,13.521 C14.814,13.574 14.951,13.606 15.162,13.619 C15.472,13.642 15.75,13.653 15.997,13.653 L15.939,14 C15.74,13.99 15.406,13.981 14.938,13.971 C14.469,13.958 14.158,13.951 14.005,13.951 C13.813,13.951 13.419,13.958 12.823,13.971 C12.488,13.981 12.239,13.99 12.076,14 Z"/>
</svg>
