<svg xmlns="http://www.w3.org/2000/svg" viewBox="0 0 17 14">
  <defs/>
  <path d="M1.467,0 L2.962,0 C3.376,0 3.712,0.336 3.712,0.75 C3.712,1.164 3.376,1.5 2.962,1.5 L2.922,1.5 L2.656,5.76 L9.327,5.76 L9.592,1.498 C9.201,1.473 8.891,1.148 8.891,0.75 C8.891,0.336 9.227,0 9.641,0 L11.135,0 C11.549,0 11.885,0.336 11.885,0.75 C11.885,1.164 11.549,1.5 11.135,1.5 L11.095,1.5 L10.471,11.522 C10.86,11.549 11.168,11.874 11.168,12.27 C11.168,12.684 10.832,13.02 10.418,13.02 L8.923,13.02 C8.509,13.02 8.173,12.684 8.173,12.27 C8.173,11.856 8.509,11.52 8.923,11.52 L8.968,11.52 L9.234,7.26 L2.563,7.26 L2.298,11.522 C2.687,11.549 2.994,11.874 2.994,12.27 C2.994,12.684 2.659,13.02 2.244,13.02 L0.75,13.02 C0.336,13.02 0,12.684 0,12.27 C0,11.856 0.336,11.52 0.75,11.52 L0.795,11.52 L1.419,1.498 C1.027,1.473 0.717,1.148 0.717,0.75 C0.717,0.336 1.053,0 1.467,0 Z M11.691,13.722 L12.423,13.028 C12.791,12.67 13.16,12.278 13.531,11.852 C13.906,11.422 14.197,11.03 14.406,10.675 C14.617,10.32 14.765,9.998 14.85,9.708 C14.905,9.513 14.933,9.327 14.933,9.151 C14.933,8.8 14.842,8.533 14.659,8.351 C14.48,8.168 14.231,8.077 13.912,8.077 C13.704,8.077 13.525,8.113 13.375,8.185 C13.229,8.253 13.097,8.362 12.98,8.512 C12.895,8.616 12.771,8.821 12.609,9.127 L12.311,9.029 L12.867,7.687 C13.085,7.501 13.282,7.376 13.458,7.311 C13.702,7.216 13.976,7.169 14.278,7.169 C14.64,7.169 14.97,7.237 15.27,7.374 C15.569,7.511 15.792,7.709 15.939,7.97 C16.088,8.23 16.163,8.533 16.163,8.878 C16.163,9.086 16.14,9.272 16.095,9.435 C16.049,9.594 15.97,9.771 15.856,9.967 C15.742,10.159 15.558,10.4 15.304,10.689 C15.128,10.894 14.892,11.142 14.596,11.432 C13.877,12.132 13.359,12.626 13.043,12.916 L13.043,12.975 L13.571,12.975 L14.913,12.96 C15.304,12.957 15.561,12.95 15.685,12.94 C15.809,12.927 15.952,12.906 16.114,12.877 L16.193,12.95 C16.15,13.045 16.105,13.167 16.056,13.316 C15.974,13.583 15.911,13.811 15.865,14 C14.895,13.964 14.202,13.946 13.785,13.946 C13.545,13.946 13.217,13.953 12.804,13.966 C12.277,13.985 11.892,13.995 11.652,13.995 Z"/>
</svg>
