<svg xmlns="http://www.w3.org/2000/svg" viewBox="0 0 17 15">
  <defs/>
  <path d="M1.467,0 L2.962,0 C3.376,0 3.712,0.336 3.712,0.75 C3.712,1.164 3.376,1.5 2.962,1.5 L2.922,1.5 L2.656,5.76 L9.327,5.76 L9.592,1.498 C9.201,1.473 8.891,1.148 8.891,0.75 C8.891,0.336 9.227,0 9.641,0 L11.135,0 C11.549,0 11.885,0.336 11.885,0.75 C11.885,1.164 11.549,1.5 11.135,1.5 L11.095,1.5 L10.471,11.522 C10.86,11.549 11.168,11.874 11.168,12.27 C11.168,12.684 10.832,13.02 10.418,13.02 L8.923,13.02 C8.509,13.02 8.173,12.684 8.173,12.27 C8.173,11.856 8.509,11.52 8.923,11.52 L8.968,11.52 L9.234,7.26 L2.563,7.26 L2.298,11.522 C2.687,11.549 2.994,11.874 2.994,12.27 C2.994,12.684 2.659,13.02 2.244,13.02 L0.75,13.02 C0.336,13.02 0,12.684 0,12.27 C0,11.856 0.336,11.52 0.75,11.52 L0.795,11.52 L1.419,1.498 C1.027,1.473 0.717,1.148 0.717,0.75 C0.717,0.336 1.053,0 1.467,0 Z M12.057,12.125 L12.384,12.154 C12.364,12.382 12.355,12.556 12.355,12.677 C12.355,13.028 12.447,13.297 12.633,13.482 C12.818,13.668 13.082,13.761 13.424,13.761 C13.701,13.761 13.946,13.683 14.161,13.526 C14.376,13.37 14.545,13.129 14.669,12.804 C14.793,12.475 14.855,12.136 14.855,11.788 C14.855,11.391 14.759,11.093 14.567,10.894 C14.375,10.693 14.104,10.592 13.756,10.592 C13.551,10.592 13.313,10.637 13.043,10.729 L12.994,10.675 L13.151,10.167 C13.255,10.19 13.365,10.201 13.483,10.201 C14.023,10.201 14.407,10.063 14.635,9.786 C14.863,9.509 14.977,9.199 14.977,8.854 C14.977,8.574 14.895,8.355 14.733,8.199 C14.57,8.04 14.34,7.96 14.044,7.96 C13.888,7.96 13.733,7.984 13.58,8.033 C13.431,8.079 13.287,8.167 13.151,8.297 C13.014,8.424 12.885,8.603 12.765,8.834 L12.486,8.717 L13.043,7.623 C13.144,7.532 13.24,7.462 13.331,7.413 C13.465,7.345 13.632,7.288 13.834,7.242 C14.036,7.193 14.249,7.169 14.474,7.169 C14.832,7.169 15.143,7.229 15.406,7.35 C15.67,7.467 15.861,7.626 15.978,7.828 C16.098,8.03 16.158,8.256 16.158,8.507 C16.158,8.757 16.098,8.992 15.978,9.21 C15.861,9.425 15.662,9.63 15.382,9.825 C15.102,10.021 14.847,10.156 14.615,10.231 L14.606,10.269 C15.169,10.335 15.564,10.505 15.792,10.782 C16.02,11.056 16.134,11.383 16.134,11.764 Q16.134,12.379 15.782,12.931 C15.548,13.299 15.218,13.593 14.791,13.814 C14.368,14.036 13.889,14.146 13.356,14.146 C13.056,14.146 12.789,14.116 12.555,14.054 C12.321,13.992 12.055,13.881 11.759,13.722 Z"/>
</svg>
