<svg xmlns="http://www.w3.org/2000/svg" viewBox="0 0 16 16">
  <defs/>
  <path d="M7.413,1.25 L9.443,1.25 Q9.492,1.247 9.543,1.25 L11.58,1.25 Q11.891,1.25 12.11,1.47 Q12.33,1.689 12.33,2 Q12.33,2.311 12.11,2.53 Q11.891,2.75 11.58,2.75 L10.086,2.75 L7.461,13.25 L8.58,13.25 Q8.891,13.25 9.11,13.47 Q9.33,13.689 9.33,14 Q9.33,14.311 9.11,14.53 Q8.891,14.75 8.58,14.75 L6.557,14.75 Q6.508,14.753 6.457,14.75 L4.413,14.75 Q4.103,14.75 3.883,14.53 Q3.663,14.311 3.663,14 Q3.663,13.689 3.883,13.47 Q4.103,13.25 4.413,13.25 L5.914,13.25 L8.539,2.75 L7.413,2.75 Q7.103,2.75 6.883,2.53 Q6.663,2.311 6.663,2 Q6.663,1.689 6.883,1.47 Q7.103,1.25 7.413,1.25 Z"/>
</svg>
