<svg xmlns="http://www.w3.org/2000/svg" viewBox="0 0 16 16">
  <defs/>
  <path d="M6,2.75 L14,2.75 Q14.311,2.75 14.53,2.97 Q14.75,3.189 14.75,3.5 Q14.75,3.811 14.53,4.03 Q14.311,4.25 14,4.25 L6,4.25 Q5.689,4.25 5.47,4.03 Q5.25,3.811 5.25,3.5 Q5.25,3.189 5.47,2.97 Q5.689,2.75 6,2.75 Z M6,7.25 L14,7.25 Q14.311,7.25 14.53,7.47 Q14.75,7.689 14.75,8 Q14.75,8.311 14.53,8.53 Q14.311,8.75 14,8.75 L6,8.75 Q5.689,8.75 5.47,8.53 Q5.25,8.311 5.25,8 Q5.25,7.689 5.47,7.47 Q5.689,7.25 6,7.25 Z M6,11.917 L14,11.917 Q14.311,11.917 14.53,12.136 Q14.75,12.356 14.75,12.667 Q14.75,12.977 14.53,13.197 Q14.311,13.417 14,13.417 L6,13.417 Q5.689,13.417 5.47,13.197 Q5.25,12.977 5.25,12.667 Q5.25,12.356 5.47,12.136 Q5.689,11.917 6,11.917 Z"/>
  <path d="M2.392,2.716 L2.92,2.716 L2.92,7 L2.218,7 L2.218,3.562 C1.96,3.796 1.636,3.97 1.24,4.084 L1.24,3.388 C1.432,3.34 1.636,3.256 1.852,3.136 C2.068,3.004 2.248,2.866 2.392,2.716 Z"/>
  <path d="M2.392,2.716 L2.392,2.616 L2.349,2.616 L2.32,2.647 L2.392,2.716 Z M2.92,2.716 L3.02,2.716 L3.02,2.616 L2.92,2.616 L2.92,2.716 Z M2.92,7 L2.92,7.1 L3.02,7.1 L3.02,7 L2.92,7 Z M2.218,7 L2.118,7 L2.118,7.1 L2.218,7.1 L2.218,7 Z M2.218,3.562 L2.318,3.562 L2.318,3.336 L2.151,3.488 L2.218,3.562 Z M1.24,4.084 L1.14,4.084 L1.14,4.217 L1.268,4.18 L1.24,4.084 Z M1.24,3.388 L1.216,3.291 L1.14,3.31 L1.14,3.388 L1.24,3.388 Z M1.852,3.136 L1.901,3.223 L1.904,3.221 L1.852,3.136 Z M2.392,2.816 L2.92,2.816 L2.92,2.616 L2.392,2.616 L2.392,2.816 Z M2.82,2.716 L2.82,7 L3.02,7 L3.02,2.716 L2.82,2.716 Z M2.92,6.9 L2.218,6.9 L2.218,7.1 L2.92,7.1 L2.92,6.9 Z M2.318,7 L2.318,3.562 L2.118,3.562 L2.118,7 L2.318,7 Z M2.151,3.488 C1.906,3.71 1.596,3.877 1.212,3.988 L1.268,4.18 C1.676,4.063 2.014,3.882 2.285,3.636 L2.151,3.488 Z M1.34,4.084 L1.34,3.388 L1.14,3.388 L1.14,4.084 L1.34,4.084 Z M1.264,3.485 C1.467,3.434 1.679,3.347 1.901,3.223 L1.803,3.049 C1.593,3.165 1.397,3.246 1.216,3.291 L1.264,3.485 Z M1.904,3.221 C2.125,3.086 2.313,2.943 2.464,2.785 L2.32,2.647 C2.183,2.789 2.011,2.922 1.8,3.051 L1.904,3.221 Z"/>
  <path d="M1.866,8.632 C2.28,8.632 2.622,8.752 2.892,8.992 C3.156,9.232 3.288,9.538 3.288,9.922 C3.288,10.294 3.144,10.63 2.868,10.936 C2.7,11.116 2.4,11.344 1.98,11.626 C1.542,11.914 1.278,12.166 1.182,12.382 L3.294,12.382 L3.294,13 L0.306,13 C0.306,12.562 0.444,12.184 0.732,11.86 C0.888,11.68 1.218,11.416 1.716,11.074 C1.992,10.882 2.184,10.72 2.304,10.594 C2.49,10.384 2.586,10.156 2.586,9.916 C2.586,9.682 2.52,9.508 2.4,9.394 C2.274,9.28 2.088,9.226 1.842,9.226 C1.578,9.226 1.38,9.316 1.248,9.496 C1.116,9.664 1.044,9.922 1.032,10.258 L0.33,10.258 C0.336,9.778 0.474,9.394 0.75,9.1 C1.032,8.788 1.404,8.632 1.866,8.632 Z"/>
  <path d="M2.892,8.992 L2.959,8.918 L2.958,8.917 L2.892,8.992 Z M2.868,10.936 L2.941,11.004 L2.942,11.003 L2.868,10.936 Z M1.98,11.626 L2.035,11.71 L2.036,11.709 L1.98,11.626 Z M1.182,12.382 L1.091,12.341 L1.028,12.482 L1.182,12.482 L1.182,12.382 Z M3.294,12.382 L3.394,12.382 L3.394,12.282 L3.294,12.282 L3.294,12.382 Z M3.294,13 L3.294,13.1 L3.394,13.1 L3.394,13 L3.294,13 Z M0.306,13 L0.206,13 L0.206,13.1 L0.306,13.1 L0.306,13 Z M0.732,11.86 L0.807,11.926 L0.808,11.925 L0.732,11.86 Z M2.304,10.594 L2.376,10.663 L2.379,10.66 L2.304,10.594 Z M2.4,9.394 L2.469,9.321 L2.467,9.32 L2.4,9.394 Z M1.248,9.496 L1.327,9.558 L1.329,9.555 L1.248,9.496 Z M1.032,10.258 L1.032,10.358 L1.128,10.358 L1.132,10.262 L1.032,10.258 Z M0.33,10.258 L0.23,10.257 L0.229,10.358 L0.33,10.358 L0.33,10.258 Z M0.75,9.1 L0.823,9.168 L0.824,9.167 L0.75,9.1 Z M1.866,8.732 C2.259,8.732 2.577,8.845 2.826,9.067 L2.958,8.917 C2.667,8.659 2.301,8.532 1.866,8.532 L1.866,8.732 Z M2.825,9.066 C3.067,9.286 3.188,9.564 3.188,9.922 L3.388,9.922 C3.388,9.512 3.245,9.178 2.959,8.918 L2.825,9.066 Z M3.188,9.922 C3.188,10.265 3.056,10.578 2.794,10.869 L2.942,11.003 C3.232,10.682 3.388,10.323 3.388,9.922 L3.188,9.922 Z M2.795,10.868 C2.636,11.039 2.344,11.261 1.924,11.543 L2.036,11.709 C2.456,11.427 2.764,11.194 2.941,11.004 L2.795,10.868 Z M1.925,11.542 C1.486,11.831 1.199,12.097 1.091,12.341 L1.273,12.423 C1.357,12.235 1.598,11.997 2.035,11.71 L1.925,11.542 Z M1.182,12.482 L3.294,12.482 L3.294,12.282 L1.182,12.282 L1.182,12.482 Z M3.194,12.382 L3.194,13 L3.394,13 L3.394,12.382 L3.194,12.382 Z M3.294,12.9 L0.306,12.9 L0.306,13.1 L3.294,13.1 L3.294,12.9 Z M0.406,13 C0.406,12.585 0.536,12.231 0.807,11.926 L0.657,11.794 C0.352,12.137 0.206,12.539 0.206,13 L0.406,13 Z M0.808,11.925 C0.954,11.756 1.274,11.499 1.773,11.156 L1.659,10.992 C1.162,11.333 0.822,11.604 0.656,11.794 L0.808,11.925 Z M1.773,11.156 C2.052,10.962 2.25,10.796 2.376,10.663 L2.232,10.525 C2.118,10.644 1.932,10.802 1.659,10.992 L1.773,11.156 Z M2.379,10.66 C2.578,10.436 2.686,10.185 2.686,9.916 L2.486,9.916 C2.486,10.127 2.402,10.332 2.229,10.528 L2.379,10.66 Z M2.686,9.916 C2.686,9.664 2.614,9.46 2.469,9.322 L2.331,9.466 C2.426,9.556 2.486,9.7 2.486,9.916 L2.686,9.916 Z M2.467,9.32 C2.315,9.183 2.101,9.126 1.842,9.126 L1.842,9.326 C2.075,9.326 2.233,9.377 2.333,9.468 L2.467,9.32 Z M1.842,9.126 C1.553,9.126 1.322,9.226 1.167,9.437 L1.329,9.555 C1.438,9.406 1.603,9.326 1.842,9.326 L1.842,9.126 Z M1.169,9.434 C1.018,9.626 0.944,9.909 0.932,10.254 L1.132,10.262 C1.144,9.935 1.214,9.702 1.327,9.558 L1.169,9.434 Z M1.032,10.158 L0.33,10.158 L0.33,10.358 L1.032,10.358 L1.032,10.158 Z M0.43,10.259 C0.436,9.799 0.567,9.441 0.823,9.168 L0.677,9.032 C0.381,9.347 0.236,9.757 0.23,10.257 L0.43,10.259 Z M0.824,9.167 C1.085,8.878 1.429,8.732 1.866,8.732 L1.866,8.532 C1.379,8.532 0.979,8.698 0.676,9.033 L0.824,9.167 Z"/>
</svg>
