<svg xmlns="http://www.w3.org/2000/svg" viewBox="0 0 16 16">
  <defs/>
  <path d="M2,7.689 L5.478,7.689 Q7.775,7.689 7.775,9.986 L7.775,11.917 Q7.775,14.215 5.478,14.215 L3.547,14.215 Q1.25,14.215 1.25,11.917 L1.25,8.439 Q1.25,8.129 1.47,7.909 Q1.689,7.689 2,7.689 Z M2.75,9.189 L2.75,11.917 Q2.75,12.715 3.547,12.715 L5.478,12.715 Q6.275,12.715 6.275,11.917 L6.275,9.986 Q6.275,9.189 5.478,9.189 L2.75,9.189 Z"/>
  <path d="M8.975,7.689 L12.453,7.689 Q14.75,7.689 14.75,9.987 L14.75,11.917 Q14.75,14.215 12.453,14.215 L10.522,14.215 Q8.225,14.215 8.225,11.917 L8.225,8.439 Q8.225,8.129 8.444,7.909 Q8.664,7.689 8.975,7.689 Z M9.725,9.189 L9.725,11.917 Q9.725,12.715 10.522,12.715 L12.453,12.715 Q13.25,12.715 13.25,11.917 L13.25,9.987 Q13.25,9.189 12.453,9.189 L9.725,9.189 Z M1.25,8.439 Q1.25,5.673 1.94,4.446 Q2.504,3.442 4.334,2.355 Q4.601,2.197 4.902,2.273 Q5.203,2.35 5.361,2.617 Q5.52,2.884 5.443,3.185 Q5.367,3.486 5.1,3.645 Q3.615,4.527 3.248,5.181 Q2.75,6.066 2.75,8.439 Q2.75,8.75 2.53,8.97 Q2.311,9.189 2,9.189 Q1.689,9.189 1.47,8.97 Q1.25,8.75 1.25,8.439 Z"/>
  <path d="M8.225,8.439 Q8.225,5.673 8.915,4.446 Q9.479,3.442 11.308,2.355 Q11.575,2.197 11.876,2.273 Q12.177,2.35 12.336,2.617 Q12.495,2.884 12.418,3.185 Q12.341,3.486 12.074,3.645 Q10.59,4.527 10.222,5.181 Q9.725,6.066 9.725,8.439 Q9.725,8.75 9.505,8.97 Q9.285,9.189 8.975,9.189 Q8.664,9.189 8.444,8.97 Q8.225,8.75 8.225,8.439 Z"/>
</svg>
