<svg xmlns="http://www.w3.org/2000/svg" viewBox="0 0 16 16">
  <defs/>
  <path d="M2.765,7.292 C2.85,7.261 3.735,7.256 8.04,7.261 L13.213,7.267 L13.323,7.325 C13.5,7.42 13.592,7.512 13.671,7.673 C13.827,7.992 13.737,8.378 13.457,8.589 C13.386,8.643 13.283,8.7 13.228,8.717 C13.082,8.76 2.899,8.759 2.771,8.716 C2.412,8.594 2.191,8.217 2.266,7.857 C2.321,7.59 2.501,7.386 2.765,7.292 Z M7.227,3.3 C7.323,3.266 7.476,3.257 7.989,3.255 C8.753,3.253 8.817,3.267 9.031,3.481 C9.24,3.69 9.3,3.94 9.211,4.239 C9.18,4.344 9.133,4.417 9.031,4.519 C8.818,4.732 8.752,4.747 8,4.747 C7.248,4.747 7.182,4.732 6.969,4.519 C6.76,4.31 6.7,4.06 6.789,3.761 C6.842,3.582 7.051,3.362 7.227,3.3 Z M7.227,11.3 C7.323,11.266 7.476,11.257 7.989,11.255 C8.753,11.253 8.817,11.267 9.031,11.481 C9.24,11.69 9.3,11.94 9.211,12.239 C9.18,12.344 9.133,12.417 9.031,12.519 C8.818,12.732 8.752,12.747 8,12.747 C7.248,12.747 7.182,12.732 6.969,12.519 C6.76,12.31 6.7,12.06 6.789,11.761 C6.842,11.582 7.051,11.362 7.227,11.3 Z M2.765,3.291 C2.844,3.262 3.021,3.255 3.547,3.26 C4.301,3.267 4.296,3.266 4.51,3.46 C4.684,3.616 4.733,3.736 4.733,4 C4.733,4.256 4.699,4.345 4.537,4.516 C4.338,4.726 4.31,4.732 3.56,4.742 C3.101,4.748 2.86,4.741 2.787,4.719 C2.423,4.611 2.19,4.225 2.266,3.857 C2.321,3.59 2.5,3.388 2.765,3.291 Z M2.765,11.291 C2.844,11.262 3.021,11.255 3.547,11.26 C4.301,11.267 4.296,11.266 4.51,11.46 C4.684,11.616 4.733,11.736 4.733,12 C4.733,12.256 4.699,12.345 4.537,12.516 C4.338,12.726 4.31,12.732 3.56,12.742 C3.101,12.748 2.86,12.741 2.787,12.719 C2.423,12.611 2.19,12.225 2.266,11.857 C2.321,11.59 2.5,11.388 2.765,11.291 Z M11.753,3.291 C11.83,3.262 12.01,3.255 12.533,3.26 C13.177,3.266 13.219,3.27 13.323,3.325 C13.5,3.42 13.592,3.512 13.671,3.673 C13.827,3.992 13.737,4.378 13.455,4.59 C13.256,4.741 13.187,4.751 12.439,4.742 C11.816,4.734 11.767,4.73 11.667,4.676 C11.54,4.607 11.385,4.45 11.317,4.32 C11.242,4.18 11.247,3.811 11.325,3.667 C11.411,3.507 11.588,3.351 11.753,3.291 Z M11.753,11.291 C11.83,11.262 12.01,11.255 12.533,11.26 C13.177,11.266 13.219,11.27 13.323,11.325 C13.5,11.42 13.592,11.512 13.671,11.673 C13.827,11.992 13.737,12.378 13.455,12.59 C13.256,12.741 13.187,12.751 12.439,12.742 C11.816,12.734 11.767,12.73 11.667,12.676 C11.54,12.607 11.385,12.45 11.317,12.32 C11.242,12.18 11.247,11.811 11.325,11.667 C11.411,11.507 11.588,11.351 11.753,11.291 Z"/>
</svg>
