<svg xmlns="http://www.w3.org/2000/svg" viewBox="0 0 16 16">
  <defs/>
  <path d="M2,7.25 L13,7.25 Q13.311,7.25 13.53,7.47 Q13.75,7.689 13.75,8 Q13.75,8.311 13.53,8.53 Q13.311,8.75 13,8.75 L2,8.75 Q1.689,8.75 1.47,8.53 Q1.25,8.311 1.25,8 Q1.25,7.689 1.47,7.47 Q1.689,7.25 2,7.25 Z"/>
  <path d="M2,3.25 L4,3.25 Q4.311,3.25 4.53,3.47 Q4.75,3.689 4.75,4 Q4.75,4.311 4.53,4.53 Q4.311,4.75 4,4.75 L2,4.75 Q1.689,4.75 1.47,4.53 Q1.25,4.311 1.25,4 Q1.25,3.689 1.47,3.47 Q1.689,3.25 2,3.25 Z"/>
  <path d="M6.5,3.25 L8.5,3.25 Q8.811,3.25 9.03,3.47 Q9.25,3.689 9.25,4 Q9.25,4.311 9.03,4.53 Q8.811,4.75 8.5,4.75 L6.5,4.75 Q6.189,4.75 5.97,4.53 Q5.75,4.311 5.75,4 Q5.75,3.689 5.97,3.47 Q6.189,3.25 6.5,3.25 Z"/>
  <path d="M11,3.25 L13,3.25 Q13.311,3.25 13.53,3.47 Q13.75,3.689 13.75,4 Q13.75,4.311 13.53,4.53 Q13.311,4.75 13,4.75 L11,4.75 Q10.689,4.75 10.47,4.53 Q10.25,4.311 10.25,4 Q10.25,3.689 10.47,3.47 Q10.689,3.25 11,3.25 Z"/>
  <path d="M2,11.25 L4,11.25 Q4.311,11.25 4.53,11.47 Q4.75,11.689 4.75,12 Q4.75,12.311 4.53,12.53 Q4.311,12.75 4,12.75 L2,12.75 Q1.689,12.75 1.47,12.53 Q1.25,12.311 1.25,12 Q1.25,11.689 1.47,11.47 Q1.689,11.25 2,11.25 Z"/>
  <path d="M6.5,11.25 L8.5,11.25 Q8.811,11.25 9.03,11.47 Q9.25,11.689 9.25,12 Q9.25,12.311 9.03,12.53 Q8.811,12.75 8.5,12.75 L6.5,12.75 Q6.189,12.75 5.97,12.53 Q5.75,12.311 5.75,12 Q5.75,11.689 5.97,11.47 Q6.189,11.25 6.5,11.25 Z"/>
  <path d="M11,11.25 L13,11.25 Q13.311,11.25 13.53,11.47 Q13.75,11.689 13.75,12 Q13.75,12.311 13.53,12.53 Q13.311,12.75 13,12.75 L11,12.75 Q10.689,12.75 10.47,12.53 Q10.25,12.311 10.25,12 Q10.25,11.689 10.47,11.47 Q10.689,11.25 11,11.25 Z"/>
</svg>
