<svg xmlns="http://www.w3.org/2000/svg" viewBox="0 0 16 16">
  <defs/>
  <path d="M4.083,2 L4.083,6.667 Q4.083,8.291 5.229,9.437 Q6.376,10.583 8,10.583 Q9.624,10.583 10.77,9.437 Q11.917,8.291 11.917,6.667 L11.917,2 Q11.917,1.689 12.136,1.47 Q12.356,1.25 12.667,1.25 Q12.977,1.25 13.197,1.47 Q13.417,1.689 13.417,2 L13.417,6.667 Q13.417,8.912 11.831,10.498 Q10.246,12.083 8,12.083 Q5.754,12.083 4.169,10.498 Q2.583,8.912 2.583,6.667 L2.583,2 Q2.583,1.689 2.803,1.47 Q3.023,1.25 3.333,1.25 Q3.644,1.25 3.864,1.47 Q4.083,1.689 4.083,2 Z M3.333,13.25 L12.667,13.25 Q12.977,13.25 13.197,13.47 Q13.417,13.689 13.417,14 Q13.417,14.311 13.197,14.53 Q12.977,14.75 12.667,14.75 L3.333,14.75 Q3.023,14.75 2.803,14.53 Q2.583,14.311 2.583,14 Q2.583,13.689 2.803,13.47 Q3.023,13.25 3.333,13.25 Z"/>
</svg>
