<svg xmlns="http://www.w3.org/2000/svg" viewBox="0 0 16 16">
  <defs/>
  <path d="M6,7.25 L14,7.25 Q14.311,7.25 14.53,7.47 Q14.75,7.689 14.75,8 Q14.75,8.311 14.53,8.53 Q14.311,8.75 14,8.75 L6,8.75 Q5.689,8.75 5.47,8.53 Q5.25,8.311 5.25,8 Q5.25,7.689 5.47,7.47 Q5.689,7.25 6,7.25 Z M6,2.75 L14,2.75 Q14.311,2.75 14.53,2.97 Q14.75,3.189 14.75,3.5 Q14.75,3.811 14.53,4.03 Q14.311,4.25 14,4.25 L6,4.25 Q5.689,4.25 5.47,4.03 Q5.25,3.811 5.25,3.5 Q5.25,3.189 5.47,2.97 Q5.689,2.75 6,2.75 Z M6,11.917 L14,11.917 Q14.311,11.917 14.53,12.136 Q14.75,12.356 14.75,12.667 Q14.75,12.977 14.53,13.197 Q14.311,13.417 14,13.417 L6,13.417 Q5.689,13.417 5.47,13.197 Q5.25,12.977 5.25,12.667 Q5.25,12.356 5.47,12.136 Q5.689,11.917 6,11.917 Z M1.906,2.75 L3,2.75 Q3.311,2.75 3.53,2.97 Q3.75,3.189 3.75,3.5 Q3.75,3.811 3.53,4.03 Q3.311,4.25 3,4.25 L1.906,4.25 Q1.595,4.25 1.376,4.03 Q1.156,3.811 1.156,3.5 Q1.156,3.189 1.376,2.97 Q1.595,2.75 1.906,2.75 Z M2,7.25 L3.094,7.25 Q3.405,7.25 3.624,7.47 Q3.844,7.689 3.844,8 Q3.844,8.311 3.624,8.53 Q3.405,8.75 3.094,8.75 L2,8.75 Q1.689,8.75 1.47,8.53 Q1.25,8.311 1.25,8 Q1.25,7.689 1.47,7.47 Q1.689,7.25 2,7.25 Z M2,11.917 L3.094,11.917 Q3.405,11.917 3.624,12.136 Q3.844,12.356 3.844,12.667 Q3.844,12.977 3.624,13.197 Q3.405,13.417 3.094,13.417 L2,13.417 Q1.689,13.417 1.47,13.197 Q1.25,12.977 1.25,12.667 Q1.25,12.356 1.47,12.136 Q1.689,11.917 2,11.917 Z"/>
</svg>
