<svg xmlns="http://www.w3.org/2000/svg" viewBox="0 0 24 24">
  <defs/>
  <path opacity="0.4" d="M15,16 C16.857,16 18.637,15.262 19.95,13.95 C21.262,12.637 22,10.857 22,9 C22,7.143 21.262,5.363 19.95,4.05 C18.637,2.737 16.857,2 15,2 C13.143,2 11.363,2.737 10.05,4.05 C8.738,5.363 8,7.143 8,9 C8,10.857 8.738,12.637 10.05,13.95 C11.363,15.262 13.143,16 15,16 Z"/>
  <path d="M9,22 C10.857,22 12.637,21.262 13.95,19.95 C15.262,18.637 16,16.857 16,15 C16,13.143 15.262,11.363 13.95,10.05 C12.637,8.738 10.857,8 9,8 C7.143,8 5.363,8.738 4.05,10.05 C2.737,11.363 2,13.143 2,15 C2,16.857 2.737,18.637 4.05,19.95 C5.363,21.262 7.143,22 9,22 Z"/>
</svg>
