<svg xmlns="http://www.w3.org/2000/svg" viewBox="0 0 24 24">
  <defs/>
  <path d="M18.5,12.648 L18.5,16.348 C18.5,19.468 15.59,21.998 12,21.998 C8.41,21.998 5.5,19.468 5.5,16.348 L5.5,12.648 C5.5,15.768 8.41,17.998 12,17.998 C15.59,17.998 18.5,15.768 18.5,12.648 Z"/>
  <path opacity="0.4" d="M18.5,7.648 L18.5,12.648 C18.5,15.768 15.59,17.998 12,17.998 C8.41,17.998 5.5,15.768 5.5,12.648 L5.5,7.648 C5.5,8.558 5.75,9.398 6.19,10.118 C7.26,11.878 9.46,12.998 12,12.998 C14.54,12.998 16.74,11.878 17.81,10.118 C18.25,9.398 18.5,8.558 18.5,7.648 Z"/>
  <path d="M18.5,7.65 C18.5,8.56 18.25,9.4 17.81,10.12 C16.74,11.88 14.54,13 12,13 C9.46,13 7.26,11.88 6.19,10.12 C5.75,9.4 5.5,8.56 5.5,7.65 C5.5,4.53 8.41,2 12,2 C13.8,2 15.42,2.63 16.6,3.65 C17.77,4.68 18.5,6.09 18.5,7.65 Z"/>
</svg>
