<svg xmlns="http://www.w3.org/2000/svg" viewBox="0 0 24 24">
  <defs/>
  <path opacity="0.4" d="M22,7.81 L22,13.9 L20.37,12.5 C19.59,11.83 18.33,11.83 17.55,12.5 L13.39,16.07 C12.61,16.74 11.35,16.74 10.57,16.07 L10.23,15.79 C9.52,15.17 8.39,15.11 7.59,15.65 L2.67,18.95 L2.56,19.03 C2.19,18.23 2,17.28 2,16.19 L2,7.81 C2,4.17 4.17,2 7.81,2 L16.19,2 C19.83,2 22,4.17 22,7.81 Z"/>
  <path d="M9.001,10.381 C9.632,10.381 10.238,10.13 10.684,9.684 C11.13,9.238 11.381,8.632 11.381,8.001 C11.381,7.37 11.13,6.764 10.684,6.318 C10.238,5.872 9.632,5.621 9.001,5.621 C8.37,5.621 7.764,5.872 7.318,6.318 C6.872,6.764 6.621,7.37 6.621,8.001 C6.621,8.632 6.872,9.238 7.318,9.684 C7.764,10.13 8.37,10.381 9.001,10.381 Z M21.999,13.899 L21.999,16.189 C21.999,19.829 19.829,21.999 16.189,21.999 L7.809,21.999 C5.259,21.999 3.419,20.929 2.559,19.029 L2.669,18.949 L7.589,15.649 C8.389,15.109 9.519,15.169 10.229,15.789 L10.569,16.069 C11.349,16.739 12.609,16.739 13.389,16.069 L17.549,12.499 C18.329,11.829 19.589,11.829 20.369,12.499 L21.999,13.899 Z"/>
</svg>
