<svg xmlns="http://www.w3.org/2000/svg" viewBox="0 0 24 24">
  <defs/>
  <path d="M19.21,6.361 C18.17,4.261 16.16,2.711 13.83,2.201 C11.39,1.661 8.89,2.241 6.98,3.781 C6.037,4.531 5.277,5.485 4.755,6.57 C4.234,7.656 3.966,8.846 3.97,10.051 C3.97,12.641 5.52,15.351 7.86,16.921 L7.86,17.751 C7.85,18.031 7.84,18.461 8.18,18.811 C8.53,19.171 9.05,19.211 9.46,19.211 L14.59,19.211 C15.13,19.211 15.54,19.061 15.82,18.781 C16.2,18.391 16.19,17.891 16.18,17.621 L16.18,16.921 C19.28,14.831 21.23,10.421 19.21,6.361 Z"/>
  <path opacity="0.4" d="M15.26,21.998 C15.2,21.998 15.13,21.988 15.07,21.968 C13.06,21.398 10.95,21.398 8.94,21.968 C8.57,22.068 8.18,21.858 8.08,21.488 C8.054,21.4 8.046,21.308 8.056,21.217 C8.067,21.125 8.095,21.037 8.139,20.957 C8.184,20.877 8.244,20.807 8.317,20.75 C8.389,20.694 8.472,20.652 8.56,20.628 C10.82,19.988 13.2,19.988 15.46,20.628 C15.83,20.738 16.05,21.118 15.94,21.488 C15.84,21.798 15.56,21.998 15.26,21.998 Z"/>
</svg>
