<svg xmlns="http://www.w3.org/2000/svg" viewBox="0 0 24 24">
  <defs/>
  <path d="M11.12,2.039 C12.028,1.948 13.446,2.062 14.43,2.303 C18.842,3.387 22,7.432 22,12 C22,14.236 21.256,16.378 19.845,18.2 C19.507,18.637 18.637,19.507 18.2,19.845 C15.313,22.08 11.634,22.61 8.272,21.278 C7.038,20.789 5.93,20.051 4.938,19.061 C4.164,18.288 3.62,17.552 3.137,16.623 C1.158,12.819 1.806,8.228 4.761,5.107 C6.414,3.362 8.641,2.287 11.12,2.039 Z M16.62,8.509 C16.401,8.391 16.064,8.408 15.837,8.551 C15.761,8.598 14.548,9.789 13.14,11.198 L10.581,13.759 L9.4,12.584 C8.751,11.938 8.16,11.379 8.086,11.342 C7.921,11.258 7.566,11.254 7.414,11.333 C7.181,11.454 7,11.747 7,12 C7,12.279 7.102,12.399 8.651,13.951 C10.069,15.371 10.195,15.487 10.382,15.542 C10.559,15.594 10.606,15.594 10.782,15.541 C10.967,15.486 11.176,15.285 13.929,12.531 C15.993,10.464 16.896,9.535 16.939,9.431 C16.972,9.349 17,9.227 17,9.16 C17,8.924 16.821,8.618 16.62,8.509 Z"/>
</svg>
