<svg xmlns="http://www.w3.org/2000/svg" viewBox="0 0 24 24">
  <defs/>
  <path d="M11.42,2.056 C12.016,1.94 12.83,2.053 13.373,2.326 C13.702,2.492 19.531,5.858 19.757,6.012 C20.187,6.306 20.616,6.847 20.832,7.367 C20.871,7.462 20.904,7.54 20.932,7.62 C21.083,8.053 21.08,8.54 21.08,12 C21.08,15.473 21.083,15.96 20.928,16.39 C20.9,16.469 20.866,16.546 20.826,16.64 C20.596,17.176 20.18,17.697 19.74,18 C19.613,18.087 15.13,20.687 13.5,21.619 C13.043,21.88 12.373,22.024 11.784,21.989 C11.061,21.946 10.967,21.9 7.58,19.944 C5.908,18.978 4.45,18.13 4.34,18.06 C3.678,17.634 3.186,16.933 3,16.151 C2.92,15.812 2.918,15.72 2.929,11.892 L2.94,7.98 L3.072,7.6 C3.314,6.908 3.78,6.305 4.36,5.934 C5.03,5.506 10.637,2.302 10.873,2.213 C11.02,2.157 11.266,2.086 11.42,2.056 Z M12.302,7.075 C12.213,7.035 12.077,7.002 12,7.002 C11.691,7.002 11.367,7.249 11.279,7.552 C11.249,7.653 11.24,8.567 11.248,10.463 L11.26,13.226 L11.367,13.388 C11.682,13.864 12.318,13.864 12.633,13.388 L12.74,13.226 L12.752,10.463 C12.76,8.567 12.751,7.653 12.721,7.552 C12.663,7.352 12.498,7.164 12.302,7.075 Z M12.416,15.348 C12.263,15.269 11.942,15.234 11.773,15.276 C11.582,15.325 11.296,15.506 11.202,15.638 C11.156,15.702 11.092,15.83 11.059,15.922 C10.715,16.897 11.952,17.688 12.683,16.96 C13.016,16.628 13.085,16.222 12.877,15.807 C12.757,15.566 12.665,15.474 12.416,15.348 Z"/>
</svg>
