<svg xmlns="http://www.w3.org/2000/svg" viewBox="0 0 16 16">
  <defs/>
  <path d="M3.333,0.583 L12.667,0.583 Q15.417,0.583 15.417,3.333 L15.417,4.667 Q15.417,6.808 13.75,7.282 L13.75,12.666 Q13.75,14.019 13.189,14.66 Q12.528,15.416 11,15.416 L5,15.416 Q2.25,15.416 2.25,12.666 L2.25,7.264 Q1.691,7.085 1.303,6.697 Q0.583,5.977 0.583,4.667 L0.583,3.333 Q0.583,2.023 1.303,1.303 Q2.023,0.583 3.333,0.583 Z M12.25,7.417 L3.75,7.417 L3.75,12.666 Q3.75,13.916 5,13.916 L11,13.916 Q11.847,13.916 12.06,13.672 Q12.25,13.456 12.25,12.666 Z M3.333,2.083 Q2.644,2.083 2.364,2.364 Q2.083,2.644 2.083,3.333 L2.083,4.667 Q2.083,5.917 3.333,5.917 L12.667,5.917 Q13.356,5.917 13.636,5.636 Q13.917,5.356 13.917,4.667 L13.917,3.333 Q13.917,2.083 12.667,2.083 Z"/>
  <path opacity="0.34" d="M6.787,8.583 L9.213,8.583 Q9.524,8.583 9.744,8.803 Q9.963,9.023 9.963,9.333 Q9.963,9.644 9.744,9.864 Q9.524,10.083 9.213,10.083 L6.787,10.083 Q6.476,10.083 6.256,9.864 Q6.037,9.644 6.037,9.333 Q6.037,9.023 6.256,8.803 Q6.476,8.583 6.787,8.583 Z"/>
</svg>
