<svg xmlns="http://www.w3.org/2000/svg" viewBox="0 0 16 16">
  <defs/>
  <path d="M15.417,3.433 L15.417,5.233 Q15.417,6.669 14.709,7.376 Q14.002,8.083 12.567,8.083 L10.767,8.083 Q7.917,8.083 7.917,5.233 L7.917,3.433 Q7.917,1.998 8.624,1.29 Q9.331,0.583 10.767,0.583 L12.567,0.583 Q15.417,0.583 15.417,3.433 Z M8.083,10.767 L8.083,12.567 Q8.083,15.417 5.233,15.417 L3.433,15.417 Q0.583,15.417 0.583,12.567 L0.583,10.767 Q0.583,9.331 1.29,8.624 Q1.998,7.917 3.433,7.917 L5.233,7.917 Q8.083,7.917 8.083,10.767 Z M13.917,3.433 Q13.917,2.083 12.567,2.083 L10.767,2.083 Q9.417,2.083 9.417,3.433 L9.417,5.233 Q9.417,6.583 10.767,6.583 L12.567,6.583 Q13.917,6.583 13.917,5.233 Z M6.583,10.767 Q6.583,9.417 5.233,9.417 L3.433,9.417 Q2.083,9.417 2.083,10.767 L2.083,12.567 Q2.083,13.917 3.433,13.917 L5.233,13.917 Q6.583,13.917 6.583,12.567 Z"/>
  <path opacity="0.4" d="M12.337,7.334 L12.337,9.081 Q12.337,10.736 11.536,11.537 Q10.736,12.337 9.08,12.337 L7.333,12.337 Q7.023,12.337 6.803,12.118 Q6.583,11.898 6.583,11.587 L6.583,10.767 Q6.583,9.417 5.233,9.417 L4.413,9.417 Q4.103,9.417 3.883,9.198 Q3.663,8.978 3.663,8.667 L3.663,6.921 Q3.663,5.265 4.464,4.465 Q5.264,3.664 6.92,3.664 L8.667,3.664 Q8.977,3.664 9.197,3.884 Q9.417,4.103 9.417,4.414 L9.417,5.234 Q9.417,6.584 10.767,6.584 L11.587,6.584 Q11.897,6.584 12.117,6.804 Q12.337,7.023 12.337,7.334 Z M10.837,8.084 L10.767,8.084 Q9.331,8.084 8.624,7.377 Q7.917,6.67 7.917,5.234 L7.917,5.164 L6.92,5.164 Q5.163,5.164 5.163,6.921 L5.163,7.917 L5.233,7.917 Q8.083,7.917 8.083,10.767 L8.083,10.837 L9.08,10.837 Q10.114,10.837 10.476,10.476 Q10.837,10.115 10.837,9.081 Z"/>
</svg>
