<svg xmlns="http://www.w3.org/2000/svg" viewBox="0 0 16 16">
  <defs/>
  <path d="M3.265,4.452 Q2.083,6.018 2.083,8 Q2.083,9.982 3.265,11.548 Q3.452,11.796 3.409,12.104 Q3.366,12.412 3.118,12.599 Q2.87,12.786 2.563,12.743 Q2.255,12.7 2.068,12.452 Q0.583,10.484 0.583,8 Q0.583,5.516 2.068,3.548 Q2.255,3.3 2.563,3.257 Q2.87,3.214 3.118,3.401 Q3.366,3.588 3.409,3.896 Q3.452,4.204 3.265,4.452 Z M12.735,11.548 Q13.917,9.982 13.917,8 Q13.917,6.018 12.735,4.452 Q12.547,4.204 12.591,3.896 Q12.634,3.588 12.882,3.401 Q13.13,3.214 13.437,3.257 Q13.745,3.3 13.932,3.548 Q15.417,5.516 15.417,8 Q15.417,10.484 13.932,12.452 Q13.745,12.7 13.437,12.743 Q13.13,12.786 12.882,12.599 Q12.634,12.412 12.591,12.104 Q12.547,11.796 12.735,11.548 Z"/>
  <path opacity="0.4" d="M7.639,5.947 C7.827,5.913 8.356,5.936 8.547,5.987 C9.231,6.17 9.829,6.771 10.017,7.467 C10.082,7.708 10.082,8.292 10.017,8.533 C9.864,9.098 9.447,9.605 8.92,9.865 C8.593,10.026 8.418,10.064 8,10.064 C7.582,10.064 7.407,10.026 7.08,9.865 C6.569,9.612 6.169,9.142 6.003,8.6 C5.946,8.416 5.938,8.334 5.938,8 C5.938,7.666 5.946,7.584 6.003,7.4 C6.231,6.655 6.871,6.086 7.639,5.947 Z M4.56,4.894 C4.85,4.804 5.111,4.868 5.324,5.081 C5.426,5.183 5.473,5.256 5.504,5.361 C5.589,5.646 5.552,5.809 5.328,6.147 C4.961,6.699 4.789,7.205 4.755,7.829 C4.717,8.534 4.895,9.179 5.302,9.805 C5.552,10.192 5.591,10.347 5.507,10.631 C5.363,11.114 4.712,11.303 4.327,10.973 C4.099,10.778 3.679,10.044 3.51,9.546 C3.025,8.116 3.246,6.509 4.095,5.304 C4.269,5.057 4.396,4.945 4.56,4.894 Z M10.934,4.9 C11.175,4.815 11.476,4.862 11.659,5.014 C11.893,5.208 12.317,5.94 12.49,6.454 C12.971,7.873 12.767,9.41 11.933,10.65 C11.741,10.936 11.619,11.045 11.423,11.107 C10.862,11.283 10.329,10.768 10.483,10.2 C10.498,10.141 10.595,9.965 10.697,9.808 C11.092,9.199 11.238,8.71 11.239,8 C11.24,7.281 11.081,6.763 10.672,6.147 C10.448,5.809 10.411,5.646 10.496,5.361 C10.549,5.182 10.758,4.962 10.934,4.9 Z M8.208,7.455 C7.846,7.304 7.412,7.606 7.414,8.006 C7.415,8.306 7.698,8.587 8,8.587 C8.305,8.587 8.585,8.305 8.585,8 C8.585,7.777 8.425,7.545 8.208,7.455 Z"/>
</svg>
