<svg xmlns="http://www.w3.org/2000/svg" viewBox="0 0 16 16">
  <defs/>
  <path d="M7.52,1.349 C7.766,1.327 8.663,1.36 8.933,1.401 C9.979,1.559 10.847,1.893 11.707,2.467 C13.313,3.541 14.333,5.186 14.618,7.16 C14.639,7.3 14.653,7.649 14.653,8 C14.653,8.351 14.639,8.7 14.618,8.84 C14.438,10.089 13.99,11.152 13.231,12.133 C13.006,12.425 12.425,13.006 12.133,13.231 C11.152,13.99 10.089,14.438 8.84,14.618 C8.525,14.664 7.475,14.664 7.16,14.618 C5.911,14.438 4.851,13.992 3.867,13.231 C3.359,12.839 2.723,12.129 2.336,11.52 C2.149,11.227 1.834,10.566 1.711,10.21 C1.443,9.435 1.348,8.857 1.348,8 C1.348,7.143 1.443,6.565 1.711,5.79 C1.834,5.434 2.149,4.773 2.336,4.48 C2.723,3.871 3.357,3.164 3.867,2.769 C4.949,1.933 6.128,1.475 7.52,1.349 Z M6.328,5.669 C6.225,5.618 6.016,5.615 5.907,5.664 C5.807,5.709 5.693,5.829 5.655,5.928 C5.619,6.025 5.619,6.215 5.655,6.312 C5.67,6.353 6.045,6.75 6.488,7.193 L7.292,8 L6.488,8.807 C6.045,9.25 5.67,9.647 5.655,9.688 C5.619,9.785 5.619,9.975 5.655,10.072 C5.74,10.295 5.982,10.42 6.232,10.367 C6.353,10.342 6.404,10.297 7.18,9.525 L8,8.709 L8.82,9.525 C9.596,10.297 9.647,10.342 9.768,10.367 C10.1,10.437 10.373,10.216 10.373,9.88 C10.373,9.816 10.361,9.73 10.345,9.688 C10.33,9.647 9.955,9.25 9.512,8.807 L8.708,8 L9.512,7.193 C9.955,6.75 10.33,6.353 10.345,6.312 C10.384,6.207 10.38,6.015 10.337,5.912 C10.292,5.809 10.174,5.694 10.072,5.655 C9.962,5.614 9.77,5.62 9.672,5.669 C9.625,5.693 9.23,6.068 8.793,6.502 L8,7.293 L7.207,6.502 C6.77,6.068 6.375,5.693 6.328,5.669 Z"/>
</svg>
