<svg xmlns="http://www.w3.org/2000/svg" viewBox="0 0 16 16">
  <defs/>
  <path d="M12.063,8.167 L12.063,11.167 Q12.063,13.352 11.031,14.385 Q9.999,15.417 7.813,15.417 L4.813,15.417 Q0.563,15.417 0.563,11.167 L0.563,8.167 Q0.563,3.917 4.813,3.917 L7.813,3.917 Q9.999,3.917 11.031,4.949 Q12.063,5.981 12.063,8.167 Z M10.563,8.167 Q10.563,5.417 7.813,5.417 L4.813,5.417 Q2.063,5.417 2.063,8.167 L2.063,11.167 Q2.063,13.917 4.813,13.917 L7.813,13.917 Q9.378,13.917 9.97,13.324 Q10.563,12.731 10.563,11.167 Z"/>
  <path opacity="0.4" d="M15.397,3.9 L15.397,6.1 Q15.397,9.417 12.08,9.417 L11.313,9.417 Q11.003,9.417 10.783,9.197 Q10.563,8.977 10.563,8.667 L10.563,8.167 Q10.563,6.602 9.97,6.009 Q9.378,5.417 7.813,5.417 L7.313,5.417 Q7.003,5.417 6.783,5.197 Q6.563,4.977 6.563,4.667 L6.563,3.9 Q6.563,2.214 7.379,1.399 Q8.194,0.583 9.88,0.583 L12.08,0.583 Q15.397,0.583 15.397,3.9 Z M13.897,3.9 Q13.897,2.083 12.08,2.083 L9.88,2.083 Q8.816,2.083 8.439,2.459 Q8.063,2.836 8.063,3.9 L8.063,3.92 Q10.059,3.977 11.031,4.949 Q12.003,5.921 12.06,7.917 L12.08,7.917 Q13.897,7.917 13.897,6.1 Z"/>
</svg>
