<svg xmlns="http://www.w3.org/2000/svg" viewBox="0 0 16 16">
  <defs/>
  <path d="M4.641,10.298 L6.939,8 L4.641,5.702 Q4.422,5.482 4.422,5.172 Q4.422,4.861 4.641,4.641 Q4.861,4.422 5.172,4.422 Q5.482,4.422 5.702,4.641 L8,6.939 L10.298,4.641 Q10.518,4.422 10.828,4.422 Q11.139,4.422 11.359,4.641 Q11.578,4.861 11.578,5.172 Q11.578,5.482 11.359,5.702 L9.061,8 L11.359,10.298 Q11.578,10.518 11.578,10.828 Q11.578,11.139 11.359,11.359 Q11.139,11.578 10.828,11.578 Q10.518,11.578 10.298,11.359 L8,9.061 L5.702,11.359 Q5.482,11.578 5.172,11.578 Q4.861,11.578 4.641,11.359 Q4.422,11.139 4.422,10.828 Q4.422,10.518 4.641,10.298 Z"/>
</svg>
