<svg xmlns="http://www.w3.org/2000/svg" viewBox="0 0 16 16">
  <defs/>
  <path d="M13.209,5.45 Q14.75,6.261 14.75,8 Q14.75,9.739 13.209,10.55 L5.481,14.618 Q3.623,15.591 2.124,14.124 Q0.623,12.657 1.562,10.778 L2.642,8.618 Q2.951,8 2.642,7.382 L1.562,5.222 Q0.623,3.343 2.123,1.873 Q3.624,0.403 5.483,1.383 Z M12.511,6.777 L4.784,2.71 Q3.892,2.24 3.173,2.945 Q2.453,3.65 2.904,4.551 L3.984,6.711 Q4.628,8 3.984,9.289 L2.904,11.449 Q2.454,12.349 3.173,13.052 Q3.893,13.756 4.785,13.289 L12.511,9.223 Q13.25,8.834 13.25,8 Q13.25,7.166 12.511,6.777 Z"/>
</svg>
