<svg xmlns="http://www.w3.org/2000/svg" viewBox="0 0 16 16">
  <defs/>
  <path d="M11.417,8.267 L11.417,10.267 Q11.417,12.577 10.33,13.664 Q9.244,14.75 6.933,14.75 L4.4,14.75 Q2.089,14.75 1.003,13.664 Q0.217,12.878 0,11.452 L0,6.595 Q0.528,3.25 4.4,3.25 L6.4,3.25 Q6.711,3.25 6.93,3.47 Q7.15,3.689 7.15,4 Q7.15,4.311 6.93,4.53 Q6.711,4.75 6.4,4.75 L4.4,4.75 Q1.417,4.75 1.417,7.733 L1.417,10.267 Q1.417,11.956 2.064,12.603 Q2.711,13.25 4.4,13.25 L6.933,13.25 Q8.623,13.25 9.27,12.603 Q9.917,11.956 9.917,10.267 L9.917,8.267 Q9.917,7.956 10.136,7.736 Q10.356,7.517 10.667,7.517 Q10.977,7.517 11.197,7.736 Q11.417,7.956 11.417,8.267 Z"/>
  <path opacity="0.4" d="M10.667,9.017 L8.533,9.017 Q5.65,9.017 5.65,6.133 L5.65,4 Q5.65,3.689 5.87,3.47 Q6.089,3.25 6.4,3.25 Q6.711,3.25 6.93,3.47 L11.197,7.736 Q11.417,7.956 11.417,8.267 Q11.417,8.577 11.197,8.797 Q10.977,9.017 10.667,9.017 Z M8.856,7.517 L7.15,5.811 L7.15,6.133 Q7.15,7.517 8.533,7.517 Z"/>
  <path d="M14.75,4.667 L14.75,8.793 Q14.75,11.417 12.127,11.417 Q11.816,11.417 11.596,11.197 Q11.377,10.977 11.377,10.667 Q11.377,10.356 11.596,10.136 Q11.816,9.917 12.127,9.917 Q12.591,9.917 12.921,9.587 Q13.25,9.258 13.25,8.793 L13.25,4.667 Q13.25,4.356 13.47,4.136 Q13.689,3.917 14,3.917 Q14.311,3.917 14.53,4.136 Q14.75,4.356 14.75,4.667 Z M3.25,2.667 Q3.25,0.395 5.126,0 L10.348,0 Q10.446,0.052 10.53,0.136 Q10.75,0.356 10.75,0.667 Q10.75,0.977 10.53,1.197 Q10.311,1.417 10,1.417 L6,1.417 Q4.75,1.417 4.75,2.667 Q4.75,2.977 4.53,3.197 Q4.311,3.417 4,3.417 Q3.689,3.417 3.47,3.197 Q3.25,2.977 3.25,2.667 Z"/>
  <path opacity="0.4" d="M14,5.417 L12,5.417 Q9.25,5.417 9.25,2.667 L9.25,0.667 Q9.25,0.356 9.47,0.136 Q9.554,0.052 9.652,0 L10.348,0 Q10.446,0.052 10.53,0.136 L14.53,4.136 Q14.75,4.356 14.75,4.667 Q14.75,4.977 14.53,5.197 Q14.311,5.417 14,5.417 Z M12.189,3.917 L10.75,2.477 L10.75,2.667 Q10.75,3.917 12,3.917 Z"/>
</svg>
