<svg xmlns="http://www.w3.org/2000/svg" viewBox="0 0 16 16">
  <defs/>
  <path opacity="0.4" d="M7.333,2.083 L6,2.083 Q3.811,2.083 2.947,2.947 Q2.083,3.811 2.083,6 L2.083,10 Q2.083,13.917 6,13.917 L10,13.917 Q12.189,13.917 13.053,13.053 Q13.917,12.189 13.917,10 L13.917,8.667 Q13.917,8.356 14.136,8.136 Q14.356,7.917 14.667,7.917 Q14.977,7.917 15.197,8.136 Q15.417,8.356 15.417,8.667 L15.417,10 Q15.417,15.417 10,15.417 L6,15.417 Q0.583,15.417 0.583,10 L0.583,6 Q0.583,3.189 1.886,1.886 Q3.189,0.583 6,0.583 L7.333,0.583 Q7.644,0.583 7.864,0.803 Q8.083,1.023 8.083,1.333 Q8.083,1.644 7.864,1.864 Q7.644,2.083 7.333,2.083 Z"/>
  <path d="M10.163,1.484 Q11.122,0.524 12.107,0.428 Q13.34,0.307 14.517,1.484 Q15.694,2.661 15.573,3.894 Q15.476,4.878 14.517,5.838 L9.255,11.1 Q8.699,11.637 7.959,11.743 L5.949,12.03 Q5.035,12.156 4.438,11.562 Q3.836,10.963 3.971,10.048 L4.257,8.044 Q4.363,7.283 4.91,6.737 Z M11.224,2.544 L5.97,7.798 Q5.779,7.989 5.743,8.251 L5.456,10.26 Q5.43,10.433 5.497,10.499 Q5.566,10.569 5.744,10.544 L7.747,10.258 Q8.005,10.221 8.212,10.022 L13.456,4.777 Q14.036,4.197 14.08,3.747 Q14.132,3.22 13.456,2.544 Q12.781,1.869 12.253,1.92 Q11.803,1.965 11.224,2.544 Z"/>
  <path opacity="0.4" d="M10.662,2.562 Q10.946,3.571 11.687,4.312 Q12.428,5.053 13.437,5.337 Q13.736,5.421 13.888,5.692 Q14.039,5.963 13.955,6.262 Q13.871,6.561 13.6,6.713 Q13.329,6.865 13.03,6.781 Q11.644,6.39 10.626,5.372 Q9.608,4.354 9.218,2.969 Q9.134,2.67 9.286,2.399 Q9.438,2.128 9.737,2.043 Q10.036,1.959 10.307,2.111 Q10.578,2.263 10.662,2.562 Z"/>
</svg>
