<svg xmlns="http://www.w3.org/2000/svg" viewBox="0 0 16 16">
  <defs/>
  <path d="M8,3.555 Q9.112,2.068 10.96,2.068 Q14.667,2.068 14.667,5.795 Q14.667,6.927 14.322,7.996 L14.322,7.996 Q13.616,10.228 11.574,11.983 Q10.03,13.31 8.469,13.855 L8.448,13.867 L8.364,13.89 L8.363,13.89 L8.362,13.891 Q8.297,13.909 8.22,13.92 Q8.114,13.935 8,13.935 Q7.886,13.935 7.78,13.92 Q7.696,13.908 7.627,13.887 Q7.635,13.89 7.643,13.892 Q7.665,13.898 7.686,13.902 Q7.752,13.916 7.819,13.917 Q7.915,13.919 8.004,13.9 Q7.982,13.895 7.96,13.889 Q7.766,13.835 7.641,13.734 L7.589,13.876 L7.581,13.873 Q5.998,13.334 4.426,11.983 Q2.384,10.228 1.68,8.001 L1.679,7.999 Q1.333,6.93 1.333,5.795 Q1.333,2.069 5.039,2.068 Q5.915,2.069 6.696,2.462 Q7.477,2.854 8,3.555 Z M6.798,4.452 L6.798,4.452 Q6.487,4.035 6.022,3.802 Q5.558,3.569 5.04,3.568 Q2.833,3.568 2.833,5.795 Q2.833,6.693 3.108,7.542 L3.11,7.549 Q3.685,9.369 5.403,10.845 Q6.717,11.974 8,12.43 Q9.28,11.976 10.596,10.845 Q12.315,9.369 12.888,7.555 L12.893,7.54 Q13.167,6.693 13.167,5.795 Q13.167,4.869 12.518,4.217 Q11.872,3.568 10.96,3.568 Q9.863,3.568 9.201,4.453 L7.998,6.061 Z M8.164,12.493 Q8.133,12.478 8.101,12.466 L8.027,12.671 L8.163,13.167 L7.98,12.833 L8.152,13.85 Q8.258,13.8 8.35,13.714 Q8.352,13.712 8.353,13.71 L8.164,13.167 L8.164,12.493 Z M7.627,13.722 Q7.634,13.728 7.641,13.734 L7.973,12.82 L7.963,12.803 L7.836,13.167 L7.627,13.722 Z M8.152,13.85 Q8.081,13.883 8.004,13.9 Q8.06,13.912 8.118,13.916 Q8.141,13.917 8.164,13.917 L8.152,13.85 Z M7.976,12.811 L7.973,12.82 L7.98,12.833 L7.976,12.811 Z"/>
</svg>
