<svg xmlns="http://www.w3.org/2000/svg" viewBox="0 0 16 16">
  <defs/>
  <path d="M7.337,14.582 Q5.113,13.823 3.198,11.861 Q0.583,9.182 0.583,5.795 Q0.583,3.94 1.887,2.63 Q3.193,1.318 5.04,1.318 Q6.804,1.318 8.007,2.444 Q8.437,2.06 8.965,1.794 Q9.906,1.319 10.959,1.318 Q12.807,1.318 14.112,2.63 Q15.417,3.94 15.417,5.795 Q15.417,9.182 12.802,11.861 Q10.888,13.821 8.659,14.583 Q7.998,14.815 7.337,14.582 Z M8.171,13.165 Q10.064,12.519 11.728,10.813 Q13.917,8.571 13.917,5.795 Q13.917,4.56 13.049,3.688 Q12.184,2.818 10.961,2.818 Q10.263,2.819 9.64,3.133 Q9.018,3.447 8.603,4.008 Q8.536,4.097 8.447,4.163 Q8.198,4.349 7.89,4.303 Q7.583,4.258 7.398,4.008 Q6.514,2.818 5.04,2.818 Q2.083,2.818 2.083,5.795 Q2.083,8.571 4.272,10.813 Q5.936,12.519 7.836,13.167 Q8,13.225 8.164,13.167 Z"/>
</svg>
