<svg xmlns="http://www.w3.org/2000/svg" viewBox="0 0 16 16">
  <defs/>
  <path d="M5.295,0.616 C5.485,0.603 6.36,0.595 7.24,0.597 L8.84,0.6 L8.963,0.66 C9.238,0.796 9.395,1.04 9.395,1.333 C9.395,1.627 9.238,1.87 8.963,2.006 L8.84,2.067 L6.973,2.082 C5.053,2.099 4.996,2.102 4.427,2.216 C4.176,2.266 3.729,2.421 3.51,2.533 C2.67,2.964 2.237,3.782 2.107,5.187 C2.071,5.578 2.071,10.422 2.107,10.813 C2.205,11.872 2.504,12.655 2.977,13.095 C3.455,13.539 4.174,13.799 5.187,13.893 C5.362,13.909 6.501,13.92 8.013,13.92 C10.04,13.919 10.619,13.912 10.907,13.881 C12.144,13.748 12.878,13.399 13.32,12.734 C13.601,12.31 13.75,11.861 13.871,11.067 C13.891,10.936 13.907,10.106 13.917,8.68 L13.933,6.493 L13.994,6.371 C14.13,6.095 14.373,5.939 14.667,5.939 C14.96,5.939 15.204,6.095 15.34,6.371 L15.4,6.493 L15.4,8.573 C15.4,10.743 15.391,10.962 15.278,11.617 C15.144,12.394 14.91,13.012 14.538,13.573 C14.344,13.867 13.867,14.344 13.573,14.538 C12.802,15.05 11.912,15.306 10.627,15.386 C10.073,15.421 5.929,15.421 5.373,15.387 C4.086,15.306 3.201,15.051 2.427,14.538 C2.134,14.344 1.656,13.867 1.461,13.573 C0.949,12.802 0.694,11.915 0.613,10.627 C0.579,10.072 0.579,5.928 0.613,5.373 C0.694,4.085 0.949,3.198 1.461,2.427 C1.656,2.133 2.134,1.656 2.427,1.462 C3.179,0.963 4.088,0.695 5.295,0.616 Z"/>
  <path opacity="0.4" d="M12.241,7.294 C12.794,7.194 13.387,7.311 13.83,7.608 C13.931,7.675 14.292,7.971 14.633,8.266 C15.351,8.886 15.396,8.945 15.397,9.267 C15.398,9.424 15.385,9.476 15.32,9.596 C15.18,9.852 14.941,10 14.667,10 C14.421,10 14.339,9.949 13.678,9.384 C13.335,9.09 13.017,8.829 12.973,8.805 C12.86,8.741 12.419,8.742 12.307,8.805 C12.263,8.83 11.561,9.422 10.747,10.12 C9.807,10.926 9.199,11.429 9.08,11.497 C8.368,11.908 7.429,11.874 6.76,11.413 C6.701,11.372 6.561,11.262 6.447,11.167 C6.334,11.073 6.194,10.981 6.137,10.964 C5.995,10.922 5.724,10.925 5.613,10.972 C5.562,10.993 4.758,11.522 3.825,12.147 C2.893,12.772 2.09,13.301 2.04,13.322 C1.896,13.382 1.637,13.37 1.48,13.297 C1.011,13.078 0.9,12.47 1.265,12.12 C1.326,12.061 2.168,11.484 3.135,10.838 C4.521,9.912 4.935,9.647 5.09,9.591 C5.854,9.311 6.672,9.448 7.293,9.959 C7.411,10.056 7.551,10.166 7.605,10.203 C7.788,10.33 8.182,10.331 8.369,10.205 C8.423,10.169 9.12,9.579 9.918,8.895 C10.767,8.167 11.441,7.608 11.544,7.549 C11.764,7.421 11.985,7.34 12.241,7.294 Z M5.707,3.281 C5.897,3.255 6.266,3.269 6.453,3.309 C7.207,3.472 7.847,4.116 8.029,4.893 C8.046,4.967 8.06,5.165 8.06,5.333 C8.06,5.502 8.046,5.7 8.029,5.773 C7.846,6.557 7.224,7.179 6.44,7.363 C6.367,7.38 6.169,7.394 6,7.394 C5.669,7.394 5.526,7.369 5.248,7.264 C4.748,7.075 4.259,6.588 4.071,6.09 C3.964,5.807 3.94,5.665 3.94,5.333 C3.94,5.003 3.964,4.86 4.069,4.581 C4.235,4.144 4.651,3.687 5.08,3.473 C5.248,3.389 5.518,3.307 5.707,3.281 Z M11.845,0.615 C11.998,0.584 12.173,0.606 12.32,0.674 C12.46,0.738 13.782,2.032 13.934,2.253 C14.398,2.929 13.576,3.726 12.902,3.253 L12.75,3.147 L12.742,4.327 C12.733,5.491 12.733,5.508 12.673,5.629 C12.537,5.905 12.293,6.061 12,6.061 C11.707,6.061 11.463,5.905 11.327,5.629 C11.267,5.508 11.267,5.491 11.258,4.327 L11.25,3.147 L11.098,3.253 C11.001,3.322 10.897,3.369 10.807,3.386 C10.165,3.505 9.697,2.79 10.066,2.253 C10.18,2.087 11.498,0.777 11.632,0.697 C11.686,0.664 11.782,0.627 11.845,0.615 Z M6.234,4.788 C6.019,4.698 5.723,4.758 5.568,4.923 C5.354,5.152 5.364,5.554 5.59,5.765 C5.751,5.916 6.028,5.965 6.234,5.879 C6.704,5.682 6.704,4.985 6.234,4.788 Z"/>
</svg>
