<svg xmlns="http://www.w3.org/2000/svg" viewBox="0 0 16 16">
  <defs/>
  <path d="M11.024,5.186 Q15.09,5.536 15.09,10.073 L15.09,10.16 Q15.09,15.083 10.167,15.083 L5.827,15.083 Q0.903,15.083 0.903,10.16 L0.903,10.073 Q0.903,5.567 4.91,5.193 Q5.22,5.164 5.459,5.363 Q5.698,5.561 5.727,5.87 Q5.756,6.18 5.557,6.419 Q5.359,6.658 5.05,6.687 Q2.403,6.933 2.403,10.073 L2.403,10.16 Q2.403,12.084 3.153,12.834 Q3.902,13.583 5.827,13.583 L10.167,13.583 Q12.091,13.583 12.841,12.834 Q13.59,12.084 13.59,10.16 L13.59,10.073 Q13.59,6.913 10.896,6.681 Q10.586,6.654 10.386,6.416 Q10.186,6.179 10.213,5.869 Q10.239,5.559 10.477,5.359 Q10.715,5.159 11.024,5.186 Z"/>
  <path opacity="0.4" d="M8.75,1.333 L8.75,8.856 L9.703,7.903 Q9.923,7.683 10.233,7.683 Q10.544,7.683 10.764,7.903 Q10.983,8.123 10.983,8.433 Q10.983,8.744 10.764,8.964 L8.53,11.197 Q8.311,11.417 8,11.417 Q7.689,11.417 7.47,11.197 L5.236,8.964 Q5.017,8.744 5.017,8.433 Q5.017,8.123 5.236,7.903 Q5.456,7.683 5.767,7.683 Q6.077,7.683 6.297,7.903 L7.25,8.856 L7.25,1.333 Q7.25,1.023 7.47,0.803 Q7.689,0.583 8,0.583 Q8.311,0.583 8.53,0.803 Q8.75,1.023 8.75,1.333 Z"/>
</svg>
