<svg xmlns="http://www.w3.org/2000/svg" viewBox="0 0 16 16">
  <defs/>
  <path d="M9.236,6.763 Q9.882,7.407 10.232,8.249 Q10.582,9.092 10.582,10.004 Q10.582,10.916 10.232,11.759 Q9.882,12.601 9.236,13.245 Q7.89,14.585 5.995,14.586 Q4.094,14.588 2.755,13.243 Q1.416,11.898 1.414,10.002 Q1.412,8.101 2.757,6.762 Q2.978,6.543 3.288,6.544 Q3.599,6.545 3.818,6.765 Q4.037,6.985 4.037,7.296 Q4.036,7.606 3.816,7.826 Q1.637,9.994 3.818,12.185 Q5.987,14.363 8.177,12.183 Q8.611,11.75 8.846,11.184 Q9.082,10.617 9.082,10.004 Q9.082,9.391 8.846,8.824 Q8.611,8.258 8.177,7.825 Q7.957,7.606 7.957,7.295 Q7.956,6.984 8.175,6.764 Q8.395,6.544 8.705,6.544 Q9.016,6.544 9.236,6.763 Z"/>
  <path opacity="0.4" d="M6.53,9.47 Q5.14,8.08 5.14,6.112 Q5.14,4.145 6.528,2.75 Q7.917,1.355 9.888,1.357 Q11.854,1.358 13.249,2.748 Q14.644,4.137 14.642,6.107 Q14.641,8.073 13.251,9.469 Q13.032,9.689 12.721,9.689 Q12.411,9.69 12.191,9.471 Q11.971,9.252 11.97,8.941 Q11.969,8.63 12.188,8.41 Q13.141,7.453 13.142,6.106 Q13.144,4.76 12.191,3.811 Q9.88,1.51 7.591,3.809 Q5.295,6.114 7.59,8.409 Q7.81,8.629 7.81,8.939 Q7.81,9.25 7.59,9.47 Q7.371,9.689 7.06,9.689 Q6.749,9.689 6.53,9.47 Z"/>
</svg>
