<svg xmlns="http://www.w3.org/2000/svg" viewBox="0 0 16 16">
  <defs/>
  <path d="M15.417,6.667 L15.417,8.667 Q15.417,10.977 14.197,12.197 Q12.977,13.417 10.667,13.417 L10.375,13.417 L9.4,14.717 Q8.845,15.457 8,15.457 Q7.155,15.457 6.6,14.717 L5.625,13.417 L5.333,13.417 Q0.583,13.417 0.583,8.667 L0.583,5.333 Q0.583,0.583 5.333,0.583 L9.333,0.583 Q9.644,0.583 9.864,0.803 Q10.083,1.023 10.083,1.333 Q10.083,1.644 9.864,1.864 Q9.644,2.083 9.333,2.083 L5.333,2.083 Q2.083,2.083 2.083,5.333 L2.083,8.667 Q2.083,11.917 5.333,11.917 L5.667,11.917 Q6.388,11.917 6.8,12.483 L7.8,13.817 Q7.905,13.957 8,13.957 Q8.095,13.957 8.2,13.817 L9.203,12.48 Q9.63,11.917 10.333,11.917 L10.667,11.917 Q13.917,11.917 13.917,8.667 L13.917,6.667 Q13.917,6.356 14.136,6.136 Q14.356,5.917 14.667,5.917 Q14.977,5.917 15.197,6.136 Q15.417,6.356 15.417,6.667 Z"/>
  <path opacity="0.4" d="M12.704,0.616 C12.974,0.584 13.001,0.584 13.261,0.614 C14.771,0.787 15.745,2.295 15.28,3.741 C14.938,4.806 13.857,5.51 12.755,5.387 C11.232,5.218 10.253,3.714 10.719,2.259 C10.996,1.396 11.812,0.72 12.704,0.616 Z M7.692,6.396 C7.861,6.339 8.106,6.335 8.28,6.387 C8.544,6.467 8.792,6.688 8.915,6.954 C8.999,7.135 8.999,7.532 8.915,7.713 C8.545,8.515 7.455,8.515 7.085,7.713 C7.001,7.532 7.001,7.135 7.085,6.954 C7.204,6.695 7.434,6.485 7.692,6.396 Z M5.025,6.396 C5.644,6.185 6.318,6.674 6.32,7.336 C6.321,7.868 5.862,8.319 5.32,8.319 C4.95,8.319 4.585,8.074 4.418,7.713 C4.335,7.532 4.335,7.135 4.418,6.954 C4.538,6.695 4.767,6.485 5.025,6.396 Z M10.359,6.396 C10.978,6.185 11.652,6.674 11.653,7.336 C11.654,7.868 11.195,8.319 10.653,8.319 C10.283,8.319 9.919,8.074 9.752,7.713 C9.668,7.532 9.668,7.135 9.752,6.954 C9.871,6.695 10.1,6.485 10.359,6.396 Z M13.398,2.161 C13.295,2.11 13.218,2.095 13.04,2.089 C12.915,2.086 12.771,2.095 12.72,2.109 C12.465,2.182 12.168,2.495 12.105,2.756 C12.058,2.947 12.085,3.244 12.162,3.399 C12.252,3.579 12.427,3.751 12.607,3.835 C12.738,3.896 12.795,3.907 13,3.907 C13.204,3.907 13.263,3.896 13.391,3.836 C13.582,3.746 13.746,3.582 13.836,3.391 C13.896,3.263 13.907,3.204 13.907,3 C13.907,2.795 13.896,2.738 13.835,2.607 C13.75,2.427 13.579,2.252 13.398,2.161 Z"/>
</svg>
