<svg xmlns="http://www.w3.org/2000/svg" viewBox="0 0 16 16">
  <defs/>
  <path d="M3.333,6.667 C2.6,6.667 2,7.267 2,8 C2,8.733 2.6,9.333 3.333,9.333 C4.067,9.333 4.667,8.733 4.667,8 C4.667,7.267 4.067,6.667 3.333,6.667 Z M12.667,6.667 C11.933,6.667 11.333,7.267 11.333,8 C11.333,8.733 11.933,9.333 12.667,9.333 C13.4,9.333 14,8.733 14,8 C14,7.267 13.4,6.667 12.667,6.667 Z"/>
  <path opacity="0.4" d="M8,6.667 C7.267,6.667 6.667,7.267 6.667,8 C6.667,8.733 7.267,9.333 8,9.333 C8.733,9.333 9.333,8.733 9.333,8 C9.333,7.267 8.733,6.667 8,6.667 Z"/>
</svg>
