<svg xmlns="http://www.w3.org/2000/svg" viewBox="0 0 16 16">
  <defs/>
  <path d="M9.817,7.719 L9.817,9.539 Q9.817,12.415 6.94,12.415 L5.127,12.415 Q2.25,12.415 2.25,9.539 L2.25,7.719 Q2.25,4.849 5.127,4.849 L6.947,4.849 Q8.392,4.849 9.104,5.561 Q9.817,6.273 9.817,7.719 Z M8.317,7.719 Q8.317,6.349 6.947,6.349 L5.127,6.349 Q3.75,6.349 3.75,7.719 L3.75,9.539 Q3.75,10.366 4.026,10.641 Q4.301,10.915 5.127,10.915 L6.94,10.915 Q8.317,10.915 8.317,9.539 Z"/>
  <path d="M12.417,5.12 L12.417,6.94 Q12.417,8.391 11.704,9.104 Q10.991,9.817 9.54,9.817 L9.067,9.817 Q8.756,9.817 8.536,9.597 Q8.317,9.377 8.317,9.067 L8.317,7.72 Q8.317,6.35 6.94,6.35 L5.6,6.35 Q5.289,6.35 5.07,6.13 Q4.85,5.911 4.85,5.6 L4.85,5.12 Q4.85,3.669 5.564,2.958 Q6.276,2.25 7.727,2.25 L9.547,2.25 Q12.417,2.25 12.417,5.12 Z M10.917,5.12 Q10.917,3.75 9.547,3.75 L7.727,3.75 Q6.493,3.75 6.365,4.85 L6.94,4.85 Q8.39,4.85 9.103,5.562 Q9.817,6.273 9.817,7.72 L9.817,8.301 Q10.917,8.171 10.917,6.94 Z"/>
  <path opacity="0.4" d="M14.75,9.333 Q14.75,11.579 13.165,13.165 Q11.579,14.75 9.333,14.75 Q9.023,14.75 8.803,14.53 Q8.583,14.311 8.583,14 Q8.583,13.792 8.69,13.614 L9.39,12.448 Q9.55,12.181 9.852,12.106 Q10.153,12.03 10.419,12.19 Q10.686,12.35 10.761,12.652 Q10.805,12.827 10.769,12.991 Q11.502,12.706 12.104,12.104 Q13.25,10.958 13.25,9.333 Q13.25,9.023 13.47,8.803 Q13.689,8.583 14,8.583 Q14.311,8.583 14.53,8.803 Q14.75,9.023 14.75,9.333 Z M5.682,0 Q5.779,0.052 5.864,0.136 Q6.083,0.356 6.083,0.667 Q6.083,0.874 5.977,1.053 L5.277,2.219 Q5.117,2.486 4.815,2.561 Q4.514,2.636 4.248,2.476 Q3.981,2.317 3.906,2.015 Q3.848,1.783 3.929,1.572 Q1.417,2.196 1.417,5.333 Q1.417,5.644 1.197,5.864 Q0.977,6.083 0.667,6.083 Q0.356,6.083 0.136,5.864 Q0.052,5.779 0,5.681 L0,4.339 Q0.28,2.724 1.502,1.502 Q2.724,0.28 4.339,0 Z"/>
</svg>
