<svg xmlns="http://www.w3.org/2000/svg" viewBox="0 0 16 16">
  <defs/>
  <path d="M9.509,13.721 Q13.917,12.56 13.917,8 Q13.917,5.545 12.192,3.816 Q10.464,2.083 8,2.083 Q4.732,2.083 2.798,4.29 L4.293,4.29 Q4.604,4.29 4.824,4.51 Q5.043,4.729 5.043,5.04 Q5.043,5.351 4.824,5.57 Q4.604,5.79 4.293,5.79 L1.376,5.79 Q1.251,5.799 1.133,5.765 Q0.99,5.727 0.872,5.632 Q0.751,5.54 0.679,5.411 Q0.605,5.283 0.588,5.132 Q0.578,5.056 0.583,4.983 L0.583,2 Q0.583,1.689 0.803,1.47 Q1.023,1.25 1.333,1.25 Q1.644,1.25 1.864,1.47 Q2.083,1.689 2.083,2 L2.083,2.851 Q4.364,0.583 8,0.583 Q11.087,0.583 13.254,2.757 Q15.417,4.925 15.417,8 Q15.417,13.716 9.891,15.172 Q9.591,15.251 9.322,15.095 Q9.054,14.938 8.975,14.638 Q8.896,14.337 9.052,14.069 Q9.208,13.8 9.509,13.721 Z"/>
  <path opacity="0.4" d="M2.083,8 Q2.083,9.37 2.68,10.591 Q2.816,10.87 2.715,11.164 Q2.614,11.458 2.335,11.594 Q2.056,11.731 1.762,11.63 Q1.468,11.529 1.332,11.25 Q0.583,9.717 0.583,8 Q0.583,7.689 0.803,7.47 Q1.023,7.25 1.333,7.25 Q1.644,7.25 1.864,7.47 Q2.083,7.689 2.083,8 Z M4.347,12.654 Q5.416,13.494 6.736,13.781 Q7.04,13.847 7.207,14.109 Q7.375,14.37 7.309,14.674 Q7.243,14.977 6.982,15.145 Q6.72,15.313 6.417,15.247 Q4.759,14.886 3.42,13.833 Q3.176,13.641 3.139,13.332 Q3.102,13.024 3.294,12.78 Q3.486,12.536 3.795,12.499 Q4.103,12.462 4.347,12.654 Z"/>
</svg>
