<svg xmlns="http://www.w3.org/2000/svg" viewBox="0 0 16 16">
  <defs/>
  <path d="M8.481,6.665 L6.315,10.378 L5.896,11.102 L4.247,13.919 Q3.954,14.44 3.342,14.454 Q2.738,14.468 2.41,13.96 L0.163,10.604 Q0.039,10.412 0,10.2 L0,9.797 Q0.038,9.59 0.157,9.406 L2.61,5.73 Q2.918,5.25 3.513,5.25 L7.667,5.25 Q8.098,5.25 8.315,5.623 L8.482,5.91 Q8.701,6.287 8.481,6.665 Z M6.695,6.75 L3.732,6.75 L1.564,10 L3.292,12.582 L4.597,10.351 L5.019,9.622 Z M3.847,6.578 Q3.852,6.571 3.857,6.563 Z M3.66,13.131 L3.67,13.147 Q3.665,13.139 3.66,13.131 Z M2.962,13.146 Q2.957,13.153 2.953,13.161 Z"/>
  <path opacity="0.4" d="M8.693,9.25 L7.185,6.664 L7.018,6.377 L4.979,2.878 Q4.656,2.346 4.972,1.795 Q5.284,1.25 5.913,1.25 L10.473,1.25 Q11.126,1.25 11.418,1.806 L15.875,9.442 Q15.96,9.587 16,9.731 L16,10.253 Q15.955,10.412 15.856,10.571 L15.85,10.58 L13.391,14.269 Q13.082,14.75 12.487,14.75 L8.18,14.75 Q7.585,14.75 7.269,14.259 L5.183,11.129 L4.633,10.293 L5.233,9.25 Z M6.733,10.75 L8.399,13.25 L12.268,13.25 L14.45,9.977 L10.232,2.75 L6.641,2.75 L8.315,5.623 L8.481,5.909 L10.348,9.111 Q10.677,9.654 10.362,10.205 Q10.05,10.75 9.42,10.75 Z M8.52,13.432 L8.531,13.448 Q8.526,13.44 8.52,13.432 Z M9.056,9.872 Q9.06,9.881 9.065,9.889 Z M12.153,13.422 Q12.148,13.43 12.143,13.437 Z M6.284,2.138 Q6.279,2.13 6.275,2.122 Z"/>
</svg>
