<svg xmlns="http://www.w3.org/2000/svg" fill="none" viewBox="0 0 200 200">
  <circle cx="100" cy="100" r="100" fill="#8C5AFC" />
  <mask id="a" width="200" height="200" x="0" y="0" maskUnits="userSpaceOnUse" style="mask-type:alpha">
    <circle cx="100" cy="100" r="100" fill="#8C5AFC" />
  </mask>
  <g mask="url(#a)">
    <circle cx="102" cy="36" r="18" fill="#fff" />
    <path fill="url(#b)" fill-rule="evenodd"
      d="m79.903 91.065 64.687 55.455c5.739 4.92 6.25 13.424 1.141 18.995-5.109 5.571-13.903 6.099-19.642 1.18L34.391 88.083c-5.638-4.834-6.23-13.127-1.405-18.7a13.483 13.483 0 0 1 10.748-5.326h112.761c7.458 0 13.504 6.046 13.504 13.504 0 7.458-6.046 13.504-13.504 13.504H79.903Z"
      clip-rule="evenodd" />
    <rect width="180" height="28" x="22" y="182" fill="url(#c)" rx="14" transform="rotate(-42.78 22 182)" />
  </g>
  <defs>
    <linearGradient id="b" x1="35.557" x2="149.702" y1="75.182" y2="164.801" gradientUnits="userSpaceOnUse">
      <stop stop-color="#fff" />
      <stop offset=".626" stop-color="#8C5AFC" stop-opacity=".2" />
    </linearGradient>
    <linearGradient id="c" x1="136.442" x2="22.782" y1="161.738" y2="269.135" gradientUnits="userSpaceOnUse">
      <stop stop-color="#fff" />
      <stop offset="1" stop-color="#6559F6" />
    </linearGradient>
  </defs>
</svg>