<svg xmlns="http://www.w3.org/2000/svg" viewBox="0 0 200 200">
  <defs />
  <path fill="#745DF9" d="M200,100 A100 100 0 1 1 0,100 A100 100 0 1 1 200,100 Z" />
  <path fill="white"
    d="M167,82 C167,85.006 165.794,87.731 163.839,89.717 C163.468,90.11 163.061,90.48 162.621,90.825 L117.48,126.144 L161.873,160.828 C166.66,164.568 167.509,171.481 163.769,176.268 C160.029,181.055 153.116,181.904 148.328,178.164 L99.626,140.114 L75.988,158.609 C71.203,162.353 64.181,161.596 60.303,156.92 C56.426,152.243 57.161,145.417 61.946,141.673 L81.77,126.163 L37.219,91.356 C34.303,89.078 32.848,85.623 33.002,82.188 C33,82.126 33,82.063 33,82 C33,75.925 37.925,71 44,71 L156,71 C162.075,71 167,75.925 167,82 Z M99.623,112.193 L124.154,93 L75.057,93 Z" />
  <path fill="white" d="M116,46 A16 16 0 1 1 84,46 A16 16 0 1 1 116,46 Z" />
</svg>