<svg xmlns="http://www.w3.org/2000/svg" viewBox="0 0 24 24">
  <defs/>
  <path opacity="0.4" d="M12,22 C17.523,22 22,17.523 22,12 C22,6.477 17.523,2 12,2 C6.477,2 2,6.477 2,12 C2,17.523 6.477,22 12,22 Z"/>
  <path d="M10.515,7.759 C10.666,7.713 10.798,7.714 10.98,7.764 C11.115,7.801 11.418,8.085 12.955,9.614 C13.953,10.607 14.821,11.5 14.885,11.598 C15.047,11.849 15.047,12.152 14.885,12.402 C14.821,12.5 13.953,13.392 12.955,14.385 C11.311,16.02 11.065,16.267 10.808,16.279 C10.761,16.281 10.712,16.276 10.655,16.269 C10.187,16.217 9.875,15.699 10.042,15.253 C10.065,15.191 10.79,14.433 11.652,13.57 L13.219,12 L11.652,10.43 C10.79,9.566 10.065,8.809 10.042,8.747 C9.897,8.36 10.129,7.875 10.515,7.759 Z"/>
</svg>
