<svg xmlns="http://www.w3.org/2000/svg" viewBox="0 0 24 24">
  <defs/>
  <path d="M11.12,2.039 C12.028,1.948 13.446,2.062 14.43,2.303 C18.842,3.387 22,7.432 22,12 C22,14.236 21.256,16.378 19.845,18.2 C19.507,18.637 18.637,19.507 18.2,19.845 C15.313,22.08 11.634,22.61 8.272,21.278 C7.038,20.789 5.93,20.051 4.938,19.061 C4.164,18.288 3.62,17.552 3.137,16.623 C1.158,12.819 1.806,8.228 4.761,5.107 C6.414,3.362 8.641,2.287 11.12,2.039 Z M9.492,8.504 C9.338,8.427 9.026,8.423 8.859,8.496 C8.684,8.572 8.485,8.817 8.457,8.991 C8.444,9.073 8.432,9.149 8.43,9.16 C8.428,9.171 8.439,9.261 8.455,9.359 C8.482,9.529 8.547,9.602 9.71,10.769 L10.937,12 L9.71,13.231 C8.699,14.246 8.522,14.415 8.463,14.618 C8.448,14.673 8.441,14.731 8.428,14.809 C8.41,14.922 8.506,15.187 8.606,15.3 C8.817,15.541 9.038,15.616 9.349,15.551 C9.53,15.513 9.605,15.446 10.77,14.287 L12,13.063 L13.23,14.287 C14.395,15.446 14.47,15.513 14.651,15.551 C14.962,15.616 15.183,15.541 15.394,15.3 C15.549,15.124 15.591,14.931 15.542,14.621 C15.519,14.477 15.398,14.343 14.289,13.23 L13.062,11.999 L14.269,10.79 C14.932,10.124 15.494,9.529 15.518,9.467 C15.577,9.311 15.57,9.022 15.505,8.869 C15.438,8.713 15.261,8.54 15.107,8.483 C14.943,8.42 14.655,8.431 14.508,8.504 C14.438,8.539 13.845,9.101 13.19,9.754 L12,10.939 L10.81,9.754 C10.155,9.101 9.562,8.539 9.492,8.504 Z"/>
</svg>
