<svg xmlns="http://www.w3.org/2000/svg" viewBox="0 0 24 24">
  <defs/>
  <path d="M21.97,5.5 L21.97,9.5 C21.97,11.261 20.671,12.723 18.97,12.965 C18.696,13.004 18.47,12.776 18.47,12.5 L18.47,12.25 C18.47,8.53 15.45,5.5 11.72,5.5 L11.47,5.5 C11.195,5.5 10.967,5.275 11.006,5.002 C11.127,4.169 11.543,3.407 12.18,2.856 C12.816,2.305 13.629,2.001 14.471,2 L18.471,2 C20.411,2 21.971,3.57 21.971,5.5 L21.97,5.5 Z"/>
  <path d="M11.72,7 L6.97,7 C4.21,7 1.97,9.24 1.97,12 L1.97,17 C1.97,19.76 4.21,22 6.97,22 L11.97,22 C14.73,22 16.97,19.76 16.97,17 L16.97,12.25 C16.97,9.35 14.62,7 11.72,7 Z"/>
</svg>
