<svg xmlns="http://www.w3.org/2000/svg" viewBox="0 0 24 24">
  <defs/>
  <path d="M13,3 L9,3 Q3,3 3,9 L3,15 Q3,21 9,21 L15,21 Q21,21 21,15 L21,10 Q21,9.586 21.293,9.293 Q21.586,9 22,9 Q22.414,9 22.707,9.293 Q23,9.586 23,10 L23,15 Q23,23 15,23 L9,23 Q1,23 1,15 L1,9 Q1,1 9,1 L13,1 Q13.414,1 13.707,1.293 Q14,1.586 14,2 Q14,2.414 13.707,2.707 Q13.414,3 13,3 Z"/>
  <path opacity="0.4" d="M18.506,11.045 C18.896,10.995 18.981,10.995 19.359,11.042 C19.784,11.096 20.242,11.246 20.555,11.434 C20.689,11.514 21.237,11.955 21.774,12.413 C22.562,13.085 22.772,13.285 22.863,13.452 C23.228,14.123 22.666,14.948 21.899,14.868 C21.784,14.856 21.637,14.82 21.575,14.787 C21.512,14.754 21.052,14.375 20.553,13.946 C20.054,13.517 19.586,13.134 19.513,13.096 C19.318,12.994 18.784,12.972 18.531,13.056 C18.367,13.111 17.947,13.453 16.096,15.039 C14.866,16.093 13.737,17.028 13.588,17.118 C12.708,17.647 11.5,17.693 10.587,17.234 C10.274,17.076 10.089,16.947 9.748,16.651 C9.391,16.341 9.181,16.264 8.748,16.288 C8.552,16.299 8.369,16.333 8.293,16.372 C8.224,16.409 7.038,17.197 5.659,18.123 C4.28,19.049 3.091,19.833 3.017,19.864 C2.81,19.95 2.492,19.934 2.257,19.825 C1.648,19.541 1.509,18.742 1.986,18.265 C2.095,18.156 6.827,14.963 7.246,14.716 C7.711,14.442 8.209,14.314 8.82,14.312 C9.693,14.308 10.321,14.552 11.034,15.173 C11.327,15.429 11.471,15.505 11.765,15.561 C11.993,15.604 12.376,15.556 12.558,15.46 C12.614,15.431 13.659,14.55 14.88,13.503 C16.101,12.455 17.219,11.528 17.364,11.441 C17.685,11.25 18.138,11.093 18.506,11.045 Z M8.636,5.044 C9.229,4.984 9.788,5.072 10.263,5.3 C11.061,5.684 11.71,6.476 11.902,7.301 C11.987,7.665 11.987,8.335 11.902,8.699 C11.661,9.734 10.734,10.661 9.699,10.902 C9.335,10.987 8.665,10.987 8.301,10.902 C7.266,10.661 6.34,9.734 6.098,8.699 C6.012,8.332 6.012,7.663 6.097,7.301 C6.374,6.128 7.458,5.164 8.636,5.044 Z M17.807,1.044 C17.99,1.01 18.132,1.021 18.36,1.089 C18.549,1.145 20.763,3.338 20.885,3.59 C21.062,3.957 20.96,4.451 20.65,4.723 C20.452,4.897 20.264,4.968 20,4.968 C19.7,4.968 19.522,4.886 19.241,4.617 L19.004,4.392 L18.992,6.306 C18.98,8.215 18.98,8.22 18.887,8.408 C18.712,8.763 18.388,8.968 18,8.968 C17.612,8.968 17.288,8.763 17.113,8.408 C17.02,8.22 17.02,8.215 17.008,6.306 L16.996,4.392 L16.759,4.617 C16.478,4.886 16.3,4.968 16,4.968 C15.615,4.968 15.286,4.762 15.119,4.417 C15.013,4.198 15.003,3.845 15.098,3.618 C15.144,3.508 15.502,3.12 16.272,2.348 C16.881,1.736 17.437,1.2 17.507,1.156 C17.577,1.113 17.712,1.062 17.807,1.044 Z M9.421,7.075 C9.206,6.977 8.794,6.977 8.579,7.075 C8.212,7.241 8.002,7.579 8.002,8 C8.002,8.593 8.407,8.998 9,8.998 C9.305,8.998 9.52,8.914 9.717,8.717 C9.914,8.52 9.998,8.305 9.998,8 C9.998,7.579 9.788,7.241 9.421,7.075 Z"/>
</svg>
