<svg xmlns="http://www.w3.org/2000/svg" viewBox="0 0 24 24">
  <defs/>
  <path d="M13.766,10.233 Q14.717,11.181 15.232,12.422 Q15.748,13.662 15.748,15.006 Q15.748,16.35 15.232,17.59 Q14.717,18.831 13.766,19.779 Q11.784,21.752 8.992,21.755 Q6.193,21.757 4.221,19.777 Q2.249,17.795 2.246,15.003 Q2.244,12.204 4.225,10.232 Q4.518,9.94 4.932,9.941 Q5.347,9.942 5.639,10.235 Q5.931,10.529 5.93,10.943 Q5.929,11.357 5.636,11.65 Q4.245,13.034 4.246,15.001 Q4.248,16.969 5.639,18.365 Q7.024,19.756 8.991,19.755 Q10.958,19.753 12.354,18.363 Q13.023,17.696 13.385,16.823 Q13.748,15.951 13.748,15.006 Q13.748,14.061 13.385,13.189 Q13.023,12.316 12.354,11.649 Q12.061,11.357 12.06,10.943 Q12.059,10.528 12.352,10.235 Q12.644,9.942 13.059,9.941 Q13.473,9.94 13.766,10.233 Z"/>
  <path opacity="0.4" d="M9.883,14.116 Q7.835,12.068 7.835,9.168 Q7.835,6.269 9.881,4.213 Q11.928,2.158 14.832,2.16 Q17.729,2.163 19.786,4.21 Q21.841,6.257 21.839,9.161 Q21.836,12.058 19.789,14.115 Q19.496,14.408 19.082,14.409 Q18.668,14.41 18.374,14.118 Q18.081,13.825 18.08,13.411 Q18.079,12.997 18.371,12.703 Q19.837,11.231 19.839,9.159 Q19.84,7.087 18.374,5.628 Q16.902,4.162 14.83,4.16 Q12.758,4.159 11.299,5.625 Q9.835,7.094 9.835,9.168 Q9.835,11.24 11.297,12.702 Q11.59,12.995 11.59,13.409 Q11.59,13.823 11.297,14.116 Q11.004,14.409 10.59,14.409 Q10.176,14.409 9.883,14.116 Z"/>
</svg>
