<svg xmlns="http://www.w3.org/2000/svg" viewBox="0 0 24 24">
  <defs/>
  <path d="M4.44,9.582 C5.31,9.396 6.114,9.632 6.741,10.259 C7.367,10.885 7.601,11.673 7.42,12.54 C7.234,13.433 6.433,14.234 5.54,14.42 C4.673,14.601 3.885,14.367 3.259,13.741 C2.633,13.115 2.399,12.327 2.58,11.46 C2.764,10.578 3.564,9.77 4.44,9.582 Z M18.44,9.582 C19.31,9.396 20.114,9.632 20.741,10.259 C21.367,10.885 21.601,11.673 21.42,12.54 C21.234,13.433 20.433,14.234 19.54,14.42 C18.673,14.601 17.885,14.367 17.259,13.741 C16.633,13.115 16.399,12.327 16.58,11.46 C16.764,10.578 17.564,9.77 18.44,9.582 Z"/>
  <path opacity="0.4" d="M11.44,9.582 C12.31,9.396 13.114,9.632 13.741,10.259 C14.367,10.885 14.601,11.673 14.42,12.54 C14.234,13.433 13.433,14.234 12.54,14.42 C11.673,14.601 10.885,14.367 10.259,13.741 C9.633,13.115 9.399,12.327 9.58,11.46 C9.764,10.578 10.564,9.77 11.44,9.582 Z"/>
</svg>
