<svg xmlns="http://www.w3.org/2000/svg" viewBox="0 0 24 24">
  <defs/>
  <path d="M19.328,16.75 C19.189,16.75 19.052,16.711 18.934,16.638 C18.815,16.565 18.719,16.46 18.657,16.335 C18.595,16.211 18.568,16.071 18.581,15.933 C18.593,15.794 18.644,15.661 18.728,15.55 C19.492,14.524 19.905,13.279 19.905,12 C19.905,10.721 19.492,9.476 18.728,8.45 C18.608,8.291 18.557,8.091 18.585,7.894 C18.613,7.697 18.719,7.519 18.878,7.4 C19.037,7.281 19.237,7.229 19.434,7.258 C19.631,7.286 19.808,7.391 19.928,7.55 C20.887,8.835 21.405,10.396 21.405,12 C21.405,13.604 20.887,15.165 19.928,16.45 C19.788,16.65 19.558,16.75 19.328,16.75 Z M15.348,3.782 C14.228,3.162 12.798,3.322 11.338,4.232 L8.418,6.062 C8.218,6.182 7.988,6.252 7.758,6.252 L6.328,6.252 C3.908,6.252 2.578,7.582 2.578,10.002 L2.578,14.002 C2.578,16.422 3.908,17.752 6.328,17.752 L7.758,17.752 C7.988,17.752 8.218,17.822 8.418,17.942 L11.338,19.772 C12.218,20.322 13.078,20.592 13.878,20.592 C14.392,20.596 14.898,20.469 15.348,20.222 C16.458,19.602 17.078,18.312 17.078,16.592 L17.078,7.412 C17.078,5.692 16.458,4.402 15.348,3.782 Z"/>
</svg>
