<svg xmlns="http://www.w3.org/2000/svg" viewBox="0 0 24 24">
  <defs/>
  <path d="M10,19 Q6.272,19 3.636,16.364 Q1,13.728 1,10 Q1,6.272 3.636,3.636 Q6.272,1 10,1 Q11.79,1 13.444,1.685 Q15.098,2.37 16.364,3.636 Q17.63,4.902 18.315,6.556 Q19,8.21 19,10 Q19,11.79 18.315,13.444 Q17.63,15.098 16.364,16.364 Q15.098,17.63 13.444,18.315 Q11.79,19 10,19 Z M10,17 Q11.393,17 12.679,16.467 Q13.965,15.934 14.95,14.95 Q15.934,13.965 16.467,12.679 Q17,11.393 17,10 Q17,8.608 16.467,7.321 Q15.934,6.035 14.95,5.05 Q13.965,4.066 12.679,3.533 Q11.392,3 10,3 Q7.101,3 5.05,5.05 Q3,7.1 3,10 Q3,12.9 5.05,14.95 Q7.101,17 10,17 Z"/>
  <path opacity="0.4" d="M19.293,20.707 L17.293,18.707 Q17,18.414 17,18 Q17,17.586 17.293,17.293 Q17.586,17 18,17 Q18.414,17 18.707,17.293 L20.707,19.293 Q21,19.586 21,20 Q21,20.414 20.707,20.707 Q20.414,21 20,21 Q19.586,21 19.293,20.707 Z"/>
</svg>
