<svg xmlns="http://www.w3.org/2000/svg" viewBox="0 0 24 24">
  <defs/>
  <path opacity="0.4" d="M16.92,22 C16.253,22 15.592,21.868 14.976,21.613 C14.359,21.358 13.799,20.983 13.327,20.512 C12.856,20.04 12.481,19.479 12.226,18.863 C11.971,18.247 11.839,17.586 11.839,16.919 C11.84,16.251 11.971,15.591 12.226,14.974 C12.482,14.358 12.856,13.798 13.328,13.326 C13.8,12.854 14.36,12.48 14.976,12.225 C15.593,11.969 16.254,11.838 16.921,11.838 C18.269,11.838 19.561,12.374 20.514,13.326 C21.466,14.28 22.002,15.572 22.002,16.919 C22.001,18.267 21.466,19.559 20.513,20.512 C19.56,21.465 18.268,22 16.92,22 Z M5.02,2 L8.94,2 C11.01,2 12.01,3 11.96,5.02 L11.96,8.94 C12.01,11.01 11.01,12.01 8.94,11.96 L5.02,11.96 C3,12 2,11 2,8.93 L2,5.01 C2,3 3,2 5.02,2 Z"/>
  <path d="M9.01,8.262 C8.7,8.262 8.41,8.142 8.14,7.942 C8.39,7.542 8.57,7.092 8.66,6.602 L9,6.602 C9.41,6.602 9.75,6.262 9.75,5.852 C9.75,5.442 9.41,5.102 9,5.102 L7.71,5.102 C7.693,4.917 7.608,4.745 7.471,4.619 C7.334,4.494 7.156,4.423 6.97,4.422 C6.58,4.422 6.27,4.722 6.23,5.102 L4.94,5.102 C4.53,5.102 4.19,5.442 4.19,5.852 C4.19,6.262 4.53,6.602 4.94,6.602 L7.11,6.602 C6.81,7.562 5.95,8.262 4.93,8.262 C4.52,8.262 4.18,8.602 4.18,9.012 C4.18,9.422 4.52,9.762 4.93,9.762 C5.715,9.759 6.478,9.507 7.11,9.042 C7.66,9.502 8.32,9.762 9,9.762 C9.41,9.762 9.75,9.422 9.75,9.012 C9.75,8.602 9.42,8.262 9.01,8.262 Z M9,22.75 C4.73,22.75 1.25,19.27 1.25,15 C1.25,14.59 1.59,14.25 2,14.25 C2.41,14.25 2.75,14.59 2.75,15 C2.75,17.96 4.81,20.44 7.58,21.09 L7.31,20.64 C7.208,20.469 7.178,20.264 7.227,20.071 C7.275,19.878 7.399,19.712 7.57,19.61 C7.741,19.508 7.946,19.478 8.139,19.527 C8.332,19.575 8.498,19.699 8.6,19.87 L9.65,21.62 C9.79,21.85 9.79,22.14 9.66,22.37 C9.52,22.6 9.27,22.75 9,22.75 Z M21.998,9.75 C21.588,9.75 21.248,9.41 21.248,9 C21.248,6.04 19.188,3.56 16.418,2.91 L16.688,3.36 C16.739,3.445 16.772,3.539 16.786,3.636 C16.8,3.734 16.796,3.833 16.771,3.929 C16.747,4.024 16.704,4.114 16.645,4.194 C16.587,4.273 16.513,4.339 16.428,4.39 C16.343,4.441 16.25,4.474 16.152,4.488 C16.054,4.503 15.955,4.497 15.859,4.473 C15.764,4.449 15.674,4.406 15.594,4.348 C15.515,4.289 15.449,4.215 15.398,4.13 L14.348,2.38 C14.28,2.267 14.243,2.138 14.242,2.006 C14.24,1.875 14.273,1.745 14.338,1.63 C14.468,1.39 14.718,1.25 14.988,1.25 C19.258,1.25 22.738,4.73 22.738,9 C22.739,9.098 22.721,9.195 22.685,9.286 C22.648,9.377 22.594,9.46 22.525,9.53 C22.456,9.6 22.374,9.655 22.284,9.693 C22.193,9.731 22.096,9.75 21.998,9.75 Z M19.73,18.33 L17.59,14.06 C17.527,13.936 17.431,13.831 17.313,13.757 C17.195,13.684 17.059,13.643 16.92,13.64 C16.782,13.641 16.646,13.68 16.528,13.752 C16.41,13.824 16.314,13.927 16.25,14.05 L14.11,18.32 C13.92,18.69 14.07,19.14 14.45,19.33 C14.553,19.38 14.665,19.407 14.78,19.41 C15.05,19.41 15.32,19.26 15.45,19 L15.62,18.66 L18.21,18.66 L18.38,19 C18.57,19.37 19.02,19.52 19.39,19.34 C19.77,19.15 19.92,18.7 19.73,18.33 Z M16.38,17.16 L16.93,16.07 L17.48,17.16 L16.38,17.16 Z"/>
</svg>
