<svg xmlns="http://www.w3.org/2000/svg" viewBox="0 0 24 24">
  <defs/>
  <path opacity="0.4" d="M8,17 L8,13.414 L7.707,13.707 Q7.414,14 7,14 Q6.586,14 6.293,13.707 Q6,13.414 6,13 Q6,12.586 6.293,12.293 L8.293,10.293 Q8.586,10 9,10 Q9.362,10 9.632,10.224 Q9.67,10.256 9.707,10.293 L11.707,12.293 Q12,12.586 12,13 Q12,13.414 11.707,13.707 Q11.414,14 11,14 Q10.586,14 10.293,13.707 L10,13.414 L10,17 Q10,17.414 9.707,17.707 Q9.414,18 9,18 Q8.586,18 8.293,17.707 Q8,17.414 8,17 Z"/>
  <path d="M23,10 L23,15 Q23,23 15,23 L9,23 Q1,23 1,15 L1,9 Q1,1 9,1 L14,1 Q14.414,1 14.707,1.293 Q15,1.586 15,2 Q15,2.414 14.707,2.707 Q14.414,3 14,3 L9,3 Q3,3 3,9 L3,15 Q3,21 9,21 L15,21 Q21,21 21,15 L21,10 Q21,9.586 21.293,9.293 Q21.586,9 22,9 Q22.414,9 22.707,9.293 Q23,9.586 23,10 Z"/>
  <path d="M22,11 L18,11 Q13,11 13,6 L13,2 Q13,1.586 13.293,1.293 Q13.586,1 14,1 Q14.414,1 14.707,1.293 L22.707,9.293 Q23,9.586 23,10 Q23,10.414 22.707,10.707 Q22.414,11 22,11 Z M19.586,9 L15,4.414 L15,6 Q15,9 18,9 L19.586,9 Z"/>
</svg>
