<svg xmlns="http://www.w3.org/2000/svg" viewBox="0 0 16 16">
  <defs/>
  <path fill="#4285F4" d="M15.68,8.182 C15.68,7.614 15.629,7.069 15.534,6.545 L8,6.545 L8,9.64 L12.305,9.64 C12.12,10.64 11.556,11.487 10.709,12.055 L10.709,14.062 L13.294,14.062 C14.807,12.669 15.68,10.618 15.68,8.182 Z"/>
  <path fill="#34A853" d="M8,16 C10.16,16 11.971,15.284 13.294,14.062 L10.709,12.055 C9.993,12.535 9.076,12.818 8,12.818 C5.916,12.818 4.153,11.411 3.524,9.52 L0.851,9.52 L0.851,11.593 C2.167,14.207 4.873,16 8,16 Z"/>
  <path fill="#FBBC05" d="M3.524,9.52 C3.364,9.04 3.273,8.527 3.273,8 C3.273,7.473 3.364,6.96 3.524,6.48 L3.524,4.407 L0.851,4.407 C0.309,5.487 0,6.709 0,8 C0,9.291 0.309,10.513 0.851,11.593 L3.524,9.52 Z"/>
  <path fill="#EA4335" d="M8,3.182 C9.175,3.182 10.229,3.585 11.058,4.378 L13.353,2.084 C11.967,0.793 10.156,0 8,0 C4.873,0 2.167,1.793 0.851,4.407 L3.524,6.48 C4.153,4.589 5.916,3.182 8,3.182 Z"/>
</svg>
