<svg xmlns="http://www.w3.org/2000/svg" viewBox="0 0 19 16">
  <defs/>
  <path fill="#07C160" d="M6.88,0 C3.08,0 0,2.681 0,5.986 C0,7.79 0.926,9.413 2.377,10.511 C2.457,10.571 2.517,10.656 2.547,10.754 C2.577,10.851 2.577,10.956 2.545,11.053 L2.236,12.26 C2.221,12.317 2.198,12.375 2.198,12.434 C2.198,12.567 2.301,12.674 2.428,12.674 C2.475,12.672 2.521,12.657 2.56,12.63 L4.067,11.722 C4.15,11.667 4.244,11.632 4.342,11.618 C4.44,11.604 4.54,11.612 4.634,11.642 C5.364,11.86 6.12,11.971 6.88,11.971 C7.099,11.971 7.31,11.949 7.522,11.93 C6.844,9.828 7.647,7.876 9.052,6.674 C10.4,5.521 12.125,5.06 13.685,5.176 C13.229,2.254 10.364,0 6.88,0 Z M4.58,3.101 C5.088,3.101 5.5,3.532 5.5,4.063 C5.501,4.188 5.477,4.312 5.432,4.428 C5.386,4.544 5.318,4.65 5.233,4.739 C5.147,4.828 5.046,4.899 4.934,4.948 C4.822,4.997 4.701,5.022 4.58,5.023 C4.458,5.022 4.338,4.997 4.226,4.948 C4.114,4.899 4.012,4.828 3.926,4.739 C3.841,4.65 3.773,4.544 3.728,4.428 C3.682,4.312 3.659,4.187 3.66,4.062 C3.66,3.531 4.072,3.1 4.58,3.1 L4.58,3.101 Z M9.182,3.101 C9.69,3.101 10.102,3.532 10.102,4.063 C10.102,4.188 10.079,4.312 10.034,4.428 C9.988,4.544 9.92,4.65 9.835,4.739 C9.749,4.828 9.648,4.899 9.536,4.948 C9.424,4.997 9.303,5.022 9.182,5.023 C9.06,5.022 8.94,4.997 8.828,4.948 C8.716,4.899 8.614,4.828 8.529,4.739 C8.443,4.65 8.376,4.544 8.33,4.428 C8.284,4.312 8.261,4.188 8.262,4.063 C8.262,3.532 8.674,3.101 9.182,3.101 Z M13.409,5.438 C11.987,5.396 10.444,5.856 9.229,6.894 C7.868,8.059 7.102,9.927 7.82,11.966 C8.566,13.966 10.722,15.414 13.27,15.414 C13.924,15.414 14.554,15.316 15.139,15.14 C15.218,15.115 15.301,15.108 15.383,15.12 C15.465,15.131 15.543,15.161 15.613,15.207 L16.866,15.962 C16.899,15.985 16.938,15.998 16.977,16 C17.083,16 17.167,15.909 17.167,15.799 C17.167,15.75 17.149,15.701 17.137,15.654 L16.878,14.649 C16.867,14.608 16.861,14.565 16.86,14.522 C16.86,14.459 16.874,14.396 16.902,14.34 C16.929,14.283 16.97,14.235 17.019,14.197 C18.227,13.283 19,11.93 19,10.43 C19,7.812 16.68,5.671 13.731,5.466 L13.731,5.464 C13.624,5.456 13.517,5.442 13.409,5.44 L13.409,5.438 Z M11.406,8.108 C11.83,8.108 12.174,8.466 12.174,8.908 C12.174,9.013 12.155,9.116 12.117,9.213 C12.079,9.31 12.022,9.398 11.951,9.473 C11.88,9.547 11.795,9.606 11.702,9.647 C11.608,9.688 11.508,9.709 11.406,9.71 C11.305,9.709 11.204,9.688 11.111,9.647 C11.018,9.606 10.933,9.547 10.862,9.473 C10.79,9.398 10.734,9.31 10.696,9.213 C10.658,9.116 10.639,9.013 10.639,8.908 C10.639,8.466 10.983,8.108 11.407,8.108 L11.406,8.108 Z M15.241,8.108 C15.665,8.108 16.008,8.466 16.008,8.908 C16.009,9.013 15.99,9.116 15.952,9.213 C15.913,9.31 15.857,9.398 15.786,9.473 C15.715,9.547 15.63,9.606 15.536,9.647 C15.443,9.688 15.343,9.709 15.241,9.71 C15.14,9.709 15.039,9.688 14.946,9.647 C14.852,9.606 14.768,9.547 14.696,9.473 C14.625,9.398 14.569,9.31 14.531,9.213 C14.493,9.116 14.473,9.013 14.474,8.908 C14.474,8.466 14.818,8.108 15.241,8.108 Z"/>
</svg>
