<svg viewBox="0 0 921 571" fill="none" xmlns="http://www.w3.org/2000/svg">
  <path
    d="M418.464 331.032C416.672 331.032 415.232 330.872 414.144 330.552L415.104 324.36C416 324.584 416.976 324.696 418.032 324.696C419.216 324.696 420.208 324.344 421.008 323.64C421.84 322.968 422.448 322.056 422.832 320.904L423.168 319.848L413.28 296.04H421.104L425.952 310.296C426.4 311.512 426.752 312.84 427.008 314.28C427.264 312.84 427.616 311.512 428.064 310.296L432.912 296.04H440.592L429.552 322.584C428.4 325.304 426.944 327.384 425.184 328.824C423.456 330.296 421.216 331.032 418.464 331.032ZM444.195 296.04H450.675V321H444.195V296.04ZM443.523 290.136C443.523 289.08 443.891 288.184 444.627 287.448C445.395 286.712 446.323 286.344 447.411 286.344C448.531 286.344 449.459 286.712 450.195 287.448C450.931 288.184 451.299 289.08 451.299 290.136C451.299 291.224 450.931 292.136 450.195 292.872C449.459 293.608 448.531 293.976 447.411 293.976C446.323 293.976 445.395 293.608 444.627 292.872C443.891 292.104 443.523 291.192 443.523 290.136ZM454.363 296.04H461.947L465.163 310.2C465.515 311.64 465.771 312.904 465.931 313.992C466.155 312.616 466.427 311.336 466.747 310.152L470.395 296.04H477.835L481.724 310.152C482.044 311.336 482.316 312.616 482.539 313.992C482.7 312.904 482.956 311.64 483.308 310.2L486.764 296.04H493.819L486.043 321H479.036L474.955 306.792C474.571 305.64 474.284 304.392 474.092 303.048C473.868 304.52 473.612 305.768 473.324 306.792L469.58 321H462.139L454.363 296.04ZM508.384 321.624C505.856 321.624 503.616 321.048 501.664 319.896C499.712 318.712 498.192 317.128 497.104 315.144C496.016 313.16 495.472 310.968 495.472 308.568C495.472 306.2 496.032 304.008 497.152 301.992C498.272 299.976 499.808 298.376 501.76 297.192C503.744 296.008 505.952 295.416 508.384 295.416C510.816 295.416 512.992 296.008 514.912 297.192C516.864 298.376 518.368 299.976 519.424 301.992C520.512 303.976 521.056 306.168 521.056 308.568C521.056 309.368 520.992 310.136 520.864 310.872H502.192C502.576 312.376 503.296 313.592 504.352 314.52C505.44 315.416 506.784 315.864 508.384 315.864C509.728 315.864 510.928 315.56 511.984 314.952C513.04 314.312 513.872 313.496 514.48 312.504L519.52 316.296C518.496 317.896 516.992 319.192 515.008 320.184C513.024 321.144 510.816 321.624 508.384 321.624ZM514.528 306.024C514.144 304.584 513.392 303.384 512.272 302.424C511.152 301.464 509.824 300.984 508.288 300.984C506.784 300.984 505.472 301.448 504.352 302.376C503.264 303.304 502.544 304.52 502.192 306.024H514.528ZM526.301 296.04H532.685V299.688C533.997 296.872 536.541 295.464 540.317 295.464C542.109 295.464 543.725 295.896 545.165 296.76C546.605 297.592 547.741 298.792 548.573 300.36C549.405 301.896 549.821 303.688 549.821 305.736V321H543.341V307.32C543.341 305.24 542.861 303.688 541.901 302.664C540.941 301.64 539.629 301.128 537.965 301.128C536.493 301.128 535.261 301.656 534.269 302.712C533.277 303.736 532.781 305.272 532.781 307.32V321H526.301V296.04ZM559.298 321.624C558.082 321.624 557.058 321.208 556.226 320.376C555.394 319.544 554.978 318.552 554.978 317.4C554.978 316.248 555.394 315.272 556.226 314.472C557.058 313.64 558.082 313.224 559.298 313.224C560.514 313.224 561.522 313.64 562.322 314.472C563.154 315.272 563.57 316.248 563.57 317.4C563.57 318.584 563.154 319.592 562.322 320.424C561.522 321.224 560.514 321.624 559.298 321.624ZM579.368 321.624C577.128 321.624 575.064 321.048 573.176 319.896C571.288 318.712 569.784 317.128 568.664 315.144C567.576 313.16 567.032 310.984 567.032 308.616C567.032 306.248 567.576 304.072 568.664 302.088C569.784 300.072 571.288 298.472 573.176 297.288C575.064 296.104 577.128 295.512 579.368 295.512C581.416 295.512 583.064 295.896 584.312 296.664C585.592 297.432 586.584 298.536 587.288 299.976V296.04H593.72V321H587.432V316.92C586.696 318.424 585.688 319.592 584.408 320.424C583.16 321.224 581.48 321.624 579.368 321.624ZM573.512 308.568C573.512 309.848 573.8 311.048 574.376 312.168C574.984 313.256 575.8 314.136 576.824 314.808C577.88 315.448 579.08 315.768 580.424 315.768C581.8 315.768 583.016 315.448 584.072 314.808C585.16 314.168 585.992 313.304 586.568 312.216C587.144 311.128 587.432 309.928 587.432 308.616C587.432 307.304 587.144 306.104 586.568 305.016C585.992 303.896 585.16 303.016 584.072 302.376C583.016 301.704 581.8 301.368 580.424 301.368C579.08 301.368 577.88 301.704 576.824 302.376C575.768 303.016 574.952 303.88 574.376 304.968C573.8 306.056 573.512 307.256 573.512 308.568ZM599.97 296.04H606.45V321H599.97V296.04ZM599.298 290.136C599.298 289.08 599.666 288.184 600.402 287.448C601.17 286.712 602.098 286.344 603.186 286.344C604.306 286.344 605.234 286.712 605.97 287.448C606.706 288.184 607.074 289.08 607.074 290.136C607.074 291.224 606.706 292.136 605.97 292.872C605.234 293.608 604.306 293.976 603.186 293.976C602.098 293.976 601.17 293.608 600.402 292.872C599.666 292.104 599.298 291.192 599.298 290.136Z"
    fill="#988BFF" />
  <path
    d="M414.144 330.552L413.156 330.399L413.022 331.264L413.862 331.511L414.144 330.552ZM415.104 324.36L415.347 323.39L414.284 323.124L414.116 324.207L415.104 324.36ZM421.008 323.64L420.38 322.862L420.363 322.875L420.347 322.889L421.008 323.64ZM422.832 320.904L423.781 321.22L423.785 321.207L422.832 320.904ZM423.168 319.848L424.121 320.151L424.232 319.802L424.092 319.464L423.168 319.848ZM413.28 296.04V295.04H411.782L412.356 296.424L413.28 296.04ZM421.104 296.04L422.051 295.718L421.82 295.04H421.104V296.04ZM425.952 310.296L425.005 310.618L425.009 310.63L425.014 310.642L425.952 310.296ZM427.008 314.28L426.023 314.455H427.993L427.008 314.28ZM428.064 310.296L429.002 310.642L429.007 310.63L429.011 310.618L428.064 310.296ZM432.912 296.04V295.04H432.196L431.965 295.718L432.912 296.04ZM440.592 296.04L441.515 296.424L442.091 295.04H440.592V296.04ZM429.552 322.584L430.473 322.974L430.475 322.968L429.552 322.584ZM425.184 328.824L424.551 328.05L424.543 328.056L424.536 328.063L425.184 328.824ZM418.464 330.032C416.719 330.032 415.385 329.875 414.426 329.593L413.862 331.511C415.079 331.869 416.625 332.032 418.464 332.032V330.032ZM415.132 330.705L416.092 324.513L414.116 324.207L413.156 330.399L415.132 330.705ZM414.861 325.33C415.847 325.577 416.906 325.696 418.032 325.696V323.696C417.046 323.696 416.153 323.591 415.347 323.39L414.861 325.33ZM418.032 325.696C419.43 325.696 420.665 325.274 421.669 324.391L420.347 322.889C419.751 323.414 419.002 323.696 418.032 323.696V325.696ZM421.636 324.418C422.636 323.61 423.345 322.528 423.781 321.22L421.883 320.588C421.551 321.584 421.044 322.326 420.38 322.862L421.636 324.418ZM423.785 321.207L424.121 320.151L422.215 319.545L421.879 320.601L423.785 321.207ZM424.092 319.464L414.204 295.656L412.356 296.424L422.244 320.232L424.092 319.464ZM413.28 297.04H421.104V295.04H413.28V297.04ZM420.157 296.362L425.005 310.618L426.899 309.974L422.051 295.718L420.157 296.362ZM425.014 310.642C425.439 311.796 425.776 313.066 426.023 314.455L427.993 314.105C427.728 312.614 427.361 311.228 426.89 309.95L425.014 310.642ZM427.993 314.455C428.24 313.066 428.577 311.796 429.002 310.642L427.126 309.95C426.655 311.228 426.288 312.614 426.023 314.105L427.993 314.455ZM429.011 310.618L433.859 296.362L431.965 295.718L427.117 309.974L429.011 310.618ZM432.912 297.04H440.592V295.04H432.912V297.04ZM439.669 295.656L428.629 322.2L430.475 322.968L441.515 296.424L439.669 295.656ZM428.631 322.194C427.524 324.808 426.153 326.739 424.551 328.05L425.817 329.598C427.735 328.029 429.276 325.8 430.473 322.974L428.631 322.194ZM424.536 328.063C423.025 329.35 421.031 330.032 418.464 330.032V332.032C421.401 332.032 423.887 331.242 425.832 329.585L424.536 328.063ZM444.195 296.04V295.04H443.195V296.04H444.195ZM450.675 296.04H451.675V295.04H450.675V296.04ZM450.675 321V322H451.675V321H450.675ZM444.195 321H443.195V322H444.195V321ZM444.627 287.448L443.935 286.726L443.927 286.733L443.92 286.741L444.627 287.448ZM444.627 292.872L443.905 293.564L443.92 293.579L443.935 293.594L444.627 292.872ZM444.195 297.04H450.675V295.04H444.195V297.04ZM449.675 296.04V321H451.675V296.04H449.675ZM450.675 320H444.195V322H450.675V320ZM445.195 321V296.04H443.195V321H445.195ZM444.523 290.136C444.523 289.341 444.789 288.701 445.334 288.155L443.92 286.741C442.993 287.667 442.523 288.819 442.523 290.136H444.523ZM445.319 288.17C445.896 287.617 446.574 287.344 447.411 287.344V285.344C446.072 285.344 444.894 285.807 443.935 286.726L445.319 288.17ZM447.411 287.344C448.288 287.344 448.955 287.622 449.488 288.155L450.902 286.741C449.963 285.802 448.774 285.344 447.411 285.344V287.344ZM449.488 288.155C450.033 288.701 450.299 289.341 450.299 290.136H452.299C452.299 288.819 451.829 287.667 450.902 286.741L449.488 288.155ZM450.299 290.136C450.299 290.972 450.027 291.626 449.488 292.165L450.902 293.579C451.835 292.646 452.299 291.476 452.299 290.136H450.299ZM449.488 292.165C448.955 292.698 448.288 292.976 447.411 292.976V294.976C448.774 294.976 449.963 294.518 450.902 293.579L449.488 292.165ZM447.411 292.976C446.574 292.976 445.896 292.703 445.319 292.15L443.935 293.594C444.894 294.513 446.072 294.976 447.411 294.976V292.976ZM445.349 292.18C444.79 291.597 444.523 290.932 444.523 290.136H442.523C442.523 291.452 442.992 292.611 443.905 293.564L445.349 292.18ZM454.363 296.04V295.04H453.005L453.409 296.337L454.363 296.04ZM461.947 296.04L462.923 295.819L462.746 295.04H461.947V296.04ZM465.163 310.2L464.188 310.421L464.19 310.429L464.192 310.437L465.163 310.2ZM465.931 313.992L464.942 314.137L466.919 314.153L465.931 313.992ZM466.747 310.152L467.713 310.413L467.716 310.402L466.747 310.152ZM470.396 296.04V295.04H469.621L469.427 295.79L470.396 296.04ZM477.835 296.04L478.8 295.774L478.597 295.04H477.835V296.04ZM481.724 310.152L482.689 309.891L482.688 309.886L481.724 310.152ZM482.539 313.992L481.552 314.153L483.529 314.137L482.539 313.992ZM483.308 310.2L484.279 310.437L484.279 310.437L483.308 310.2ZM486.764 296.04V295.04H485.978L485.792 295.803L486.764 296.04ZM493.82 296.04L494.774 296.337L495.178 295.04H493.82V296.04ZM486.044 321V322H486.779L486.998 321.297L486.044 321ZM479.035 321L478.074 321.276L478.282 322H479.035V321ZM474.955 306.792L475.917 306.516L475.911 306.496L475.904 306.476L474.955 306.792ZM474.091 303.048L475.081 302.907L473.103 302.898L474.091 303.048ZM473.324 306.792L472.361 306.521L472.359 306.529L472.357 306.537L473.324 306.792ZM469.579 321V322H470.35L470.546 321.255L469.579 321ZM462.139 321L461.185 321.297L461.404 322H462.139V321ZM454.363 297.04H461.947V295.04H454.363V297.04ZM460.972 296.261L464.188 310.421L466.139 309.979L462.923 295.819L460.972 296.261ZM464.192 310.437C464.539 311.857 464.788 313.089 464.942 314.137L466.921 313.847C466.755 312.719 466.492 311.423 466.135 309.963L464.192 310.437ZM466.919 314.153C467.138 312.806 467.403 311.56 467.713 310.413L465.782 309.891C465.452 311.112 465.173 312.426 464.944 313.831L466.919 314.153ZM467.716 310.402L471.364 296.29L469.427 295.79L465.779 309.902L467.716 310.402ZM470.396 297.04H477.835V295.04H470.396V297.04ZM476.871 296.306L480.759 310.418L482.688 309.886L478.8 295.774L476.871 296.306ZM480.758 310.413C481.068 311.56 481.333 312.806 481.552 314.153L483.527 313.831C483.298 312.426 483.019 311.112 482.689 309.891L480.758 310.413ZM483.529 314.137C483.683 313.089 483.932 311.857 484.279 310.437L482.336 309.963C481.979 311.423 481.716 312.719 481.55 313.847L483.529 314.137ZM484.279 310.437L487.735 296.277L485.792 295.803L482.336 309.963L484.279 310.437ZM486.764 297.04H493.82V295.04H486.764V297.04ZM492.865 295.743L485.089 320.703L486.998 321.297L494.774 296.337L492.865 295.743ZM486.044 320H479.035V322H486.044V320ZM479.997 320.724L475.917 306.516L473.994 307.068L478.074 321.276L479.997 320.724ZM475.904 306.476C475.541 305.387 475.266 304.198 475.081 302.907L473.102 303.189C473.301 304.586 473.602 305.893 474.007 307.108L475.904 306.476ZM473.103 302.898C472.883 304.344 472.634 305.549 472.361 306.521L474.286 307.063C474.589 305.987 474.852 304.696 475.08 303.198L473.103 302.898ZM472.357 306.537L468.613 320.745L470.546 321.255L474.29 307.047L472.357 306.537ZM469.579 320H462.139V322H469.579V320ZM463.094 320.703L455.318 295.743L453.409 296.337L461.185 321.297L463.094 320.703ZM501.664 319.896L501.146 320.751L501.156 320.757L501.664 319.896ZM497.104 315.144L496.228 315.625L497.104 315.144ZM497.152 301.992L496.278 301.506L497.152 301.992ZM501.76 297.192L501.248 296.333L501.242 296.337L501.76 297.192ZM514.912 297.192L514.388 298.043L514.394 298.047L514.912 297.192ZM519.424 301.992L518.539 302.456L518.543 302.464L518.548 302.473L519.424 301.992ZM520.865 310.872V311.872H521.706L521.85 311.043L520.865 310.872ZM502.192 310.872V309.872H500.905L501.224 311.119L502.192 310.872ZM504.353 314.52L503.692 315.271L503.704 315.282L503.717 315.292L504.353 314.52ZM511.984 314.952L512.483 315.819L512.493 315.813L512.503 315.807L511.984 314.952ZM514.48 312.504L515.082 311.705L514.203 311.044L513.628 311.981L514.48 312.504ZM519.521 316.296L520.363 316.835L520.862 316.054L520.122 315.497L519.521 316.296ZM515.008 320.184L515.444 321.084L515.456 321.078L515.008 320.184ZM514.528 306.024V307.024H515.83L515.495 305.766L514.528 306.024ZM512.272 302.424L511.622 303.183L512.272 302.424ZM504.353 302.376L503.714 301.606L503.709 301.611L503.704 301.615L504.353 302.376ZM502.192 306.024L501.219 305.796L500.931 307.024H502.192V306.024ZM508.384 320.624C506.014 320.624 503.954 320.086 502.173 319.035L501.156 320.757C503.279 322.01 505.699 322.624 508.384 322.624V320.624ZM502.183 319.041C500.38 317.947 498.984 316.492 497.981 314.663L496.228 315.625C497.401 317.764 499.045 319.477 501.146 320.751L502.183 319.041ZM497.981 314.663C496.979 312.836 496.472 310.81 496.472 308.568H494.472C494.472 311.126 495.054 313.484 496.228 315.625L497.981 314.663ZM496.472 308.568C496.472 306.365 496.991 304.341 498.027 302.478L496.278 301.506C495.074 303.675 494.472 306.035 494.472 308.568H496.472ZM498.027 302.478C499.063 300.612 500.477 299.14 502.279 298.047L501.242 296.337C499.14 297.612 497.482 299.34 496.278 301.506L498.027 302.478ZM502.273 298.051C504.094 296.964 506.123 296.416 508.384 296.416V294.416C505.782 294.416 503.395 295.052 501.248 296.333L502.273 298.051ZM508.384 296.416C510.646 296.416 512.638 296.964 514.388 298.043L515.437 296.341C513.347 295.052 510.987 294.416 508.384 294.416V296.416ZM514.394 298.047C516.191 299.137 517.567 300.602 518.539 302.456L520.31 301.528C519.17 299.35 517.538 297.615 515.431 296.337L514.394 298.047ZM518.548 302.473C519.55 304.3 520.056 306.326 520.056 308.568H522.056C522.056 306.01 521.475 303.652 520.301 301.511L518.548 302.473ZM520.056 308.568C520.056 309.315 519.997 310.025 519.879 310.701L521.85 311.043C521.988 310.247 522.056 309.421 522.056 308.568H520.056ZM520.865 309.872H502.192V311.872H520.865V309.872ZM501.224 311.119C501.652 312.797 502.469 314.196 503.692 315.271L505.013 313.769C504.124 312.988 503.501 311.955 503.161 310.625L501.224 311.119ZM503.717 315.292C505.008 316.355 506.586 316.864 508.384 316.864V314.864C506.983 314.864 505.873 314.477 504.988 313.748L503.717 315.292ZM508.384 316.864C509.885 316.864 511.26 316.523 512.483 315.819L511.486 314.085C510.597 314.597 509.572 314.864 508.384 314.864V316.864ZM512.503 315.807C513.687 315.09 514.637 314.163 515.333 313.027L513.628 311.981C513.108 312.829 512.394 313.534 511.466 314.097L512.503 315.807ZM513.879 313.303L518.919 317.095L520.122 315.497L515.082 311.705L513.879 313.303ZM518.678 315.757C517.767 317.181 516.411 318.365 514.561 319.29L515.456 321.078C517.574 320.019 519.226 318.611 520.363 316.835L518.678 315.757ZM514.573 319.284C512.738 320.172 510.681 320.624 508.384 320.624V322.624C510.952 322.624 513.311 322.116 515.444 321.084L514.573 319.284ZM515.495 305.766C515.059 304.133 514.198 302.758 512.923 301.665L511.622 303.183C512.587 304.01 513.23 305.035 513.562 306.282L515.495 305.766ZM512.923 301.665C511.614 300.543 510.052 299.984 508.288 299.984V301.984C509.597 301.984 510.691 302.385 511.622 303.183L512.923 301.665ZM508.288 299.984C506.56 299.984 505.02 300.524 503.714 301.606L504.991 303.146C505.925 302.372 507.009 301.984 508.288 301.984V299.984ZM503.704 301.615C502.44 302.693 501.615 304.102 501.219 305.796L503.166 306.252C503.474 304.938 504.089 303.915 505.001 303.137L503.704 301.615ZM502.192 307.024H514.528V305.024H502.192V307.024ZM526.301 296.04V295.04H525.301V296.04H526.301ZM532.685 296.04H533.685V295.04H532.685V296.04ZM532.685 299.688H531.685L533.592 300.11L532.685 299.688ZM545.165 296.76L544.651 297.617L544.658 297.622L544.665 297.626L545.165 296.76ZM548.573 300.36L547.69 300.829L547.694 300.836L548.573 300.36ZM549.821 321V322H550.821V321H549.821ZM543.341 321H542.341V322H543.341V321ZM534.269 302.712L534.987 303.408L534.993 303.402L534.998 303.397L534.269 302.712ZM532.781 321V322H533.781V321H532.781ZM526.301 321H525.301V322H526.301V321ZM526.301 297.04H532.685V295.04H526.301V297.04ZM531.685 296.04V299.688H533.685V296.04H531.685ZM533.592 300.11C534.165 298.88 534.988 297.989 536.061 297.395C537.147 296.794 538.549 296.464 540.317 296.464V294.464C538.309 294.464 536.551 294.838 535.093 295.645C533.623 296.459 532.518 297.68 531.779 299.266L533.592 300.11ZM540.317 296.464C541.941 296.464 543.377 296.853 544.651 297.617L545.68 295.903C544.074 294.939 542.278 294.464 540.317 294.464V296.464ZM544.665 297.626C545.932 298.358 546.94 299.415 547.69 300.829L549.457 299.891C548.543 298.169 547.279 296.826 545.666 295.894L544.665 297.626ZM547.694 300.836C548.434 302.203 548.821 303.826 548.821 305.736H550.821C550.821 303.55 550.376 301.589 549.453 299.884L547.694 300.836ZM548.821 305.736V321H550.821V305.736H548.821ZM549.821 320H543.341V322H549.821V320ZM544.341 321V307.32H542.341V321H544.341ZM544.341 307.32C544.341 305.106 543.832 303.262 542.631 301.98L541.172 303.348C541.89 304.114 542.341 305.374 542.341 307.32H544.341ZM542.631 301.98C541.447 300.717 539.85 300.128 537.965 300.128V302.128C539.409 302.128 540.436 302.563 541.172 303.348L542.631 301.98ZM537.965 300.128C536.222 300.128 534.725 300.767 533.54 302.027L534.998 303.397C535.798 302.545 536.764 302.128 537.965 302.128V300.128ZM533.551 302.016C532.312 303.295 531.781 305.126 531.781 307.32H533.781C533.781 305.418 534.242 304.177 534.987 303.408L533.551 302.016ZM531.781 307.32V321H533.781V307.32H531.781ZM532.781 320H526.301V322H532.781V320ZM527.301 321V296.04H525.301V321H527.301ZM556.226 320.376L555.519 321.083L556.226 320.376ZM556.226 314.472L556.919 315.193L556.926 315.186L556.933 315.179L556.226 314.472ZM562.322 314.472L561.601 315.165L561.615 315.179L561.629 315.193L562.322 314.472ZM562.322 320.424L563.029 321.131L562.322 320.424ZM559.298 320.624C558.337 320.624 557.571 320.306 556.933 319.669L555.519 321.083C556.545 322.11 557.827 322.624 559.298 322.624V320.624ZM556.933 319.669C556.284 319.02 555.978 318.28 555.978 317.4H553.978C553.978 318.824 554.504 320.068 555.519 321.083L556.933 319.669ZM555.978 317.4C555.978 316.521 556.283 315.805 556.919 315.193L555.533 313.751C554.505 314.739 553.978 315.975 553.978 317.4H555.978ZM556.933 315.179C557.571 314.542 558.337 314.224 559.298 314.224V312.224C557.827 312.224 556.545 312.738 555.519 313.765L556.933 315.179ZM559.298 314.224C560.258 314.224 561.001 314.541 561.601 315.165L563.043 313.779C562.043 312.739 560.77 312.224 559.298 312.224V314.224ZM561.629 315.193C562.265 315.805 562.57 316.521 562.57 317.4H564.57C564.57 315.975 564.043 314.739 563.015 313.751L561.629 315.193ZM562.57 317.4C562.57 318.321 562.258 319.074 561.615 319.717L563.029 321.131C564.05 320.11 564.57 318.847 564.57 317.4H562.57ZM561.615 319.717C561.017 320.314 560.271 320.624 559.298 320.624V322.624C560.757 322.624 562.026 322.134 563.029 321.131L561.615 319.717ZM573.176 319.896L572.645 320.743L572.655 320.75L573.176 319.896ZM568.664 315.144L567.787 315.625L567.793 315.636L568.664 315.144ZM568.664 302.088L567.79 301.602L567.787 301.607L568.664 302.088ZM573.176 297.288L572.645 296.441L573.176 297.288ZM584.312 296.664L583.788 297.516L583.797 297.521L584.312 296.664ZM587.288 299.976L586.389 300.415L588.288 299.976H587.288ZM587.288 296.04V295.04H586.288V296.04H587.288ZM593.72 296.04H594.72V295.04H593.72V296.04ZM593.72 321V322H594.72V321H593.72ZM587.432 321H586.432V322H587.432V321ZM587.432 316.92H588.432L586.534 316.48L587.432 316.92ZM584.408 320.424L584.948 321.266L584.953 321.262L584.408 320.424ZM574.376 312.168L573.487 312.625L573.494 312.641L573.503 312.656L574.376 312.168ZM576.824 314.808L576.275 315.644L576.29 315.654L576.306 315.663L576.824 314.808ZM584.072 314.808L583.565 313.946L583.554 313.953L584.072 314.808ZM586.568 312.216L585.684 311.748L586.568 312.216ZM586.568 305.016L585.679 305.473L585.684 305.484L586.568 305.016ZM584.072 302.376L583.535 303.22L583.55 303.229L583.565 303.238L584.072 302.376ZM576.824 302.376L577.342 303.231L577.352 303.226L577.361 303.22L576.824 302.376ZM579.368 320.624C577.309 320.624 575.426 320.097 573.697 319.042L572.655 320.75C574.702 321.999 576.947 322.624 579.368 322.624V320.624ZM573.707 319.049C571.963 317.955 570.575 316.495 569.535 314.652L567.793 315.636C568.993 317.761 570.612 319.469 572.645 320.743L573.707 319.049ZM569.541 314.663C568.537 312.833 568.032 310.824 568.032 308.616H566.032C566.032 311.144 566.614 313.487 567.787 315.625L569.541 314.663ZM568.032 308.616C568.032 306.408 568.537 304.399 569.541 302.569L567.787 301.607C566.614 303.745 566.032 306.088 566.032 308.616H568.032ZM569.538 302.574C570.579 300.7 571.967 299.226 573.707 298.135L572.645 296.441C570.609 297.718 568.989 299.444 567.79 301.602L569.538 302.574ZM573.707 298.135C575.435 297.052 577.315 296.512 579.368 296.512V294.512C576.941 294.512 574.693 295.156 572.645 296.441L573.707 298.135ZM579.368 296.512C581.301 296.512 582.748 296.876 583.788 297.516L584.836 295.812C583.38 294.916 581.531 294.512 579.368 294.512V296.512ZM583.797 297.521C584.899 298.183 585.764 299.135 586.389 300.415L588.186 299.537C587.404 297.937 586.284 296.681 584.826 295.807L583.797 297.521ZM588.288 299.976V296.04H586.288V299.976H588.288ZM587.288 297.04H593.72V295.04H587.288V297.04ZM592.72 296.04V321H594.72V296.04H592.72ZM593.72 320H587.432V322H593.72V320ZM588.432 321V316.92H586.432V321H588.432ZM586.534 316.48C585.869 317.838 584.977 318.862 583.863 319.586L584.953 321.262C586.399 320.322 587.523 319.01 588.33 317.36L586.534 316.48ZM583.868 319.582C582.836 320.244 581.366 320.624 579.368 320.624V322.624C581.594 322.624 583.484 322.204 584.948 321.266L583.868 319.582ZM572.512 308.568C572.512 310.004 572.837 311.361 573.487 312.625L575.265 311.711C574.763 310.735 574.512 309.692 574.512 308.568H572.512ZM573.503 312.656C574.188 313.882 575.114 314.882 576.275 315.644L577.373 313.972C576.486 313.39 575.78 312.63 575.249 311.68L573.503 312.656ZM576.306 315.663C577.532 316.406 578.914 316.768 580.424 316.768V314.768C579.246 314.768 578.228 314.49 577.342 313.953L576.306 315.663ZM580.424 316.768C581.961 316.768 583.36 316.408 584.59 315.663L583.554 313.953C582.671 314.488 581.639 314.768 580.424 314.768V316.768ZM584.579 315.67C585.822 314.939 586.787 313.94 587.452 312.684L585.684 311.748C585.197 312.668 584.497 313.397 583.565 313.946L584.579 315.67ZM587.452 312.684C588.109 311.442 588.432 310.08 588.432 308.616H586.432C586.432 309.776 586.179 310.814 585.684 311.748L587.452 312.684ZM588.432 308.616C588.432 307.152 588.109 305.79 587.452 304.548L585.684 305.484C586.179 306.418 586.432 307.456 586.432 308.616H588.432ZM587.457 304.559C586.794 303.27 585.83 302.25 584.579 301.514L583.565 303.238C584.49 303.782 585.189 304.522 585.679 305.473L587.457 304.559ZM584.609 301.532C583.377 300.748 581.97 300.368 580.424 300.368V302.368C581.629 302.368 582.655 302.66 583.535 303.22L584.609 301.532ZM580.424 300.368C578.904 300.368 577.515 300.751 576.287 301.532L577.361 303.22C578.244 302.657 579.255 302.368 580.424 302.368V300.368ZM576.306 301.521C575.095 302.254 574.153 303.252 573.492 304.5L575.26 305.436C575.751 304.508 576.44 303.778 577.342 303.231L576.306 301.521ZM573.492 304.5C572.835 305.742 572.512 307.104 572.512 308.568H574.512C574.512 307.408 574.765 306.37 575.26 305.436L573.492 304.5ZM599.97 296.04V295.04H598.97V296.04H599.97ZM606.45 296.04H607.45V295.04H606.45V296.04ZM606.45 321V322H607.45V321H606.45ZM599.97 321H598.97V322H599.97V321ZM600.402 287.448L599.71 286.726L599.702 286.733L599.695 286.741L600.402 287.448ZM600.402 292.872L599.68 293.564L599.695 293.579L599.71 293.594L600.402 292.872ZM599.97 297.04H606.45V295.04H599.97V297.04ZM605.45 296.04V321H607.45V296.04H605.45ZM606.45 320H599.97V322H606.45V320ZM600.97 321V296.04H598.97V321H600.97ZM600.298 290.136C600.298 289.341 600.564 288.701 601.109 288.155L599.695 286.741C598.768 287.667 598.298 288.819 598.298 290.136H600.298ZM601.094 288.17C601.671 287.617 602.349 287.344 603.186 287.344V285.344C601.847 285.344 600.669 285.807 599.71 286.726L601.094 288.17ZM603.186 287.344C604.063 287.344 604.73 287.622 605.263 288.155L606.677 286.741C605.738 285.802 604.549 285.344 603.186 285.344V287.344ZM605.263 288.155C605.808 288.701 606.074 289.341 606.074 290.136H608.074C608.074 288.819 607.604 287.667 606.677 286.741L605.263 288.155ZM606.074 290.136C606.074 290.972 605.802 291.626 605.263 292.165L606.677 293.579C607.61 292.646 608.074 291.476 608.074 290.136H606.074ZM605.263 292.165C604.73 292.698 604.063 292.976 603.186 292.976V294.976C604.549 294.976 605.738 294.518 606.677 293.579L605.263 292.165ZM603.186 292.976C602.349 292.976 601.671 292.703 601.094 292.15L599.71 293.594C600.669 294.513 601.847 294.976 603.186 294.976V292.976ZM601.124 292.18C600.565 291.597 600.298 290.932 600.298 290.136H598.298C598.298 291.452 598.767 292.611 599.68 293.564L601.124 292.18Z"
    fill="#988BFF" />
  <path d="M85.5625 46.8535L109.416 67" stroke="#EBEBEB" stroke-width="2" />
  <path d="M67.5625 52.8535L40.0625 155" stroke="#EBEBEB" stroke-width="2" />
  <path d="M110.385 100L47.0618 160.5" stroke="#EBEBEB" stroke-width="2" />
  <path d="M121.887 106.412L109.562 141.5" stroke="#EBEBEB" stroke-width="2" />
  <path d="M100.062 152L50.5625 167" stroke="#EBEBEB" stroke-width="2" />
  <path d="M143.5 203.5L110.562 156.25" stroke="#EBEBEB" stroke-width="2" />
  <path d="M140.5 210.5L50.1875 177" stroke="#EBEBEB" stroke-width="2" />
  <path d="M69.0625 229.5L41.5625 185.688" stroke="#EBEBEB" stroke-width="2" />
  <path d="M115.062 323.5L74.7188 241" stroke="#EBEBEB" stroke-width="2" />
  <path d="M40.0625 393L108.641 345" stroke="#EBEBEB" stroke-width="2" />
  <path d="M40.5625 400.289L86.5 434" stroke="#EBEBEB" stroke-width="2" />
  <path d="M100.5 451.5L125.563 520.5" stroke="#EBEBEB" stroke-width="2" />
  <path d="M134.365 526L199.562 505.5" stroke="#EBEBEB" stroke-width="2" />
  <path d="M108 447.5L199.063 492.5" stroke="#EBEBEB" stroke-width="2" />
  <path d="M175.562 387.25L209.062 487" stroke="#EBEBEB" stroke-width="2" />
  <path d="M266.563 403.5L218.562 489" stroke="#EBEBEB" stroke-width="2" />
  <path d="M305.062 490L226.562 499.5" stroke="#EBEBEB" stroke-width="2" />
  <path d="M307.062 484.5L277.562 403" stroke="#EBEBEB" stroke-width="2" />
  <path d="M269.063 376.5L225.063 298" stroke="#EBEBEB" stroke-width="2" />
  <path d="M264.563 386L182.062 381.5" stroke="#EBEBEB" stroke-width="2" />
  <path d="M219.562 298.5L176.563 374" stroke="#EBEBEB" stroke-width="2" />
  <path d="M169.813 387L106 433" stroke="#EBEBEB" stroke-width="2" />
  <path d="M118.062 353.5L99.5 428" stroke="#EBEBEB" stroke-width="2" />
  <path d="M133.062 347.5L170.563 376" stroke="#EBEBEB" stroke-width="2" />
  <path d="M216.813 293L130.563 333.5" stroke="#EBEBEB" stroke-width="2" />
  <path d="M218.062 291L149.562 293.375" stroke="#EBEBEB" stroke-width="2" />
  <path d="M219.563 289L159 228.438" stroke="#EBEBEB" stroke-width="2" />
  <path d="M295.063 261.5L228.062 289.5" stroke="#EBEBEB" stroke-width="2" />
  <path d="M309.063 275.5L278.563 375.5" stroke="#EBEBEB" stroke-width="2" />
  <path d="M323.562 276.5L350.562 372" stroke="#EBEBEB" stroke-width="2" />
  <path d="M423.562 173L366.062 373" stroke="#EBEBEB" stroke-width="2" />
  <path d="M413.312 164L331.563 239" stroke="#EBEBEB" stroke-width="2" />
  <path d="M252.063 173L301.062 235.5" stroke="#EBEBEB" stroke-width="2" />
  <path d="M230.063 169.5L159.5 214" stroke="#EBEBEB" stroke-width="2" />
  <path d="M133.562 106.5L150.5 205" stroke="#EBEBEB" stroke-width="2" />
  <path d="M148.062 95.5L230.062 152" stroke="#EBEBEB" stroke-width="2" />
  <path d="M150.062 81.5L218.062 76" stroke="#EBEBEB" stroke-width="2" />
  <path d="M224.062 81.5L238.062 146" stroke="#EBEBEB" stroke-width="2" />
  <path d="M229.063 79.5L303.062 113" stroke="#EBEBEB" stroke-width="2" />
  <path d="M227.063 73.5L289.062 37" stroke="#EBEBEB" stroke-width="2" />
  <path d="M308.063 109.5L308.063 48" stroke="#EBEBEB" stroke-width="2" />
  <path d="M409.063 62L331.313 33" stroke="#EBEBEB" stroke-width="2" />
  <path d="M410.062 66L311.563 114.5" stroke="#EBEBEB" stroke-width="2" />
  <path d="M416.063 69.5L427.062 130" stroke="#EBEBEB" stroke-width="2" />
  <path d="M421.063 66.5L503.563 98.5" stroke="#EBEBEB" stroke-width="2" />
  <path d="M448.562 141.5L505.063 110.5" stroke="#EBEBEB" stroke-width="2" />
  <path d="M314.062 117L407.563 142.5" stroke="#EBEBEB" stroke-width="2" />
  <path d="M303.563 120L253.562 153" stroke="#EBEBEB" stroke-width="2" />
  <path d="M406.562 151L257.562 160.5" stroke="#EBEBEB" stroke-width="2" />
  <path d="M550.063 185L451.562 156.25" stroke="#EBEBEB" stroke-width="2" />
  <path d="M558.562 173L524.562 117.5" stroke="#EBEBEB" stroke-width="2" />
  <path d="M590.062 78L532.063 99" stroke="#EBEBEB" stroke-width="2" />
  <path d="M593.062 82.5L572.563 169.5" stroke="#EBEBEB" stroke-width="2" />
  <path d="M718.562 65L602.813 76" stroke="#EBEBEB" stroke-width="2" />
  <path d="M720.063 74L589.562 178" stroke="#EBEBEB" stroke-width="2" />
  <path d="M734.062 79.25L731.563 156" stroke="#EBEBEB" stroke-width="2" />
  <path d="M743.562 75.5L766.562 98.5" stroke="#EBEBEB" stroke-width="2" />
  <path d="M748.562 66L831.063 78.5" stroke="#EBEBEB" stroke-width="2" />
  <path d="M777.063 103L830.562 87.5" stroke="#EBEBEB" stroke-width="2" />
  <path d="M745.562 162.5L835.062 96" stroke="#EBEBEB" stroke-width="2" />
  <path d="M875.063 170L859.062 104.5" stroke="#EBEBEB" stroke-width="2" />
  <path d="M862.562 181L747.563 175" stroke="#EBEBEB" stroke-width="2" />
  <path d="M870.563 196.5L846.063 235" stroke="#EBEBEB" stroke-width="2" />
  <path d="M883.062 199L890.562 238" stroke="#EBEBEB" stroke-width="2" />
  <path d="M856.313 250L887.062 246.5" stroke="#EBEBEB" stroke-width="2" />
  <path d="M800.062 333.5L823.562 276.5" stroke="#EBEBEB" stroke-width="2" />
  <path d="M759.062 327L813.812 270" stroke="#EBEBEB" stroke-width="2" />
  <path d="M684.562 286.5L807.438 258" stroke="#EBEBEB" stroke-width="2" />
  <path d="M666.063 219.5L810.063 249" stroke="#EBEBEB" stroke-width="2" />
  <path d="M744.562 181.5L815.562 239.75" stroke="#EBEBEB" stroke-width="2" />
  <path d="M595.062 188.5L717.562 174.5" stroke="#EBEBEB" stroke-width="2" />
  <path d="M594.563 197.25L656.562 216" stroke="#EBEBEB" stroke-width="2" />
  <path d="M585.562 208.625L644.063 274.5" stroke="#EBEBEB" stroke-width="2" />
  <path d="M661.562 222.5L662.062 270" stroke="#EBEBEB" stroke-width="2" />
  <path d="M649.563 308.5L600.563 379" stroke="#EBEBEB" stroke-width="2" />
  <path d="M667.562 314.5L690.563 423" stroke="#EBEBEB" stroke-width="2" />
  <path d="M682.062 303.5L736.563 332" stroke="#EBEBEB" stroke-width="2" />
  <path d="M695.563 423L742.563 350" stroke="#EBEBEB" stroke-width="2" />
  <path d="M779.563 391L756.562 352" stroke="#EBEBEB" stroke-width="2" />
  <path d="M767.562 417L698.563 427" stroke="#EBEBEB" stroke-width="2" />
  <path d="M782.063 434.5L751.062 501.5" stroke="#EBEBEB" stroke-width="2" />
  <path d="M806.063 429.5L883.063 506" stroke="#EBEBEB" stroke-width="2" />
  <path d="M812.062 418.5L886.563 440" stroke="#EBEBEB" stroke-width="2" />
  <path d="M893.063 502.5L893.062 449" stroke="#EBEBEB" stroke-width="2" />
  <path d="M755.563 507L876.313 513" stroke="#EBEBEB" stroke-width="2" />
  <path d="M657.5 524L743.563 508.5" stroke="#EBEBEB" stroke-width="2" />
  <path d="M695.562 434L745.562 502.5" stroke="#EBEBEB" stroke-width="2" />
  <path d="M688.812 433L652.5 511.5" stroke="#EBEBEB" stroke-width="2" />
  <path d="M686.563 426.5L610.562 403" stroke="#EBEBEB" stroke-width="2" />
  <path d="M563.563 405L487.562 434.5" stroke="#EBEBEB" stroke-width="2" />
  <path d="M567.563 394.25L378.562 394.25" stroke="#EBEBEB" stroke-width="2" />
  <path d="M596.562 417.5L637.5 509.5" stroke="#EBEBEB" stroke-width="2" />
  <path d="M575.062 416.5L531.062 477.5" stroke="#EBEBEB" stroke-width="2" />
  <path d="M630 522L533.062 483" stroke="#EBEBEB" stroke-width="2" />
  <path d="M523.563 479L487.063 452.5" stroke="#EBEBEB" stroke-width="2" />
  <path d="M388.062 484L446.563 451" stroke="#EBEBEB" stroke-width="2" />
  <path d="M380.563 405L447.063 434" stroke="#EBEBEB" stroke-width="2" />
  <path d="M363.563 419L371.063 475.5" stroke="#EBEBEB" stroke-width="2" />
  <path d="M289.063 390L337.563 393" stroke="#EBEBEB" stroke-width="2" />
  <path d="M285.562 398.75L363.563 478.5" stroke="#EBEBEB" stroke-width="2" />
  <path d="M315.062 490.75L360.437 490.75" stroke="#EBEBEB" stroke-width="2" />
  <path d="M794.063 391L796.562 344" stroke="#EBEBEB" stroke-width="2" />
  <path d="M764.562 338H790.313" stroke="#EBEBEB" stroke-width="2" />
  <path d="M741.562 158L770.062 109.5" stroke="#EBEBEB" stroke-width="2" />
  <path d="M84.5625 45.75L110.563 67" stroke="#EBEBEB" stroke-width="2" />
  <path d="M68.5625 51.375L38.5625 158.5" stroke="#EBEBEB" stroke-width="2" />
  <path d="M146.562 285.5L150 229.5" stroke="#EBEBEB" stroke-width="2" />
  <path d="M128.562 324.5L143.812 296" stroke="#EBEBEB" stroke-width="2" />
  <path d="M77.5625 239.5L141.063 288.5" stroke="#EBEBEB" stroke-width="2" />
  <path d="M77.5625 233.5L140.5 220.5" stroke="#EBEBEB" stroke-width="2" />
  <path
    d="M557.704 131.176H560.296V135.28H568.816V146.992H566.296V145.672H560.296V153.688H557.704V145.672H551.728V146.992H549.208V135.28H557.704V131.176ZM551.728 143.224H557.704V137.728H551.728V143.224ZM560.296 143.224H566.296V137.728H560.296V143.224ZM572.368 135.064H581.872C581.272 133.96 580.528 132.928 579.664 131.944L582.184 131.032C583.048 132.16 583.84 133.504 584.56 135.064H593.632V137.56H590.008C588.856 141.16 587.176 144.16 584.968 146.584C587.44 148.552 590.512 150.184 594.16 151.528L592.768 153.664C588.928 152.224 585.736 150.448 583.192 148.336C580.504 150.712 577.192 152.464 573.28 153.568L571.936 151.36C575.752 150.376 578.92 148.84 581.416 146.728C578.824 144.088 577.024 141.04 576.016 137.56H572.368V135.064ZM578.416 137.56C579.4 140.392 580.984 142.864 583.192 145.024C585.064 142.96 586.48 140.464 587.416 137.56H578.416Z"
    fill="#DC3832" />
  <path
    d="M391.68 95.864H404.04V98.264H394.488V103.016H403.464V105.416H394.488V110.6H404.448V113H391.68V95.864ZM413.246 100.256C416.342 100.256 417.902 101.936 417.902 105.344V113H415.166V105.584C415.166 103.544 414.23 102.536 412.358 102.536C411.686 102.536 411.086 102.776 410.582 103.256C410.006 103.784 409.67 104.552 409.574 105.536V113H406.838V100.592H409.574V102.032C410.054 101.456 410.606 101 411.206 100.712C411.83 100.4 412.502 100.256 413.246 100.256ZM425.944 100.256C427.48 100.256 428.704 100.856 429.616 102.104V100.592H432.352V112.208C432.352 116.12 430.408 118.088 426.52 118.088C424.768 118.088 423.448 117.752 422.536 117.128C421.624 116.456 421.048 115.448 420.808 114.056H423.544C423.688 114.752 423.976 115.232 424.432 115.52C424.864 115.784 425.56 115.928 426.52 115.928C428.584 115.928 429.616 114.824 429.616 112.616V110.792C428.704 112.064 427.48 112.712 425.944 112.712C424.264 112.712 422.896 112.136 421.864 111.032C420.808 109.904 420.304 108.392 420.304 106.52C420.304 104.648 420.808 103.136 421.864 101.984C422.896 100.832 424.264 100.256 425.944 100.256ZM426.376 102.464C425.344 102.464 424.552 102.824 423.976 103.544C423.4 104.24 423.112 105.224 423.112 106.52C423.112 107.696 423.328 108.608 423.784 109.28C424.312 110.072 425.152 110.48 426.352 110.48C427.408 110.48 428.224 110.12 428.8 109.448C429.352 108.728 429.64 107.768 429.64 106.52C429.64 105.248 429.352 104.264 428.8 103.544C428.224 102.824 427.408 102.464 426.376 102.464ZM435.461 95.528H438.197V113H435.461V95.528ZM443.163 95.528C443.691 95.528 444.147 95.696 444.507 96.032C444.843 96.368 445.035 96.8 445.035 97.328C445.035 97.856 444.843 98.312 444.483 98.648C444.123 98.984 443.691 99.152 443.163 99.152C442.635 99.152 442.203 98.984 441.843 98.648C441.483 98.288 441.315 97.856 441.315 97.328C441.315 96.8 441.483 96.368 441.843 96.032C442.203 95.696 442.635 95.528 443.163 95.528ZM441.795 100.592H444.531V113H441.795V100.592ZM452.604 100.256C455.868 100.256 457.668 101.552 457.956 104.192H455.292C455.1 103.568 454.812 103.112 454.428 102.872C454.02 102.608 453.396 102.488 452.556 102.488C451.836 102.488 451.284 102.584 450.924 102.8C450.492 103.016 450.3 103.352 450.3 103.832C450.3 104.216 450.612 104.576 451.284 104.864C451.692 105.032 452.508 105.272 453.756 105.584C455.148 105.92 456.204 106.304 456.876 106.76C457.86 107.384 458.364 108.272 458.364 109.376C458.364 112.016 456.492 113.336 452.772 113.336C449.316 113.336 447.468 111.872 447.204 108.968H449.868C450.012 109.76 450.3 110.312 450.708 110.648C451.116 110.936 451.764 111.104 452.676 111.104C454.596 111.104 455.556 110.576 455.556 109.568C455.556 108.992 455.196 108.536 454.476 108.2C454.092 108.008 453.276 107.792 452.028 107.504C450.564 107.168 449.532 106.808 448.932 106.424C447.972 105.824 447.492 104.984 447.492 103.904C447.492 102.752 447.948 101.864 448.908 101.24C449.844 100.568 451.068 100.256 452.604 100.256ZM460.534 95.528H463.27V102.248C463.726 101.552 464.302 101.048 464.974 100.712C465.574 100.4 466.27 100.256 467.062 100.256C468.574 100.256 469.702 100.688 470.446 101.576C471.142 102.416 471.502 103.664 471.502 105.32V113H468.766V105.8C468.766 104.744 468.55 103.928 468.142 103.376C467.662 102.776 466.966 102.488 466.03 102.488C465.166 102.488 464.494 102.824 464.014 103.496C463.51 104.168 463.27 105.008 463.27 106.064V113H460.534V95.528Z"
    fill="#A53138" />
  <path
    d="M828.68 136.864H834.944C837.728 136.864 839.816 137.632 841.256 139.168C842.624 140.608 843.32 142.696 843.32 145.432C843.32 148.144 842.624 150.232 841.256 151.696C839.816 153.232 837.728 154 834.944 154H828.68V136.864ZM831.488 139.264V151.6H834.416C836.552 151.6 838.112 151.096 839.096 150.112C840.056 149.104 840.536 147.544 840.536 145.432C840.536 143.272 840.056 141.688 839.096 140.728C838.112 139.744 836.552 139.264 834.416 139.264H831.488ZM850.993 141.256C853.033 141.256 854.593 141.928 855.673 143.32C856.657 144.568 857.161 146.32 857.161 148.552H847.873C847.969 149.704 848.281 150.592 848.809 151.192C849.337 151.792 850.105 152.104 851.089 152.104C851.929 152.104 852.601 151.912 853.129 151.528C853.537 151.216 853.897 150.712 854.233 150.016H856.969C856.681 151.168 856.105 152.152 855.241 152.92C854.137 153.856 852.769 154.336 851.113 154.336C849.265 154.336 847.801 153.76 846.721 152.632C845.569 151.456 844.993 149.848 844.993 147.784C844.993 145.936 845.521 144.4 846.625 143.152C847.681 141.88 849.145 141.256 850.993 141.256ZM851.065 143.488C850.153 143.488 849.457 143.728 848.929 144.256C848.425 144.76 848.089 145.504 847.921 146.488H854.305C854.065 144.472 852.985 143.488 851.065 143.488ZM859.331 141.592H862.067V149.152C862.067 150.16 862.259 150.88 862.691 151.36C863.123 151.816 863.795 152.056 864.755 152.056C865.355 152.056 865.931 151.792 866.483 151.288C867.035 150.76 867.443 150.064 867.683 149.176V141.592H870.419V154H867.683V152.392C866.627 153.688 865.331 154.336 863.795 154.336C860.819 154.336 859.331 152.656 859.331 149.32V141.592ZM877.187 137.584V141.592H879.947V143.848H877.187V150.856C877.187 151.144 877.235 151.36 877.379 151.528C877.523 151.672 877.715 151.744 878.003 151.744H879.635V154H877.547C876.467 154 875.675 153.712 875.171 153.136C874.691 152.608 874.451 151.864 874.451 150.856V143.848H872.219V141.592H874.451V138.712L877.187 137.584ZM886.675 141.256C889.939 141.256 891.739 142.552 892.027 145.192H889.363C889.171 144.568 888.883 144.112 888.499 143.872C888.091 143.608 887.467 143.488 886.627 143.488C885.907 143.488 885.355 143.584 884.995 143.8C884.563 144.016 884.371 144.352 884.371 144.832C884.371 145.216 884.683 145.576 885.355 145.864C885.763 146.032 886.579 146.272 887.827 146.584C889.219 146.92 890.275 147.304 890.947 147.76C891.931 148.384 892.435 149.272 892.435 150.376C892.435 153.016 890.563 154.336 886.843 154.336C883.387 154.336 881.539 152.872 881.275 149.968H883.939C884.083 150.76 884.371 151.312 884.779 151.648C885.187 151.936 885.835 152.104 886.747 152.104C888.667 152.104 889.627 151.576 889.627 150.568C889.627 149.992 889.267 149.536 888.547 149.2C888.163 149.008 887.347 148.792 886.099 148.504C884.635 148.168 883.603 147.808 883.003 147.424C882.043 146.824 881.563 145.984 881.563 144.904C881.563 143.752 882.019 142.864 882.979 142.24C883.915 141.568 885.139 141.256 886.675 141.256ZM900.172 141.256C901.78 141.256 903.052 141.616 904.012 142.336C904.996 143.104 905.62 144.256 905.86 145.816H903.148C902.98 145.024 902.644 144.448 902.164 144.064C901.66 143.68 900.988 143.488 900.172 143.488C899.164 143.488 898.372 143.848 897.796 144.616C897.22 145.36 896.932 146.416 896.932 147.76C896.932 149.128 897.196 150.208 897.772 150.976C898.3 151.72 899.092 152.104 900.148 152.104C901.972 152.104 902.98 151.192 903.196 149.392H905.908C905.62 151.072 904.972 152.32 903.988 153.136C903.028 153.928 901.732 154.336 900.124 154.336C898.204 154.336 896.716 153.712 895.66 152.464C894.628 151.264 894.124 149.704 894.124 147.784C894.124 145.912 894.628 144.376 895.636 143.2C896.716 141.904 898.228 141.256 900.172 141.256ZM908.057 136.528H910.793V143.248C911.249 142.552 911.825 142.048 912.497 141.712C913.097 141.4 913.793 141.256 914.585 141.256C916.097 141.256 917.225 141.688 917.969 142.576C918.665 143.416 919.025 144.664 919.025 146.32V154H916.289V146.8C916.289 145.744 916.073 144.928 915.665 144.376C915.185 143.776 914.489 143.488 913.553 143.488C912.689 143.488 912.017 143.824 911.537 144.496C911.033 145.168 910.793 146.008 910.793 147.064V154H908.057V136.528Z"
    fill="black" />
  <path
    d="M135.264 168.936H138.456V185.544H135.264V168.936ZM137.544 175.704H141.408V178.32H137.544V175.704ZM120.96 171.24H134.04V173.736H120.96V171.24ZM127.512 174.528C130.704 174.528 132.96 176.28 132.96 178.824C132.96 181.368 130.704 183.096 127.512 183.096C124.296 183.096 122.04 181.368 122.04 178.824C122.04 176.28 124.296 174.528 127.512 174.528ZM127.512 176.952C126.096 176.952 125.112 177.624 125.112 178.824C125.112 180.024 126.096 180.672 127.512 180.672C128.928 180.672 129.912 180.024 129.912 178.824C129.912 177.624 128.928 176.952 127.512 176.952ZM125.904 168.888H129.096V172.464H125.904V168.888ZM124.128 188.208H139.248V190.752H124.128V188.208ZM124.128 184.296H127.32V189.312H124.128V184.296ZM145.51 169.848H159.598V172.392H145.51V169.848ZM143.062 177.528H163.174V180.072H143.062V177.528ZM151.486 179.328H154.678V183.984H151.486V179.328ZM157.678 169.848H160.822V171.624C160.822 173.544 160.822 175.776 160.126 178.704L156.982 178.392C157.678 175.536 157.678 173.496 157.678 171.624V169.848ZM145.078 183.192H160.846V191.136H157.654V185.712H145.078V183.192ZM171.212 170.448C174.524 170.448 176.948 173.52 176.948 178.368C176.948 183.264 174.524 186.336 171.212 186.336C167.876 186.336 165.476 183.264 165.476 178.368C165.476 173.52 167.876 170.448 171.212 170.448ZM171.212 173.352C169.604 173.352 168.524 175.104 168.524 178.368C168.524 181.68 169.604 183.456 171.212 183.456C172.844 183.456 173.9 181.68 173.9 178.368C173.9 175.104 172.844 173.352 171.212 173.352ZM180.596 168.888H183.764V191.184H180.596V168.888ZM176.012 176.904H181.94V179.472H176.012V176.904Z"
    fill="#BE3D40" />
  <path
    d="M616.72 242.256C618.76 242.256 620.32 242.928 621.4 244.32C622.384 245.568 622.888 247.32 622.888 249.552H613.6C613.696 250.704 614.008 251.592 614.536 252.192C615.064 252.792 615.832 253.104 616.816 253.104C617.656 253.104 618.328 252.912 618.856 252.528C619.264 252.216 619.624 251.712 619.96 251.016H622.696C622.408 252.168 621.832 253.152 620.968 253.92C619.864 254.856 618.496 255.336 616.84 255.336C614.992 255.336 613.528 254.76 612.448 253.632C611.296 252.456 610.72 250.848 610.72 248.784C610.72 246.936 611.248 245.4 612.352 244.152C613.408 242.88 614.872 242.256 616.72 242.256ZM616.792 244.488C615.88 244.488 615.184 244.728 614.656 245.256C614.152 245.76 613.816 246.504 613.648 247.488H620.032C619.792 245.472 618.712 244.488 616.792 244.488ZM629.737 242.256C633.001 242.256 634.801 243.552 635.089 246.192H632.425C632.233 245.568 631.945 245.112 631.561 244.872C631.153 244.608 630.529 244.488 629.689 244.488C628.969 244.488 628.417 244.584 628.057 244.8C627.625 245.016 627.433 245.352 627.433 245.832C627.433 246.216 627.745 246.576 628.417 246.864C628.825 247.032 629.641 247.272 630.889 247.584C632.281 247.92 633.337 248.304 634.009 248.76C634.993 249.384 635.497 250.272 635.497 251.376C635.497 254.016 633.625 255.336 629.905 255.336C626.449 255.336 624.601 253.872 624.337 250.968H627.001C627.145 251.76 627.433 252.312 627.841 252.648C628.249 252.936 628.897 253.104 629.809 253.104C631.729 253.104 632.689 252.576 632.689 251.568C632.689 250.992 632.329 250.536 631.609 250.2C631.225 250.008 630.409 249.792 629.161 249.504C627.697 249.168 626.665 248.808 626.065 248.424C625.105 247.824 624.625 246.984 624.625 245.904C624.625 244.752 625.081 243.864 626.041 243.24C626.977 242.568 628.201 242.256 629.737 242.256ZM643.955 242.256C645.779 242.256 647.219 242.904 648.275 244.2C649.235 245.4 649.715 246.936 649.715 248.856C649.715 250.68 649.235 252.192 648.299 253.392C647.291 254.688 645.875 255.336 644.099 255.336C642.659 255.336 641.411 254.64 640.403 253.296V259.752H637.667V242.592H640.211V243.912C641.075 242.808 642.323 242.256 643.955 242.256ZM643.547 244.464C642.467 244.464 641.651 244.872 641.075 245.736C640.547 246.48 640.307 247.464 640.307 248.712V248.904C640.307 250.2 640.619 251.256 641.267 252.048C641.843 252.768 642.563 253.128 643.451 253.128C644.651 253.128 645.563 252.72 646.139 251.952C646.643 251.232 646.907 250.2 646.907 248.856C646.907 247.512 646.667 246.48 646.211 245.76C645.635 244.896 644.747 244.464 643.547 244.464ZM657.744 242.256C659.568 242.256 660.936 242.712 661.8 243.624C662.568 244.416 662.952 245.568 662.952 247.08V255H660.408V253.368C659.928 253.992 659.328 254.448 658.632 254.784C657.84 255.144 656.904 255.336 655.824 255.336C654.528 255.336 653.52 255 652.776 254.352C652.008 253.68 651.624 252.84 651.624 251.808C651.624 250.416 652.152 249.336 653.256 248.592C654.264 247.872 655.68 247.488 657.504 247.44L660.216 247.368V246.888C660.216 245.256 659.328 244.464 657.552 244.464C656.784 244.464 656.184 244.584 655.728 244.872C655.2 245.184 654.84 245.664 654.696 246.312L651.984 246.096C652.248 244.728 652.92 243.72 654 243.096C654.912 242.52 656.16 242.256 657.744 242.256ZM660.216 249.336L657.696 249.408C655.512 249.456 654.432 250.224 654.432 251.712C654.432 252.144 654.6 252.504 654.984 252.792C655.368 253.08 655.848 253.248 656.448 253.248C657.504 253.248 658.392 252.936 659.112 252.336C659.832 251.712 660.216 250.92 660.216 249.96V249.336ZM669.726 238.104C670.206 238.104 670.758 238.248 671.43 238.536C672.078 238.824 672.582 238.968 672.966 238.968C673.206 238.968 673.566 238.704 674.022 238.176L675.198 239.136C674.526 240.096 673.806 240.6 673.062 240.6C672.558 240.6 671.982 240.456 671.334 240.168C670.662 239.88 670.158 239.76 669.822 239.76C669.534 239.76 669.15 240.024 668.718 240.552L667.566 239.616C668.238 238.608 668.958 238.104 669.726 238.104ZM672.246 242.256C675.342 242.256 676.902 243.936 676.902 247.344V255H674.166V247.584C674.166 245.544 673.23 244.536 671.358 244.536C670.686 244.536 670.086 244.776 669.582 245.256C669.006 245.784 668.67 246.552 668.574 247.536V255H665.838V242.592H668.574V244.032C669.054 243.456 669.606 243 670.206 242.712C670.83 242.4 671.502 242.256 672.246 242.256ZM685.544 242.256C687.416 242.256 688.928 242.856 690.08 244.104C691.208 245.328 691.784 246.888 691.784 248.808C691.784 250.704 691.208 252.264 690.104 253.464C688.952 254.712 687.416 255.336 685.544 255.336C683.648 255.336 682.136 254.712 680.984 253.464C679.856 252.264 679.304 250.704 679.304 248.808C679.304 246.888 679.856 245.328 681.008 244.104C682.136 242.856 683.648 242.256 685.544 242.256ZM685.544 244.488C684.392 244.488 683.528 244.92 682.904 245.832C682.376 246.6 682.112 247.608 682.112 248.808C682.112 250.008 682.376 250.992 682.904 251.76C683.528 252.648 684.392 253.104 685.544 253.104C686.672 253.104 687.56 252.648 688.184 251.76C688.712 250.968 689 249.984 689 248.808C689 247.608 688.712 246.6 688.184 245.832C687.56 244.92 686.672 244.488 685.544 244.488ZM694.414 237.528H697.15V255H694.414V237.528Z"
    fill="#A02823" />
  <path
    d="M706.728 132.256C708.552 132.256 709.992 132.904 711.048 134.2C712.008 135.4 712.488 136.936 712.488 138.856C712.488 140.68 712.008 142.192 711.072 143.392C710.064 144.688 708.648 145.336 706.872 145.336C705.432 145.336 704.184 144.64 703.176 143.296V149.752H700.44V132.592H702.984V133.912C703.848 132.808 705.096 132.256 706.728 132.256ZM706.32 134.464C705.24 134.464 704.424 134.872 703.848 135.736C703.32 136.48 703.08 137.464 703.08 138.712V138.904C703.08 140.2 703.392 141.256 704.04 142.048C704.616 142.768 705.336 143.128 706.224 143.128C707.424 143.128 708.336 142.72 708.912 141.952C709.416 141.232 709.68 140.2 709.68 138.856C709.68 137.512 709.44 136.48 708.984 135.76C708.408 134.896 707.52 134.464 706.32 134.464ZM720.638 132.256C722.51 132.256 724.022 132.856 725.174 134.104C726.302 135.328 726.878 136.888 726.878 138.808C726.878 140.704 726.302 142.264 725.198 143.464C724.046 144.712 722.51 145.336 720.638 145.336C718.742 145.336 717.23 144.712 716.078 143.464C714.95 142.264 714.398 140.704 714.398 138.808C714.398 136.888 714.95 135.328 716.102 134.104C717.23 132.856 718.742 132.256 720.638 132.256ZM720.638 134.488C719.486 134.488 718.622 134.92 717.998 135.832C717.47 136.6 717.206 137.608 717.206 138.808C717.206 140.008 717.47 140.992 717.998 141.76C718.622 142.648 719.486 143.104 720.638 143.104C721.766 143.104 722.654 142.648 723.278 141.76C723.806 140.968 724.094 139.984 724.094 138.808C724.094 137.608 723.806 136.6 723.278 135.832C722.654 134.92 721.766 134.488 720.638 134.488ZM729.508 127.528H732.244V145H729.508V127.528ZM740.042 132.256C743.306 132.256 745.106 133.552 745.394 136.192H742.73C742.538 135.568 742.25 135.112 741.866 134.872C741.458 134.608 740.834 134.488 739.994 134.488C739.274 134.488 738.722 134.584 738.362 134.8C737.93 135.016 737.738 135.352 737.738 135.832C737.738 136.216 738.05 136.576 738.722 136.864C739.13 137.032 739.946 137.272 741.194 137.584C742.586 137.92 743.642 138.304 744.314 138.76C745.298 139.384 745.802 140.272 745.802 141.376C745.802 144.016 743.93 145.336 740.21 145.336C736.754 145.336 734.906 143.872 734.642 140.968H737.306C737.45 141.76 737.738 142.312 738.146 142.648C738.554 142.936 739.202 143.104 740.114 143.104C742.034 143.104 742.994 142.576 742.994 141.568C742.994 140.992 742.634 140.536 741.914 140.2C741.53 140.008 740.714 139.792 739.466 139.504C738.002 139.168 736.97 138.808 736.37 138.424C735.41 137.824 734.93 136.984 734.93 135.904C734.93 134.752 735.386 133.864 736.346 133.24C737.282 132.568 738.506 132.256 740.042 132.256ZM747.971 127.528H750.707V137.512L755.795 132.592H759.323L753.827 137.728L759.803 145H756.299L751.955 139.48L750.707 140.656V145H747.971V127.528ZM763.085 127.528C763.613 127.528 764.069 127.696 764.429 128.032C764.765 128.368 764.957 128.8 764.957 129.328C764.957 129.856 764.765 130.312 764.405 130.648C764.045 130.984 763.613 131.152 763.085 131.152C762.557 131.152 762.125 130.984 761.765 130.648C761.405 130.288 761.237 129.856 761.237 129.328C761.237 128.8 761.405 128.368 761.765 128.032C762.125 127.696 762.557 127.528 763.085 127.528ZM761.717 132.592H764.453V145H761.717V132.592Z"
    fill="#CC2E3F" />
  <path
    d="M731.04 287.04V308.4H728.52V306.744H717.936V308.424H715.416V287.04H731.04ZM717.936 304.296H728.52V297.84H717.936V304.296ZM717.936 295.392H728.52V289.488H717.936V295.392ZM736.608 290.424H745.728V286.344H748.272V290.424H757.368V292.848H750.144C751.728 296.376 754.416 299.52 758.208 302.28L756.504 304.44C752.592 301.008 749.856 297.168 748.272 292.92V301.44H753.144V303.864H748.272V308.52H745.728V303.864H741.048V301.44H745.728V292.92C744 297.744 741.168 301.68 737.184 304.752L735.72 302.4C739.416 299.904 742.104 296.712 743.832 292.848H736.608V290.424ZM763.104 307.152V308.472H760.776V299.592H767.592V308.112H765.336V307.152H763.104ZM765.336 304.896V301.8H763.104V304.896H765.336ZM760.152 288.912H763.272C762.936 288.192 762.528 287.496 762.096 286.824L764.424 286.152C764.952 287.16 765.36 288.096 765.648 288.912H768.072V291.192H760.152V288.912ZM760.992 292.632H767.352V294.792H760.992V292.632ZM760.992 296.016H767.352V298.176H760.992V296.016ZM768.792 287.016H781.32V289.272H775.296L774.888 291.264H780.384V295.848H781.992V298.128H768.624V295.848H771.648L772.128 293.424H769.632V291.264H772.56L772.968 289.272H768.792V287.016ZM773.976 295.848H778.08V293.424H774.456L773.976 295.848ZM780.744 299.904V308.544H778.416V307.656H772.08V308.544H769.728V299.904H780.744ZM772.08 305.448H778.416V302.112H772.08V305.448Z"
    fill="#AE232F" />
  <path
    d="M580.68 477.864H583.488L591.96 490.224H592.056V477.864H594.888V495H592.152L583.584 482.472H583.488V495H580.68V477.864ZM603.298 482.256C605.338 482.256 606.898 482.928 607.978 484.32C608.962 485.568 609.466 487.32 609.466 489.552H600.178C600.274 490.704 600.586 491.592 601.114 492.192C601.642 492.792 602.41 493.104 603.394 493.104C604.234 493.104 604.906 492.912 605.434 492.528C605.842 492.216 606.202 491.712 606.538 491.016H609.274C608.986 492.168 608.41 493.152 607.546 493.92C606.442 494.856 605.074 495.336 603.418 495.336C601.57 495.336 600.106 494.76 599.026 493.632C597.874 492.456 597.298 490.848 597.298 488.784C597.298 486.936 597.826 485.4 598.93 484.152C599.986 482.88 601.45 482.256 603.298 482.256ZM603.37 484.488C602.458 484.488 601.762 484.728 601.234 485.256C600.73 485.76 600.394 486.504 600.226 487.488H606.61C606.37 485.472 605.29 484.488 603.37 484.488ZM620.467 477.528H623.203V495H620.659V493.68C619.795 494.784 618.547 495.336 616.915 495.336C615.067 495.336 613.627 494.688 612.595 493.392C611.635 492.192 611.155 490.632 611.155 488.736C611.155 486.912 611.611 485.4 612.571 484.2C613.579 482.904 614.995 482.256 616.771 482.256C618.211 482.256 619.435 482.928 620.467 484.296V477.528ZM617.419 484.464C616.171 484.464 615.283 484.872 614.707 485.688C614.203 486.384 613.963 487.392 613.963 488.736C613.963 490.08 614.179 491.112 614.659 491.832C615.211 492.696 616.099 493.128 617.323 493.128C618.379 493.128 619.219 492.696 619.795 491.856C620.299 491.088 620.563 490.08 620.563 488.88V488.688C620.563 487.368 620.227 486.312 619.603 485.544C619.027 484.824 618.283 484.464 617.419 484.464ZM631.353 482.256C633.393 482.256 634.953 482.928 636.033 484.32C637.017 485.568 637.521 487.32 637.521 489.552H628.233C628.329 490.704 628.641 491.592 629.169 492.192C629.697 492.792 630.465 493.104 631.449 493.104C632.289 493.104 632.961 492.912 633.489 492.528C633.897 492.216 634.257 491.712 634.593 491.016H637.329C637.041 492.168 636.465 493.152 635.601 493.92C634.497 494.856 633.129 495.336 631.473 495.336C629.625 495.336 628.161 494.76 627.081 493.632C625.929 492.456 625.353 490.848 625.353 488.784C625.353 486.936 625.881 485.4 626.985 484.152C628.041 482.88 629.505 482.256 631.353 482.256ZM631.425 484.488C630.513 484.488 629.817 484.728 629.289 485.256C628.785 485.76 628.449 486.504 628.281 487.488H634.665C634.425 485.472 633.345 484.488 631.425 484.488ZM645.546 482.256C646.146 482.256 646.674 482.352 647.106 482.568V485.304C646.482 485.112 645.906 485.04 645.33 485.04C644.61 485.04 643.962 485.304 643.386 485.88C642.714 486.528 642.402 487.368 642.402 488.424V495H639.69V482.592H642.402V484.368C642.738 483.744 643.122 483.264 643.578 482.928C644.13 482.472 644.778 482.256 645.546 482.256ZM648.907 477.528H651.643V495H648.907V477.528ZM660.4 482.256C662.224 482.256 663.592 482.712 664.456 483.624C665.224 484.416 665.608 485.568 665.608 487.08V495H663.064V493.368C662.584 493.992 661.984 494.448 661.288 494.784C660.496 495.144 659.56 495.336 658.48 495.336C657.184 495.336 656.176 495 655.432 494.352C654.664 493.68 654.28 492.84 654.28 491.808C654.28 490.416 654.808 489.336 655.912 488.592C656.92 487.872 658.336 487.488 660.16 487.44L662.872 487.368V486.888C662.872 485.256 661.984 484.464 660.208 484.464C659.44 484.464 658.84 484.584 658.384 484.872C657.856 485.184 657.496 485.664 657.352 486.312L654.64 486.096C654.904 484.728 655.576 483.72 656.656 483.096C657.568 482.52 658.816 482.256 660.4 482.256ZM662.872 489.336L660.352 489.408C658.168 489.456 657.088 490.224 657.088 491.712C657.088 492.144 657.256 492.504 657.64 492.792C658.024 493.08 658.504 493.248 659.104 493.248C660.16 493.248 661.048 492.936 661.768 492.336C662.488 491.712 662.872 490.92 662.872 489.96V489.336ZM674.903 482.256C677.999 482.256 679.559 483.936 679.559 487.344V495H676.823V487.584C676.823 485.544 675.887 484.536 674.015 484.536C673.343 484.536 672.743 484.776 672.239 485.256C671.663 485.784 671.327 486.552 671.231 487.536V495H668.495V482.592H671.231V484.032C671.711 483.456 672.263 483 672.863 482.712C673.487 482.4 674.159 482.256 674.903 482.256ZM691.272 477.528H694.008V495H691.464V493.68C690.6 494.784 689.352 495.336 687.72 495.336C685.872 495.336 684.432 494.688 683.4 493.392C682.44 492.192 681.96 490.632 681.96 488.736C681.96 486.912 682.416 485.4 683.376 484.2C684.384 482.904 685.8 482.256 687.576 482.256C689.016 482.256 690.24 482.928 691.272 484.296V477.528ZM688.224 484.464C686.976 484.464 686.088 484.872 685.512 485.688C685.008 486.384 684.768 487.392 684.768 488.736C684.768 490.08 684.984 491.112 685.464 491.832C686.016 492.696 686.904 493.128 688.128 493.128C689.184 493.128 690.024 492.696 690.6 491.856C691.104 491.088 691.368 490.08 691.368 488.88V488.688C691.368 487.368 691.032 486.312 690.408 485.544C689.832 484.824 689.088 484.464 688.224 484.464ZM701.558 482.256C704.822 482.256 706.622 483.552 706.91 486.192H704.246C704.054 485.568 703.766 485.112 703.382 484.872C702.974 484.608 702.35 484.488 701.51 484.488C700.79 484.488 700.238 484.584 699.878 484.8C699.446 485.016 699.254 485.352 699.254 485.832C699.254 486.216 699.566 486.576 700.238 486.864C700.646 487.032 701.462 487.272 702.71 487.584C704.102 487.92 705.158 488.304 705.83 488.76C706.814 489.384 707.318 490.272 707.318 491.376C707.318 494.016 705.446 495.336 701.726 495.336C698.27 495.336 696.422 493.872 696.158 490.968H698.822C698.965 491.76 699.254 492.312 699.662 492.648C700.07 492.936 700.718 493.104 701.63 493.104C703.55 493.104 704.51 492.576 704.51 491.568C704.51 490.992 704.15 490.536 703.43 490.2C703.046 490.008 702.23 489.792 700.982 489.504C699.518 489.168 698.486 488.808 697.886 488.424C696.926 487.824 696.446 486.984 696.446 485.904C696.446 484.752 696.902 483.864 697.862 483.24C698.798 482.568 700.022 482.256 701.558 482.256Z"
    fill="#F08633" />
  <path
    d="M318.68 447.864H321.488V465H318.68V447.864ZM331.012 452.256C334.108 452.256 335.668 453.936 335.668 457.344V465H332.932V457.584C332.932 455.544 331.996 454.536 330.124 454.536C329.452 454.536 328.852 454.776 328.348 455.256C327.772 455.784 327.436 456.552 327.34 457.536V465H324.604V452.592H327.34V454.032C327.82 453.456 328.372 453 328.972 452.712C329.596 452.4 330.268 452.256 331.012 452.256ZM347.381 447.528H350.117V465H347.573V463.68C346.709 464.784 345.461 465.336 343.829 465.336C341.981 465.336 340.541 464.688 339.509 463.392C338.549 462.192 338.069 460.632 338.069 458.736C338.069 456.912 338.525 455.4 339.485 454.2C340.493 452.904 341.909 452.256 343.685 452.256C345.125 452.256 346.349 452.928 347.381 454.296V447.528ZM344.333 454.464C343.085 454.464 342.197 454.872 341.621 455.688C341.117 456.384 340.877 457.392 340.877 458.736C340.877 460.08 341.093 461.112 341.573 461.832C342.125 462.696 343.013 463.128 344.237 463.128C345.293 463.128 346.133 462.696 346.709 461.856C347.213 461.088 347.477 460.08 347.477 458.88V458.688C347.477 457.368 347.141 456.312 346.517 455.544C345.941 454.824 345.197 454.464 344.333 454.464ZM358.747 452.256C360.619 452.256 362.131 452.856 363.283 454.104C364.411 455.328 364.987 456.888 364.987 458.808C364.987 460.704 364.411 462.264 363.307 463.464C362.155 464.712 360.619 465.336 358.747 465.336C356.851 465.336 355.339 464.712 354.187 463.464C353.059 462.264 352.507 460.704 352.507 458.808C352.507 456.888 353.059 455.328 354.211 454.104C355.339 452.856 356.851 452.256 358.747 452.256ZM358.747 454.488C357.595 454.488 356.731 454.92 356.107 455.832C355.579 456.6 355.315 457.608 355.315 458.808C355.315 460.008 355.579 460.992 356.107 461.76C356.731 462.648 357.595 463.104 358.747 463.104C359.875 463.104 360.763 462.648 361.387 461.76C361.915 460.968 362.203 459.984 362.203 458.808C362.203 457.608 361.915 456.6 361.387 455.832C360.763 454.92 359.875 454.488 358.747 454.488ZM373.786 452.256C376.882 452.256 378.442 453.936 378.442 457.344V465H375.706V457.584C375.706 455.544 374.77 454.536 372.898 454.536C372.226 454.536 371.626 454.776 371.122 455.256C370.546 455.784 370.21 456.552 370.114 457.536V465H367.378V452.592H370.114V454.032C370.594 453.456 371.146 453 371.746 452.712C372.37 452.4 373.042 452.256 373.786 452.256ZM386.603 452.256C388.643 452.256 390.203 452.928 391.283 454.32C392.267 455.568 392.771 457.32 392.771 459.552H383.483C383.579 460.704 383.891 461.592 384.419 462.192C384.947 462.792 385.715 463.104 386.699 463.104C387.539 463.104 388.211 462.912 388.739 462.528C389.147 462.216 389.507 461.712 389.843 461.016H392.579C392.291 462.168 391.715 463.152 390.851 463.92C389.747 464.856 388.379 465.336 386.723 465.336C384.875 465.336 383.411 464.76 382.331 463.632C381.179 462.456 380.603 460.848 380.603 458.784C380.603 456.936 381.131 455.4 382.235 454.152C383.291 452.88 384.755 452.256 386.603 452.256ZM386.675 454.488C385.763 454.488 385.067 454.728 384.539 455.256C384.035 455.76 383.699 456.504 383.531 457.488H389.915C389.675 455.472 388.595 454.488 386.675 454.488ZM399.62 452.256C402.884 452.256 404.684 453.552 404.972 456.192H402.308C402.116 455.568 401.828 455.112 401.444 454.872C401.036 454.608 400.412 454.488 399.572 454.488C398.852 454.488 398.3 454.584 397.94 454.8C397.508 455.016 397.316 455.352 397.316 455.832C397.316 456.216 397.628 456.576 398.3 456.864C398.708 457.032 399.524 457.272 400.772 457.584C402.164 457.92 403.22 458.304 403.892 458.76C404.876 459.384 405.38 460.272 405.38 461.376C405.38 464.016 403.508 465.336 399.788 465.336C396.332 465.336 394.484 463.872 394.22 460.968H396.884C397.028 461.76 397.316 462.312 397.724 462.648C398.132 462.936 398.78 463.104 399.692 463.104C401.612 463.104 402.572 462.576 402.572 461.568C402.572 460.992 402.212 460.536 401.492 460.2C401.108 460.008 400.292 459.792 399.044 459.504C397.58 459.168 396.548 458.808 395.948 458.424C394.988 457.824 394.508 456.984 394.508 455.904C394.508 454.752 394.964 453.864 395.924 453.24C396.86 452.568 398.084 452.256 399.62 452.256ZM409.397 447.528C409.925 447.528 410.381 447.696 410.741 448.032C411.077 448.368 411.269 448.8 411.269 449.328C411.269 449.856 411.077 450.312 410.717 450.648C410.357 450.984 409.925 451.152 409.397 451.152C408.869 451.152 408.437 450.984 408.077 450.648C407.717 450.288 407.549 449.856 407.549 449.328C407.549 448.8 407.717 448.368 408.077 448.032C408.437 447.696 408.869 447.528 409.397 447.528ZM408.029 452.592H410.765V465H408.029V452.592ZM419.799 452.256C421.623 452.256 422.991 452.712 423.855 453.624C424.623 454.416 425.007 455.568 425.007 457.08V465H422.463V463.368C421.983 463.992 421.383 464.448 420.687 464.784C419.895 465.144 418.959 465.336 417.879 465.336C416.583 465.336 415.575 465 414.831 464.352C414.063 463.68 413.679 462.84 413.679 461.808C413.679 460.416 414.207 459.336 415.311 458.592C416.319 457.872 417.735 457.488 419.559 457.44L422.271 457.368V456.888C422.271 455.256 421.383 454.464 419.607 454.464C418.839 454.464 418.239 454.584 417.783 454.872C417.255 455.184 416.895 455.664 416.751 456.312L414.039 456.096C414.303 454.728 414.975 453.72 416.055 453.096C416.967 452.52 418.215 452.256 419.799 452.256ZM422.271 459.336L419.751 459.408C417.567 459.456 416.487 460.224 416.487 461.712C416.487 462.144 416.655 462.504 417.039 462.792C417.423 463.08 417.903 463.248 418.503 463.248C419.559 463.248 420.447 462.936 421.167 462.336C421.887 461.712 422.271 460.92 422.271 459.96V459.336Z"
    fill="#EB3223" />
  <path
    d="M155.68 454.864H162.784C166.912 454.864 169 456.616 169 460.12C169 463.648 166.912 465.424 162.736 465.424H158.488V472H155.68V454.864ZM158.488 457.264V463.024H162.568C163.816 463.024 164.728 462.784 165.304 462.352C165.88 461.896 166.168 461.152 166.168 460.12C166.168 459.088 165.856 458.368 165.28 457.936C164.704 457.48 163.792 457.264 162.568 457.264H158.488ZM176.927 459.256C178.799 459.256 180.311 459.856 181.463 461.104C182.591 462.328 183.167 463.888 183.167 465.808C183.167 467.704 182.591 469.264 181.487 470.464C180.335 471.712 178.799 472.336 176.927 472.336C175.031 472.336 173.519 471.712 172.367 470.464C171.239 469.264 170.687 467.704 170.687 465.808C170.687 463.888 171.239 462.328 172.391 461.104C173.519 459.856 175.031 459.256 176.927 459.256ZM176.927 461.488C175.775 461.488 174.911 461.92 174.287 462.832C173.759 463.6 173.495 464.608 173.495 465.808C173.495 467.008 173.759 467.992 174.287 468.76C174.911 469.648 175.775 470.104 176.927 470.104C178.055 470.104 178.943 469.648 179.567 468.76C180.095 467.968 180.383 466.984 180.383 465.808C180.383 464.608 180.095 463.6 179.567 462.832C178.943 461.92 178.055 461.488 176.927 461.488ZM191.413 459.256C192.013 459.256 192.541 459.352 192.973 459.568V462.304C192.349 462.112 191.773 462.04 191.197 462.04C190.477 462.04 189.829 462.304 189.253 462.88C188.581 463.528 188.269 464.368 188.269 465.424V472H185.557V459.592H188.269V461.368C188.605 460.744 188.989 460.264 189.445 459.928C189.997 459.472 190.645 459.256 191.413 459.256ZM198.422 455.584V459.592H201.182V461.848H198.422V468.856C198.422 469.144 198.47 469.36 198.614 469.528C198.758 469.672 198.95 469.744 199.238 469.744H200.87V472H198.782C197.702 472 196.91 471.712 196.406 471.136C195.926 470.608 195.686 469.864 195.686 468.856V461.848H193.454V459.592H195.686V456.712L198.422 455.584ZM203.229 459.592H205.965V467.152C205.965 468.16 206.157 468.88 206.589 469.36C207.021 469.816 207.693 470.056 208.653 470.056C209.253 470.056 209.829 469.792 210.381 469.288C210.933 468.76 211.341 468.064 211.581 467.176V459.592H214.317V472H211.581V470.392C210.525 471.688 209.229 472.336 207.693 472.336C204.717 472.336 203.229 470.656 203.229 467.32V459.592ZM222.358 459.256C223.894 459.256 225.118 459.856 226.03 461.104V459.592H228.766V471.208C228.766 475.12 226.822 477.088 222.934 477.088C221.182 477.088 219.862 476.752 218.95 476.128C218.038 475.456 217.462 474.448 217.222 473.056H219.958C220.102 473.752 220.39 474.232 220.846 474.52C221.278 474.784 221.974 474.928 222.934 474.928C224.998 474.928 226.03 473.824 226.03 471.616V469.792C225.118 471.064 223.894 471.712 222.358 471.712C220.678 471.712 219.31 471.136 218.278 470.032C217.222 468.904 216.718 467.392 216.718 465.52C216.718 463.648 217.222 462.136 218.278 460.984C219.31 459.832 220.678 459.256 222.358 459.256ZM222.79 461.464C221.758 461.464 220.966 461.824 220.39 462.544C219.814 463.24 219.526 464.224 219.526 465.52C219.526 466.696 219.742 467.608 220.198 468.28C220.726 469.072 221.566 469.48 222.766 469.48C223.822 469.48 224.638 469.12 225.214 468.448C225.766 467.728 226.054 466.768 226.054 465.52C226.054 464.248 225.766 463.264 225.214 462.544C224.638 461.824 223.822 461.464 222.79 461.464ZM231.635 459.592H234.371V467.152C234.371 468.16 234.563 468.88 234.995 469.36C235.427 469.816 236.099 470.056 237.059 470.056C237.659 470.056 238.235 469.792 238.787 469.288C239.339 468.76 239.747 468.064 239.987 467.176V459.592H242.723V472H239.987V470.392C238.931 471.688 237.635 472.336 236.099 472.336C233.123 472.336 231.635 470.656 231.635 467.32V459.592ZM249.756 454.816H252.18L254.628 457.864H252.924L250.98 455.968L249.012 457.864H247.308L249.756 454.816ZM250.884 459.256C252.924 459.256 254.484 459.928 255.564 461.32C256.548 462.568 257.052 464.32 257.052 466.552H247.764C247.86 467.704 248.172 468.592 248.7 469.192C249.228 469.792 249.996 470.104 250.98 470.104C251.82 470.104 252.492 469.912 253.02 469.528C253.428 469.216 253.788 468.712 254.124 468.016H256.86C256.572 469.168 255.996 470.152 255.132 470.92C254.028 471.856 252.66 472.336 251.004 472.336C249.156 472.336 247.692 471.76 246.612 470.632C245.46 469.456 244.884 467.848 244.884 465.784C244.884 463.936 245.412 462.4 246.516 461.152C247.572 459.88 249.036 459.256 250.884 459.256ZM250.956 461.488C250.044 461.488 249.348 461.728 248.82 462.256C248.316 462.76 247.98 463.504 247.812 464.488H254.196C253.956 462.472 252.876 461.488 250.956 461.488ZM263.901 459.256C267.165 459.256 268.965 460.552 269.253 463.192H266.589C266.397 462.568 266.109 462.112 265.725 461.872C265.317 461.608 264.693 461.488 263.853 461.488C263.133 461.488 262.581 461.584 262.221 461.8C261.789 462.016 261.597 462.352 261.597 462.832C261.597 463.216 261.909 463.576 262.581 463.864C262.989 464.032 263.805 464.272 265.053 464.584C266.445 464.92 267.501 465.304 268.173 465.76C269.157 466.384 269.661 467.272 269.661 468.376C269.661 471.016 267.789 472.336 264.069 472.336C260.613 472.336 258.765 470.872 258.501 467.968H261.165C261.309 468.76 261.597 469.312 262.005 469.648C262.413 469.936 263.061 470.104 263.973 470.104C265.893 470.104 266.853 469.576 266.853 468.568C266.853 467.992 266.493 467.536 265.773 467.2C265.389 467.008 264.573 466.792 263.325 466.504C261.861 466.168 260.829 465.808 260.229 465.424C259.269 464.824 258.789 463.984 258.789 462.904C258.789 461.752 259.245 460.864 260.205 460.24C261.141 459.568 262.365 459.256 263.901 459.256Z"
    fill="#2A6319" />
  <path
    d="M270.728 201.256C272.552 201.256 273.992 201.904 275.048 203.2C276.008 204.4 276.488 205.936 276.488 207.856C276.488 209.68 276.008 211.192 275.072 212.392C274.064 213.688 272.648 214.336 270.872 214.336C269.432 214.336 268.184 213.64 267.176 212.296V218.752H264.44V201.592H266.984V202.912C267.848 201.808 269.096 201.256 270.728 201.256ZM270.32 203.464C269.24 203.464 268.424 203.872 267.848 204.736C267.32 205.48 267.08 206.464 267.08 207.712V207.904C267.08 209.2 267.392 210.256 268.04 211.048C268.616 211.768 269.336 212.128 270.224 212.128C271.424 212.128 272.336 211.72 272.912 210.952C273.416 210.232 273.68 209.2 273.68 207.856C273.68 206.512 273.44 205.48 272.984 204.76C272.408 203.896 271.52 203.464 270.32 203.464ZM277.558 201.592H280.534L283.846 210.4L286.966 201.592H289.942L285.07 214.144C284.398 215.824 283.726 217 283.03 217.648C282.214 218.368 281.086 218.752 279.646 218.752H278.494V216.52H279.166C280.222 216.52 281.086 216.064 281.758 215.2C281.998 214.864 282.238 214.408 282.526 213.784L277.558 201.592ZM297.078 201.256C298.686 201.256 299.958 201.616 300.918 202.336C301.902 203.104 302.526 204.256 302.766 205.816H300.054C299.886 205.024 299.55 204.448 299.07 204.064C298.566 203.68 297.894 203.488 297.078 203.488C296.07 203.488 295.278 203.848 294.702 204.616C294.126 205.36 293.838 206.416 293.838 207.76C293.838 209.128 294.102 210.208 294.678 210.976C295.206 211.72 295.998 212.104 297.054 212.104C298.878 212.104 299.886 211.192 300.102 209.392H302.814C302.526 211.072 301.878 212.32 300.894 213.136C299.934 213.928 298.638 214.336 297.03 214.336C295.11 214.336 293.622 213.712 292.566 212.464C291.534 211.264 291.03 209.704 291.03 207.784C291.03 205.912 291.534 204.376 292.542 203.2C293.622 201.904 295.134 201.256 297.078 201.256ZM310.531 201.256C312.139 201.256 313.411 201.616 314.371 202.336C315.355 203.104 315.979 204.256 316.219 205.816H313.507C313.339 205.024 313.003 204.448 312.523 204.064C312.019 203.68 311.347 203.488 310.531 203.488C309.523 203.488 308.731 203.848 308.155 204.616C307.579 205.36 307.291 206.416 307.291 207.76C307.291 209.128 307.555 210.208 308.131 210.976C308.659 211.72 309.451 212.104 310.507 212.104C312.331 212.104 313.339 211.192 313.555 209.392H316.267C315.979 211.072 315.331 212.32 314.347 213.136C313.387 213.928 312.091 214.336 310.483 214.336C308.563 214.336 307.075 213.712 306.019 212.464C304.987 211.264 304.483 209.704 304.483 207.784C304.483 205.912 304.987 204.376 305.995 203.2C307.075 201.904 308.587 201.256 310.531 201.256ZM318.417 201.592H321.153V206.584C322.641 206.488 323.745 206.08 324.513 205.336C325.281 204.568 325.785 203.32 326.049 201.592H328.881C328.497 204.088 327.657 205.912 326.409 207.04C326.265 207.16 326.121 207.28 325.977 207.376L329.745 214H326.505L323.529 208.504C322.809 208.672 322.017 208.768 321.153 208.816V214H318.417V201.592ZM331.659 201.592H334.395V210.016L339.939 201.592H342.843V214H340.107V205.552L334.539 214H331.659V201.592ZM347.113 196.792H349.225C349.321 197.416 349.513 197.872 349.849 198.112C350.161 198.352 350.641 198.496 351.313 198.496C351.961 198.496 352.441 198.352 352.777 198.112C353.113 197.872 353.329 197.416 353.425 196.792H355.537C355.345 197.896 354.937 198.712 354.313 199.216C353.665 199.696 352.681 199.936 351.337 199.936C349.993 199.936 348.985 199.672 348.361 199.192C347.689 198.688 347.281 197.896 347.113 196.792ZM345.721 201.592H348.457V210.016L354.001 201.592H356.905V214H354.169V205.552L348.601 214H345.721V201.592Z"
    fill="#05349A" />
  <path
    d="M224.344 124.12C223.208 124.12 222.224 123.976 221.392 123.688C220.576 123.384 219.944 122.904 219.496 122.248C219.048 121.576 218.792 120.68 218.728 119.56L218.296 109.888H221.68L222.088 118.384C222.12 119.04 222.224 119.544 222.4 119.896C222.592 120.232 222.864 120.464 223.216 120.592C223.568 120.704 224.024 120.76 224.584 120.76C225.192 120.76 225.624 120.92 225.88 121.24C226.136 121.544 226.264 121.928 226.264 122.392C226.264 122.888 226.096 123.304 225.76 123.64C225.44 123.96 224.968 124.12 224.344 124.12ZM219.952 121.888C218.88 122.128 217.848 122.24 216.856 122.224C215.864 122.192 214.976 122.016 214.192 121.696C213.408 121.36 212.784 120.88 212.32 120.256C211.872 119.632 211.648 118.84 211.648 117.88C211.648 117.032 211.832 116.264 212.2 115.576C212.584 114.872 213.112 114.256 213.784 113.728C214.472 113.2 215.272 112.752 216.184 112.384C217.096 112.016 218.088 111.736 219.16 111.544L219.496 114.952C218.808 114.984 218.184 115.08 217.624 115.24C217.08 115.384 216.608 115.576 216.208 115.816C215.824 116.056 215.528 116.328 215.32 116.632C215.112 116.92 215.008 117.232 215.008 117.568C215.008 117.84 215.104 118.064 215.296 118.24C215.488 118.416 215.744 118.56 216.064 118.672C216.384 118.768 216.752 118.824 217.168 118.84C217.584 118.856 218.008 118.832 218.44 118.768C218.888 118.704 219.328 118.6 219.76 118.456L219.952 121.888ZM220.024 107.416C219.56 107.416 219.16 107.256 218.824 106.936C218.504 106.6 218.344 106.208 218.344 105.76C218.344 105.296 218.504 104.896 218.824 104.56C219.16 104.224 219.56 104.056 220.024 104.056C220.472 104.056 220.856 104.224 221.176 104.56C221.496 104.896 221.656 105.296 221.656 105.76C221.656 106.208 221.496 106.6 221.176 106.936C220.856 107.256 220.472 107.416 220.024 107.416ZM215.872 107.392C215.408 107.392 215.008 107.232 214.672 106.912C214.352 106.576 214.192 106.184 214.192 105.736C214.192 105.272 214.352 104.872 214.672 104.536C215.008 104.2 215.408 104.032 215.872 104.032C216.32 104.032 216.704 104.2 217.024 104.536C217.344 104.872 217.504 105.272 217.504 105.736C217.504 106.184 217.344 106.576 217.024 106.912C216.704 107.232 216.32 107.392 215.872 107.392ZM224.336 124.12L224.576 120.76C225.152 120.76 225.648 120.704 226.064 120.592C226.48 120.48 226.832 120.256 227.12 119.92C227.408 119.568 227.648 119.056 227.84 118.384C228.048 117.712 228.232 116.816 228.392 115.696L231.536 116.224C231.504 116.464 231.456 116.744 231.392 117.064C231.344 117.384 231.296 117.712 231.248 118.048C231.216 118.368 231.2 118.672 231.2 118.96C231.2 119.248 231.256 119.504 231.368 119.728C231.48 119.952 231.656 120.144 231.896 120.304C232.152 120.448 232.48 120.56 232.88 120.64C233.296 120.72 233.8 120.76 234.392 120.76C235 120.76 235.432 120.92 235.688 121.24C235.944 121.544 236.072 121.928 236.072 122.392C236.072 122.888 235.904 123.304 235.568 123.64C235.248 123.96 234.776 124.12 234.152 124.12C233.432 124.12 232.776 124.064 232.184 123.952C231.608 123.84 231.104 123.656 230.672 123.4C230.256 123.128 229.912 122.776 229.64 122.344C229.384 121.896 229.224 121.352 229.16 120.712H230.312C230.024 121.48 229.656 122.096 229.208 122.56C228.776 123.008 228.288 123.344 227.744 123.568C227.2 123.792 226.632 123.936 226.04 124C225.464 124.08 224.896 124.12 224.336 124.12ZM231.032 129.688C230.568 129.688 230.168 129.52 229.832 129.184C229.512 128.864 229.352 128.48 229.352 128.032C229.352 127.568 229.512 127.168 229.832 126.832C230.168 126.496 230.568 126.328 231.032 126.328C231.48 126.328 231.864 126.496 232.184 126.832C232.504 127.168 232.664 127.568 232.664 128.032C232.664 128.48 232.504 128.864 232.184 129.184C231.864 129.52 231.48 129.688 231.032 129.688ZM226.88 129.688C226.416 129.688 226.016 129.52 225.68 129.184C225.36 128.864 225.2 128.48 225.2 128.032C225.2 127.568 225.36 127.168 225.68 126.832C226.016 126.496 226.416 126.328 226.88 126.328C227.328 126.328 227.712 126.496 228.032 126.832C228.352 127.168 228.512 127.568 228.512 128.032C228.512 128.48 228.352 128.864 228.032 129.184C227.712 129.52 227.328 129.688 226.88 129.688ZM234.156 124.12L234.396 120.76C235.1 120.76 235.652 120.712 236.052 120.616C236.468 120.52 236.764 120.344 236.94 120.088C237.116 119.816 237.204 119.432 237.204 118.936C237.204 118.488 237.14 117.952 237.012 117.328C236.9 116.704 236.748 116.056 236.556 115.384C236.364 114.712 236.172 114.096 235.98 113.536L239.292 112.624C239.484 113.168 239.676 113.8 239.868 114.52C240.06 115.24 240.22 115.984 240.348 116.752C240.492 117.504 240.564 118.232 240.564 118.936C240.564 119.816 240.452 120.56 240.228 121.168C240.004 121.76 239.692 122.256 239.292 122.656C238.908 123.04 238.444 123.344 237.9 123.568C237.372 123.776 236.788 123.92 236.148 124C235.508 124.08 234.844 124.12 234.156 124.12ZM237.108 129.64C236.644 129.64 236.244 129.48 235.908 129.16C235.588 128.84 235.428 128.448 235.428 127.984C235.428 127.52 235.588 127.112 235.908 126.76C236.244 126.424 236.644 126.256 237.108 126.256C237.572 126.256 237.964 126.424 238.284 126.76C238.62 127.112 238.788 127.52 238.788 127.984C238.788 128.448 238.62 128.84 238.284 129.16C237.964 129.48 237.572 129.64 237.108 129.64ZM242.157 129.544L240.933 126.568C241.781 126.28 242.557 125.944 243.261 125.56C243.981 125.176 244.605 124.752 245.133 124.288C245.661 123.824 246.069 123.32 246.357 122.776C246.645 122.216 246.789 121.616 246.789 120.976C246.789 120.304 246.637 119.568 246.333 118.768C246.029 117.968 245.661 117.152 245.229 116.32L248.373 114.808C248.661 115.304 248.909 115.84 249.117 116.416C249.341 116.976 249.525 117.48 249.669 117.928C249.813 118.376 249.909 118.68 249.957 118.84C250.181 119.608 250.485 120.12 250.869 120.376C251.269 120.632 251.909 120.76 252.789 120.76C253.397 120.76 253.829 120.92 254.085 121.24C254.357 121.544 254.493 121.928 254.493 122.392C254.493 122.888 254.325 123.304 253.989 123.64C253.653 123.96 253.173 124.12 252.549 124.12C251.893 124.12 251.317 124.024 250.821 123.832C250.325 123.64 249.925 123.36 249.621 122.992C249.333 122.624 249.149 122.192 249.069 121.696L249.957 122.2C249.861 123.048 249.581 123.848 249.117 124.6C248.669 125.368 248.085 126.072 247.365 126.712C246.645 127.352 245.837 127.912 244.941 128.392C244.045 128.872 243.117 129.256 242.157 129.544ZM252.482 124.12L252.722 120.76C253.842 120.76 254.85 120.688 255.746 120.544C256.642 120.384 257.426 120.176 258.098 119.92C258.786 119.664 259.354 119.368 259.802 119.032C260.266 118.696 260.61 118.344 260.834 117.976C261.074 117.592 261.194 117.216 261.194 116.848C261.194 116.64 261.138 116.448 261.026 116.272C260.93 116.08 260.762 115.928 260.522 115.816C260.282 115.688 259.954 115.624 259.538 115.624C259.33 115.624 259.082 115.648 258.794 115.696C258.506 115.744 258.218 115.816 257.93 115.912C257.642 115.992 257.37 116.104 257.114 116.248C257.45 116.504 257.818 116.832 258.218 117.232C258.618 117.616 259.018 118.024 259.418 118.456C259.818 118.872 260.162 119.28 260.45 119.68C260.786 119.824 261.154 119.968 261.554 120.112C261.97 120.24 262.418 120.352 262.898 120.448C263.378 120.544 263.882 120.624 264.41 120.688C264.938 120.736 265.482 120.76 266.042 120.76C266.65 120.76 267.082 120.92 267.338 121.24C267.61 121.544 267.746 121.928 267.746 122.392C267.746 122.888 267.578 123.304 267.242 123.64C266.906 123.96 266.426 124.12 265.802 124.12C264.522 124.12 263.386 124.024 262.394 123.832C261.402 123.624 260.514 123.328 259.73 122.944C258.962 122.544 258.242 122.064 257.57 121.504C257.378 121.168 257.106 120.808 256.754 120.424C256.418 120.024 256.058 119.64 255.674 119.272C255.306 118.904 254.97 118.6 254.666 118.36C254.586 118.296 254.49 118.128 254.378 117.856C254.282 117.568 254.194 117.272 254.114 116.968C254.034 116.648 253.994 116.424 253.994 116.296C253.994 115.928 254.162 115.536 254.498 115.12C254.85 114.704 255.314 114.32 255.89 113.968C256.482 113.6 257.13 113.304 257.834 113.08C258.554 112.84 259.282 112.72 260.018 112.72C261.01 112.72 261.834 112.872 262.49 113.176C263.162 113.464 263.666 113.872 264.002 114.4C264.338 114.912 264.506 115.512 264.506 116.2C264.506 116.968 264.338 117.736 264.002 118.504C263.666 119.256 263.17 119.968 262.514 120.64C261.874 121.312 261.066 121.912 260.09 122.44C259.13 122.952 258.01 123.36 256.73 123.664C255.466 123.968 254.05 124.12 252.482 124.12ZM265.82 124.12L266.06 120.76C266.796 120.76 267.324 120.688 267.644 120.544C267.964 120.384 268.156 120.096 268.22 119.68C268.284 119.248 268.3 118.624 268.268 117.808L267.836 106.432H271.22L271.7 118.048C271.732 118.976 271.692 119.816 271.58 120.568C271.484 121.304 271.236 121.936 270.836 122.464C270.452 122.992 269.852 123.4 269.036 123.688C268.236 123.976 267.164 124.12 265.82 124.12ZM274.865 124L274.361 106.432H277.721L278.225 124H274.865Z"
    fill="#225333" />
  <circle cx="314" cy="250" r="25" fill="#05349A" />
  <circle cx="122" cy="338" r="17" fill="#D12F28" />
  <circle cx="154" cy="217" r="17" fill="#BE3D40" />
  <circle cx="790" cy="414" r="25" fill="#9294F1" />
  <circle cx="890.562" cy="516" r="17" fill="#9294F1" />
  <path
    d="M322.312 337.864H324.952V340.168H322.696C322.336 340.168 322.072 340.264 321.88 340.456C321.688 340.648 321.616 340.936 321.616 341.344V342.592H324.784V344.824H321.616V355H318.88V344.824H316.12V342.592H318.88V341.272C318.88 340.216 319.168 339.376 319.768 338.776C320.344 338.152 321.208 337.864 322.312 337.864ZM332.366 342.256C332.966 342.256 333.494 342.352 333.926 342.568V345.304C333.302 345.112 332.726 345.04 332.15 345.04C331.43 345.04 330.782 345.304 330.206 345.88C329.534 346.528 329.222 347.368 329.222 348.424V355H326.51V342.592H329.222V344.368C329.558 343.744 329.942 343.264 330.398 342.928C330.95 342.472 331.598 342.256 332.366 342.256ZM341.127 342.256C342.951 342.256 344.319 342.712 345.183 343.624C345.951 344.416 346.335 345.568 346.335 347.08V355H343.791V353.368C343.311 353.992 342.711 354.448 342.015 354.784C341.223 355.144 340.287 355.336 339.207 355.336C337.911 355.336 336.903 355 336.159 354.352C335.391 353.68 335.007 352.84 335.007 351.808C335.007 350.416 335.535 349.336 336.639 348.592C337.647 347.872 339.063 347.488 340.887 347.44L343.599 347.368V346.888C343.599 345.256 342.711 344.464 340.935 344.464C340.167 344.464 339.567 344.584 339.111 344.872C338.583 345.184 338.223 345.664 338.079 346.312L335.367 346.096C335.631 344.728 336.303 343.72 337.383 343.096C338.295 342.52 339.543 342.256 341.127 342.256ZM343.599 349.336L341.079 349.408C338.895 349.456 337.815 350.224 337.815 351.712C337.815 352.144 337.983 352.504 338.367 352.792C338.751 353.08 339.231 353.248 339.831 353.248C340.887 353.248 341.775 352.936 342.495 352.336C343.215 351.712 343.599 350.92 343.599 349.96V349.336ZM355.629 342.256C358.725 342.256 360.285 343.936 360.285 347.344V355H357.549V347.584C357.549 345.544 356.613 344.536 354.741 344.536C354.069 344.536 353.469 344.776 352.965 345.256C352.389 345.784 352.053 346.552 351.957 347.536V355H349.221V342.592H351.957V344.032C352.437 343.456 352.989 343 353.589 342.712C354.213 342.4 354.885 342.256 355.629 342.256ZM368.735 342.256C370.343 342.256 371.615 342.616 372.575 343.336C373.559 344.104 374.183 345.256 374.423 346.816H371.711C371.543 346.024 371.207 345.448 370.727 345.064C370.223 344.68 369.551 344.488 368.735 344.488C367.727 344.488 366.935 344.848 366.359 345.616C365.783 346.36 365.495 347.416 365.495 348.76C365.495 350.128 365.759 351.208 366.335 351.976C366.863 352.72 367.655 353.104 368.711 353.104C370.535 353.104 371.543 352.192 371.759 350.392H374.471C374.183 352.072 373.535 353.32 372.551 354.136C371.735 354.808 370.655 355.216 369.359 355.312L369.047 356.176C369.335 356.152 369.527 356.152 369.623 356.152C370.199 356.152 370.679 356.296 371.087 356.632C371.495 356.944 371.711 357.4 371.711 358C371.711 358.792 371.351 359.368 370.679 359.728C370.175 359.968 369.503 360.088 368.663 360.088C367.895 360.088 367.103 359.896 366.311 359.512L366.743 358.552C367.319 358.84 367.895 359.008 368.423 359.008C368.903 359.008 369.263 358.912 369.503 358.768C369.743 358.6 369.863 358.36 369.863 358.024C369.863 357.4 369.359 357.112 368.375 357.112C368.207 357.112 367.871 357.136 367.343 357.184L368.039 355.312C366.431 355.168 365.159 354.568 364.223 353.464C363.191 352.264 362.687 350.704 362.687 348.784C362.687 346.912 363.191 345.376 364.199 344.2C365.279 342.904 366.791 342.256 368.735 342.256ZM382.26 342.256C384.084 342.256 385.452 342.712 386.316 343.624C387.084 344.416 387.468 345.568 387.468 347.08V355H384.924V353.368C384.444 353.992 383.844 354.448 383.148 354.784C382.356 355.144 381.42 355.336 380.34 355.336C379.044 355.336 378.036 355 377.292 354.352C376.524 353.68 376.14 352.84 376.14 351.808C376.14 350.416 376.668 349.336 377.772 348.592C378.78 347.872 380.196 347.488 382.02 347.44L384.732 347.368V346.888C384.732 345.256 383.844 344.464 382.068 344.464C381.3 344.464 380.7 344.584 380.244 344.872C379.716 345.184 379.356 345.664 379.212 346.312L376.5 346.096C376.764 344.728 377.436 343.72 378.516 343.096C379.428 342.52 380.676 342.256 382.26 342.256ZM384.732 349.336L382.212 349.408C380.028 349.456 378.948 350.224 378.948 351.712C378.948 352.144 379.116 352.504 379.5 352.792C379.884 353.08 380.364 353.248 380.964 353.248C382.02 353.248 382.908 352.936 383.628 352.336C384.348 351.712 384.732 350.92 384.732 349.96V349.336ZM392.202 337.528C392.73 337.528 393.186 337.696 393.546 338.032C393.882 338.368 394.074 338.8 394.074 339.328C394.074 339.856 393.882 340.312 393.522 340.648C393.162 340.984 392.73 341.152 392.202 341.152C391.674 341.152 391.242 340.984 390.882 340.648C390.522 340.288 390.354 339.856 390.354 339.328C390.354 338.8 390.522 338.368 390.882 338.032C391.242 337.696 391.674 337.528 392.202 337.528ZM390.834 342.592H393.57V355H390.834V342.592ZM401.643 342.256C404.907 342.256 406.707 343.552 406.995 346.192H404.331C404.139 345.568 403.851 345.112 403.467 344.872C403.059 344.608 402.435 344.488 401.595 344.488C400.875 344.488 400.323 344.584 399.963 344.8C399.531 345.016 399.339 345.352 399.339 345.832C399.339 346.216 399.651 346.576 400.323 346.864C400.731 347.032 401.547 347.272 402.795 347.584C404.187 347.92 405.243 348.304 405.915 348.76C406.899 349.384 407.403 350.272 407.403 351.376C407.403 354.016 405.531 355.336 401.811 355.336C398.355 355.336 396.507 353.872 396.243 350.968H398.907C399.051 351.76 399.339 352.312 399.747 352.648C400.155 352.936 400.803 353.104 401.715 353.104C403.635 353.104 404.595 352.576 404.595 351.568C404.595 350.992 404.235 350.536 403.515 350.2C403.131 350.008 402.315 349.792 401.067 349.504C399.603 349.168 398.571 348.808 397.971 348.424C397.011 347.824 396.531 346.984 396.531 345.904C396.531 344.752 396.987 343.864 397.947 343.24C398.883 342.568 400.107 342.256 401.643 342.256Z"
    fill="#082651" />
  <circle cx="364" cy="392" r="25" fill="#082651" />
  <circle cx="594.562" cy="76" r="8" fill="#ECA197" />
  <circle cx="308.562" cy="115" r="8" fill="#ECA197" />
  <circle cx="221.562" cy="76" r="8" fill="#ECA197" />
  <circle cx="35.5625" cy="396" r="8" fill="#ECA197" />
  <circle cx="749" cy="338" r="17" fill="#AE232F" />
  <circle cx="247" cy="165" r="25" fill="#225333" />
  <circle cx="571" cy="188" r="25" fill="#DC3832" />
  <circle cx="692.562" cy="428" r="8" fill="#ECA197" />
  <circle cx="528.562" cy="482" r="8" fill="#ECA197" />
  <circle cx="221.562" cy="293" r="8" fill="#ECA197" />
  <circle cx="734" cy="172" r="17" fill="#CC2E3F" />
  <circle cx="732.562" cy="64" r="17" fill="#CECEE2" />
  <circle cx="98" cy="440" r="17" fill="#CECEE2" />
  <circle cx="373" cy="493" r="17" fill="#EB3223" />
  <circle cx="175.562" cy="381" r="8" fill="#CECEE2" />
  <circle cx="128.562" cy="526" r="8" fill="#CECEE2" />
  <circle cx="309.562" cy="490" r="8" fill="#CECEE2" />
  <circle cx="749.562" cy="508" r="8" fill="#CECEE2" />
  <circle cx="797.562" cy="338" r="8" fill="#CECEE2" />
  <circle cx="661.562" cy="217" r="8" fill="#CECEE2" />
  <circle cx="308.562" cy="25" r="25" fill="#CECEE2" />
  <circle cx="128.562" cy="83" r="25" fill="#CECEE2" />
  <circle cx="852.562" cy="82" r="25" fill="#9294F1" />
  <circle cx="72.5625" cy="36" r="17" fill="#9294F1" />
  <circle cx="34.5625" cy="172" r="17" fill="#9294F1" />
  <circle cx="273.562" cy="389" r="17" fill="#9294F1" />
  <circle cx="467.562" cy="441" r="25" fill="#9294F1" />
  <circle cx="645" cy="523" r="17" fill="#F08633" />
  <circle cx="72.5625" cy="235" r="8" fill="#9294F1" />
  <circle cx="145.562" cy="292" r="8" fill="#9294F1" />
  <circle cx="413.562" cy="64" r="8" fill="#9294F1" />
  <circle cx="771.562" cy="104" r="8" fill="#9294F1" />
  <circle cx="657" cy="291" r="25" fill="#A02823" />
  <circle cx="874" cy="182" r="17" fill="black" />
  <circle cx="432" cy="150" r="25" fill="#A53138" />
  <circle cx="107.562" cy="149" r="8" fill="#98CBA0" />
  <circle cx="215" cy="500" r="17" fill="#2A6319" />
  <circle cx="517.562" cy="104" r="17" fill="#98CBA0" />
  <circle cx="829" cy="256" r="25" fill="#98CBA0" />
  <circle cx="587.562" cy="397" r="25" fill="#98CBA0" />
  <circle cx="892.562" cy="245" r="8" fill="#98CBA0" />
  <circle cx="892.562" cy="442" r="8" fill="#98CBA0" />
  <path
    d="M81.36 292.864H95.4V295.264H89.784V310H86.976V295.264H81.36V292.864ZM105.102 293.056C105.462 293.056 105.774 293.176 106.038 293.44C106.278 293.68 106.422 293.992 106.422 294.376C106.422 294.736 106.278 295.048 106.038 295.312C105.774 295.552 105.462 295.696 105.102 295.696C104.718 295.696 104.406 295.552 104.166 295.312C103.902 295.048 103.782 294.736 103.782 294.376C103.782 293.992 103.902 293.68 104.166 293.44C104.406 293.176 104.718 293.056 105.102 293.056ZM100.398 293.056C100.758 293.056 101.07 293.176 101.334 293.44C101.574 293.68 101.718 293.992 101.718 294.376C101.718 294.736 101.574 295.048 101.334 295.312C101.07 295.552 100.758 295.696 100.398 295.696C100.014 295.696 99.7016 295.552 99.4616 295.312C99.1976 295.048 99.0776 294.736 99.0776 294.376C99.0776 293.992 99.1976 293.68 99.4616 293.44C99.7016 293.176 100.014 293.056 100.398 293.056ZM97.2056 297.592H99.9416V305.152C99.9416 306.16 100.134 306.88 100.566 307.36C100.998 307.816 101.67 308.056 102.63 308.056C103.23 308.056 103.806 307.792 104.358 307.288C104.91 306.76 105.318 306.064 105.558 305.176V297.592H108.294V310H105.558V308.392C104.502 309.688 103.206 310.336 101.67 310.336C98.6936 310.336 97.2056 308.656 97.2056 305.32V297.592ZM117.03 297.256C117.63 297.256 118.158 297.352 118.59 297.568V300.304C117.966 300.112 117.39 300.04 116.814 300.04C116.094 300.04 115.446 300.304 114.87 300.88C114.198 301.528 113.886 302.368 113.886 303.424V310H111.174V297.592H113.886V299.368C114.222 298.744 114.606 298.264 115.062 297.928C115.614 297.472 116.262 297.256 117.03 297.256ZM120.151 292.528H122.887V302.512L127.975 297.592H131.503L126.007 302.728L131.983 310H128.479L124.135 304.48L122.887 305.656V310H120.151V292.528ZM138.985 297.256C140.593 297.256 141.865 297.616 142.825 298.336C143.809 299.104 144.433 300.256 144.673 301.816H141.961C141.793 301.024 141.457 300.448 140.977 300.064C140.473 299.68 139.801 299.488 138.985 299.488C137.977 299.488 137.185 299.848 136.609 300.616C136.033 301.36 135.745 302.416 135.745 303.76C135.745 305.128 136.009 306.208 136.585 306.976C137.113 307.72 137.905 308.104 138.961 308.104C140.785 308.104 141.793 307.192 142.009 305.392H144.721C144.433 307.072 143.785 308.32 142.801 309.136C141.985 309.808 140.905 310.216 139.609 310.312L139.297 311.176C139.585 311.152 139.777 311.152 139.873 311.152C140.449 311.152 140.929 311.296 141.337 311.632C141.745 311.944 141.961 312.4 141.961 313C141.961 313.792 141.601 314.368 140.929 314.728C140.425 314.968 139.753 315.088 138.913 315.088C138.145 315.088 137.353 314.896 136.561 314.512L136.993 313.552C137.569 313.84 138.145 314.008 138.673 314.008C139.153 314.008 139.513 313.912 139.753 313.768C139.993 313.6 140.113 313.36 140.113 313.024C140.113 312.4 139.609 312.112 138.625 312.112C138.457 312.112 138.121 312.136 137.593 312.184L138.289 310.312C136.681 310.168 135.409 309.568 134.473 308.464C133.441 307.264 132.937 305.704 132.937 303.784C132.937 301.912 133.441 300.376 134.449 299.2C135.529 297.904 137.041 297.256 138.985 297.256ZM152.15 297.256C154.19 297.256 155.75 297.928 156.83 299.32C157.814 300.568 158.318 302.32 158.318 304.552H149.03C149.126 305.704 149.438 306.592 149.966 307.192C150.494 307.792 151.262 308.104 152.246 308.104C153.086 308.104 153.758 307.912 154.286 307.528C154.694 307.216 155.054 306.712 155.39 306.016H158.126C157.838 307.168 157.262 308.152 156.398 308.92C155.294 309.856 153.926 310.336 152.27 310.336C150.422 310.336 148.958 309.76 147.878 308.632C146.726 307.456 146.15 305.848 146.15 303.784C146.15 301.936 146.678 300.4 147.782 299.152C148.838 297.88 150.302 297.256 152.15 297.256ZM152.222 299.488C151.31 299.488 150.614 299.728 150.086 300.256C149.582 300.76 149.246 301.504 149.078 302.488H155.462C155.222 300.472 154.142 299.488 152.222 299.488Z"
    fill="#D12F28" />
</svg>