<svg viewBox="0 0 100 105" fill="none" xmlns="http://www.w3.org/2000/svg">
  <path
    d="M100 56.6875C100 57.478 99.9802 58.2671 99.9415 59.0575C99.9029 59.8479 99.8444 60.6359 99.7671 61.4226C99.6899 62.2093 99.5927 62.9936 99.4744 63.7766C99.3561 64.5596 99.2203 65.3377 99.0646 66.112C98.9088 66.8877 98.7345 67.6583 98.5401 68.4253C98.3458 69.1923 98.1315 69.9543 97.8986 70.7115C97.6669 71.4673 97.4177 72.2183 97.1512 72.9631C96.8846 73.7079 96.5956 74.444 96.2854 75.1728C95.979 75.9028 95.6551 76.6254 95.3138 77.3405C94.9724 78.0557 94.6137 78.7611 94.2375 79.4578C93.86 80.1557 93.4664 80.8437 93.0565 81.5207C92.6467 82.1977 92.2194 82.866 91.7747 83.5245C91.3312 84.1817 90.8716 84.8279 90.3957 85.4629C89.9199 86.0979 89.4291 86.7206 88.9221 87.3323C88.415 87.9439 87.8931 88.5419 87.3575 89.1276C86.8218 89.7133 86.2712 90.2855 85.7057 90.8453C85.1413 91.4039 84.5633 91.9489 83.9704 92.4804C83.3774 93.0119 82.7733 93.5285 82.1566 94.0292C81.54 94.531 80.9097 95.0169 80.2682 95.4879C79.6266 95.9589 78.9739 96.414 78.3099 96.8529C77.646 97.2931 76.9708 97.7161 76.2856 98.1218C75.6005 98.5275 74.9054 98.9171 74.2016 99.2907C73.4978 99.6631 72.7852 100.018 72.0627 100.356C71.3402 100.694 70.6102 101.015 69.8728 101.318C69.1341 101.62 68.3891 101.904 67.638 102.171C66.8868 102.439 66.1282 102.685 65.3633 102.911C64.5985 103.14 63.8286 103.351 63.0538 103.544C62.279 103.736 61.5004 103.909 60.7169 104.063C59.9333 104.217 59.1473 104.353 58.3575 104.468C57.5677 104.584 56.7755 104.684 55.9794 104.767C55.1847 104.845 54.3887 104.903 53.5902 104.942C52.7917 104.981 51.9944 105.001 51.196 105C50.3975 105 49.599 104.98 48.8017 104.942C48.0045 104.904 47.2085 104.845 46.4125 104.767C45.6177 104.69 44.8254 104.594 44.0344 104.477C43.2434 104.36 42.4573 104.226 41.675 104.071C40.8915 103.917 40.1129 103.745 39.3369 103.552C38.5608 103.36 37.7922 103.148 37.0286 102.917C36.265 102.688 35.5063 102.441 34.7539 102.177C34.0015 101.914 33.2566 101.629 32.5191 101.324C31.7817 101.021 31.0517 100.7 30.3292 100.362C29.6067 100.024 28.8941 99.6693 28.1903 99.2969C27.4853 98.9233 26.7902 98.5336 26.105 98.1279C25.4199 97.7223 24.746 97.2993 24.082 96.8591C23.418 96.4201 22.7653 95.9651 22.1238 95.4941C21.4822 95.023 20.8531 94.5372 20.2353 94.0353C19.6174 93.5335 19.0132 93.0168 18.4215 92.4866C17.8298 91.9563 17.2518 91.4113 16.6863 90.8515C16.122 90.2929 15.5714 89.7207 15.0345 89.1338C14.4976 88.5468 13.9769 87.9488 13.4699 87.3384C12.9629 86.728 12.4708 86.1041 11.9962 85.4691C11.5216 84.834 11.0619 84.1879 10.6172 83.5306C10.1725 82.8734 9.74521 82.2051 9.33537 81.5269C8.92553 80.8487 8.53189 80.1606 8.15445 79.4639C7.77824 78.7672 7.41948 78.0619 7.07691 77.3467C6.73435 76.6315 6.41171 75.9065 6.10651 75.1728C5.80131 74.4416 5.5148 73.7042 5.24448 72.9606C4.97417 72.2171 4.72503 71.4661 4.49706 70.709C4.26536 69.9519 4.05235 69.1898 3.85802 68.4228C3.66369 67.6559 3.48929 66.8852 3.33358 66.1096C3.17786 65.334 3.04208 64.5559 2.92374 63.7741C2.8054 62.9923 2.70824 62.2081 2.631 61.4201C2.55252 60.6334 2.49397 59.8455 2.45411 59.0551C2.41425 58.2647 2.39432 57.4755 2.39556 56.6851C2.39556 55.8947 2.41549 55.1043 2.45411 54.3151C2.49273 53.5259 2.55252 52.738 2.631 51.95C2.70824 51.1633 2.8054 50.3791 2.92374 49.5961C3.04208 48.813 3.17786 48.035 3.33358 47.2606C3.48929 46.485 3.66493 45.7143 3.85802 44.9473C4.0511 44.1803 4.26412 43.4183 4.49706 42.6612C4.72876 41.9053 4.9779 41.1543 5.24448 40.4095C5.51106 39.6648 5.79882 38.9274 6.10651 38.1974C6.41295 37.4674 6.73684 36.7448 7.07691 36.0296C7.41699 35.3144 7.777 34.6091 8.15445 33.9124C8.53065 33.2145 8.92429 32.5264 9.33537 31.8482C9.74645 31.17 10.1737 30.5029 10.6172 29.8457C11.0607 29.1884 11.5203 28.5423 11.9962 27.9073C12.4721 27.2722 12.9629 26.6495 13.4699 26.0379C13.9769 25.4263 14.4988 24.8282 15.0345 24.2425C15.5701 23.6568 16.1207 23.0847 16.6863 22.5248C17.2506 21.9662 17.8286 21.4212 18.4215 20.8898C19.0145 20.3583 19.6186 19.8429 20.2353 19.341C20.8519 18.8391 21.4822 18.3521 22.1238 17.8823C22.7653 17.4124 23.418 16.9574 24.082 16.5172C24.746 16.077 25.4211 15.6541 26.105 15.2484C26.7889 14.8427 27.484 14.453 28.1903 14.0794C28.8941 13.707 29.6067 13.3519 30.3292 13.0128C31.0517 12.6737 31.7817 12.3543 32.5191 12.0522C33.2578 11.7501 34.0028 11.4665 34.7539 11.1989C35.5051 10.9313 36.2625 10.6847 37.0286 10.4591C37.7934 10.2297 38.5633 10.0188 39.3369 9.82648C40.1104 9.63412 40.8903 9.46149 41.675 9.30735C42.4586 9.15322 43.2459 9.01881 44.0344 8.90167C44.8229 8.78452 45.6165 8.68834 46.4125 8.61189C47.2072 8.53421 48.0032 8.47625 48.8017 8.43679C49.6002 8.39734 50.3975 8.37761 51.196 8.37884C51.9944 8.37884 52.7917 8.39857 53.5902 8.43679C54.3887 8.47502 55.1847 8.53421 55.9794 8.61189C56.7742 8.68834 57.5665 8.78452 58.3575 8.90167C59.1485 9.01881 59.9346 9.15322 60.7169 9.30735C61.5004 9.46149 62.279 9.63535 63.0538 9.82648C63.8286 10.0176 64.5985 10.2285 65.3633 10.4591C66.1269 10.6884 66.8856 10.935 67.638 11.1989C68.3904 11.4628 69.1341 11.7476 69.8703 12.0547C70.6077 12.358 71.3377 12.6786 72.0602 13.0153C72.7827 13.3519 73.4953 13.7082 74.1991 14.0819C74.9042 14.4543 75.5993 14.8439 76.2831 15.2508C76.967 15.6578 77.6422 16.0807 78.3074 16.5197C78.9714 16.9587 79.6241 17.4137 80.2657 17.8847C80.9072 18.3558 81.5363 18.8416 82.1542 19.3435C82.772 19.8453 83.3762 20.362 83.9679 20.8922C84.5596 21.4224 85.1376 21.9675 85.7032 22.5273C86.2675 23.0859 86.8181 23.658 87.355 24.245C87.8919 24.8319 88.4138 25.43 88.9196 26.0404C89.4266 26.6507 89.9174 27.2747 90.3932 27.9097C90.8691 28.5448 91.3288 29.1909 91.7722 29.8481C92.2169 30.5054 92.6442 31.1737 93.054 31.8507C93.4639 32.5276 93.8575 33.2157 94.235 33.9149C94.6112 34.6116 94.9699 35.3169 95.3113 36.0321C95.6526 36.7473 95.9765 37.4699 96.2829 38.1998C96.5881 38.9311 96.8746 39.6685 97.1449 40.412C97.4152 41.1556 97.6644 41.9053 97.8923 42.6636C98.124 43.4207 98.3371 44.1828 98.5314 44.9498C98.7257 45.7168 98.9001 46.4874 99.0558 47.263C99.2116 48.0387 99.3486 48.818 99.4657 49.5985C99.5828 50.3791 99.6799 51.1645 99.7584 51.9525C99.8369 52.7392 99.8954 53.5271 99.9353 54.3175C99.9752 55.108 99.9963 55.8971 100 56.6875Z"
    fill="#CECEE2" />
  <path fill-rule="evenodd" clip-rule="evenodd"
    d="M30.9808 11.4714L33.2679 0.147972L32.5205 0L30.2334 11.3235L30.9808 11.4714Z" fill="#1F1E40" />
  <path fill-rule="evenodd" clip-rule="evenodd"
    d="M10.9136 3.30963L19.6173 15.6824L20.2402 15.2509L11.5389 2.87805L10.9136 3.30963ZM0 21.5396L13.5395 25.3474L13.7488 24.6211L0.208034 20.8146L0 21.5396Z"
    fill="#1F1E40" />
  <path
    d="M6.79395 37.391L58.153 25.5533L69.5325 73.3232C69.9984 75.2702 69.6608 77.3196 68.5957 79.0201C67.5307 80.7205 65.824 81.9301 63.8558 82.3827L27.3568 90.7985C23.2497 91.7455 19.1413 89.2239 18.1734 85.1608L6.79395 37.391Z"
    fill="#745DF9" />
  <path fill-rule="evenodd" clip-rule="evenodd"
    d="M6.79395 37.391L58.153 25.5533L69.5325 73.3232C69.9984 75.2702 69.6608 77.3196 68.5957 79.0201C67.5307 80.7205 65.824 81.9301 63.8558 82.3827L27.3568 90.7985C23.2497 91.7455 19.1413 89.2239 18.1734 85.1608L6.79395 37.391ZM7.71203 37.9545L57.5862 26.456L68.7901 73.4946C69.2099 75.2468 68.9072 77.0915 67.948 78.6218C66.99 80.152 65.4541 81.2409 63.6827 81.6478L27.1749 90.0636C23.4814 90.9132 19.7904 88.6456 18.9209 84.9919L7.71203 37.9545Z"
    fill="#745DF9" />
  <path
    d="M23.0986 18.9439H96.9489V90.6554C96.9489 92.6579 96.1454 94.5779 94.7165 95.9934C93.2865 97.409 91.3469 98.2044 89.3239 98.2044H30.7236C26.5119 98.2031 23.0986 94.8245 23.0986 90.6554V18.9439Z"
    fill="white" />
  <path fill-rule="evenodd" clip-rule="evenodd"
    d="M23.0986 18.9439H96.9489V90.6554C96.9489 92.6579 96.1454 94.5779 94.7165 95.9934C93.2865 97.409 91.3469 98.2044 89.3239 98.2044H30.7236C26.5119 98.2031 23.0986 94.8245 23.0986 90.6554V18.9439ZM23.861 19.6986H96.1865V90.6554C96.189 92.4582 95.4677 94.187 94.1797 95.462C92.8916 96.737 91.1451 97.451 89.3239 97.4485H30.7236C28.9036 97.4497 27.1571 96.7345 25.8691 95.4607C24.5823 94.1857 23.8598 92.4569 23.861 90.6554V19.6986Z"
    fill="#1F1E40" />
  <path fill-rule="evenodd" clip-rule="evenodd"
    d="M82.5767 40.0803L38.4614 41.9682L38.4277 41.2135L82.5468 39.3269L82.5767 40.0803Z" fill="#1F1E40" />
  <path fill-rule="evenodd" clip-rule="evenodd"
    d="M75.8681 63.8592L38.4634 61.9713L38.4248 62.726L75.8295 64.6126L75.8681 63.8592Z" fill="#1F1E40" />
  <path fill-rule="evenodd" clip-rule="evenodd"
    d="M80.9353 79.3333H3.91602V90.6555C3.91602 94.8245 7.33049 98.2044 11.5422 98.2044H88.3173V97.4449C84.2028 97.3154 80.9353 93.9762 80.9353 89.9008V79.3333Z"
    fill="white" />
  <path fill-rule="evenodd" clip-rule="evenodd"
    d="M80.9353 79.3333H3.91602V90.6555C3.91602 94.8245 7.33049 98.2044 11.5422 98.2044H88.3173V97.4449C84.2028 97.3154 80.9353 93.9762 80.9353 89.9008V79.3333ZM4.67839 90.6555V80.0879H80.168V89.9008C80.1704 93.1488 82.0851 96.0959 85.0673 97.4486H11.5422C9.72099 97.4498 7.97451 96.7346 6.6877 95.4608C5.39965 94.187 4.67714 92.4582 4.67839 90.6555Z"
    fill="#1F1E40" />
</svg>