<svg width="100" height="95" viewBox="0 0 100 95" fill="none" xmlns="http://www.w3.org/2000/svg">
  <path
    d="M97.761 47.5C97.761 48.2769 97.7415 49.0539 97.7037 49.8308C97.6659 50.6078 97.6074 51.3823 97.5306 52.1556C97.455 52.9289 97.36 53.6998 97.2442 54.4694C97.1284 55.2391 96.9955 56.0063 96.8432 56.7724C96.6908 57.5348 96.5202 58.2923 96.33 59.0474C96.1399 59.8025 95.9315 60.5504 95.7048 61.2934C95.4769 62.0376 95.2331 62.7758 94.9735 63.5079C94.7139 64.2399 94.4311 64.9648 94.1251 65.6811C93.8265 66.3999 93.5096 67.1101 93.1745 67.8131C92.8393 68.5161 92.4883 69.2107 92.1214 69.8955C91.7521 70.5803 91.3669 71.2554 90.9659 71.9233C90.5649 72.5911 90.1469 73.2469 89.7117 73.8929C89.2766 74.5389 88.8256 75.1753 88.3612 75.7995C87.8969 76.4237 87.4154 77.0346 86.9193 77.6321C86.4233 78.2333 85.9126 78.8212 85.3885 79.3969C84.8644 79.9727 84.3257 80.5351 83.7723 81.0853C83.2189 81.6356 82.6534 82.1714 82.0744 82.6938C81.4955 83.2162 80.9044 83.7228 80.2986 84.2161C79.6941 84.707 79.0785 85.1858 78.452 85.65C77.8256 86.1142 77.1869 86.5627 76.5348 86.993C75.8852 87.4245 75.2246 87.8402 74.5542 88.2402C73.8838 88.6402 73.2037 89.0232 72.5151 89.3893C71.8252 89.7553 71.1268 90.1044 70.4211 90.4365C69.7154 90.7686 68.9999 91.0837 68.2771 91.3819C67.5556 91.6801 66.8267 91.9601 66.0905 92.2207C65.3544 92.4812 64.6121 92.7237 63.8637 92.9479C63.1166 93.1746 62.3645 93.3818 61.6052 93.5709C60.8459 93.76 60.0829 93.9309 59.3162 94.0848C58.5496 94.2363 57.778 94.3697 57.0004 94.4836C56.2228 94.5975 55.4513 94.6933 54.6846 94.7709C53.907 94.8472 53.1281 94.9042 52.3469 94.943C51.5656 94.9818 50.7843 95.0012 50.003 94.9999C49.2218 94.9999 48.4405 94.9806 47.6592 94.943C46.8779 94.9054 46.0979 94.8472 45.3166 94.7709C44.539 94.6957 43.7638 94.6012 42.9898 94.486C42.2158 94.3709 41.4468 94.2388 40.6801 94.0872C39.9134 93.9357 39.1505 93.7661 38.3923 93.577C37.6342 93.3879 36.881 93.1794 36.1338 92.9528C35.3854 92.7273 34.6432 92.4849 33.907 92.2255C33.1708 91.9661 32.4419 91.6837 31.7204 91.3771C30.9976 91.0801 30.2834 90.765 29.5777 90.4316C28.872 90.0983 28.1736 89.7493 27.4825 89.3844C26.7938 89.0172 26.1149 88.6341 25.4433 88.2354C24.7718 87.8366 24.1124 87.4208 23.4627 86.9881C22.8131 86.5554 22.1732 86.107 21.5455 85.6452C20.9178 85.1834 20.3035 84.707 19.7038 84.2161C19.0993 83.7228 18.5081 83.2162 17.9292 82.6938C17.3502 82.1714 16.7847 81.6356 16.2313 81.0853C15.678 80.5363 15.1392 79.9727 14.6139 79.3969C14.0886 78.8212 13.5767 78.2321 13.077 77.6321C12.5809 77.031 12.0994 76.4189 11.6351 75.7946C11.1707 75.1704 10.7197 74.5353 10.2846 73.8881C9.85068 73.242 9.43262 72.5851 9.0304 71.9184C8.62818 71.2518 8.24547 70.5754 7.88103 69.8906C7.51294 69.2046 7.16191 68.5101 6.82795 67.8083C6.49399 67.1065 6.17465 66.3974 5.87116 65.6811C5.57255 64.9636 5.29221 64.2387 5.02772 63.5066C4.76323 62.7745 4.51946 62.0364 4.29642 61.2922C4.06849 60.5492 3.86007 59.8013 3.67115 59.0462C3.48223 58.2911 3.31159 57.5335 3.1568 56.7711C3.00444 56.0088 2.87159 55.2403 2.7558 54.4682C2.64001 53.6961 2.54494 52.924 2.46937 52.1544C2.39258 51.3811 2.3353 50.6065 2.29629 49.8296C2.25729 49.0527 2.23657 48.2769 2.23535 47.5C2.23535 46.7231 2.25485 45.9461 2.29264 45.1692C2.33042 44.3922 2.38893 43.6177 2.46571 42.8444C2.5425 42.0711 2.63757 41.3002 2.75214 40.5306C2.86671 39.7609 3.00078 38.9937 3.15314 38.2276C3.3055 37.4652 3.47735 36.7077 3.66749 35.9526C3.85763 35.1975 4.06605 34.4496 4.29276 33.7066C4.51946 32.9624 4.76323 32.2242 5.02407 31.4921C5.2849 30.7601 5.56767 30.0352 5.87116 29.3189C6.16978 28.6001 6.48668 27.8899 6.82186 27.1869C7.15704 26.4839 7.51051 25.7918 7.88103 25.1094C8.25034 24.4245 8.6355 23.7494 9.0365 23.0816C9.4375 22.4137 9.85556 21.758 10.2907 21.112C10.7258 20.4659 11.1768 19.8296 11.6412 19.2054C12.1055 18.5811 12.587 17.9678 13.0831 17.3679C13.5791 16.7667 14.0898 16.1788 14.6139 15.6031C15.138 15.0273 15.6768 14.4649 16.2313 13.9147C16.7835 13.3644 17.3502 12.8286 17.9292 12.3062C18.5081 11.7838 19.1005 11.2772 19.7038 10.7839C20.3084 10.2906 20.9239 9.813 21.5516 9.34999C22.1793 8.88698 22.818 8.43972 23.4688 8.00701C24.1185 7.57552 24.7791 7.15977 25.4494 6.75979C26.1198 6.35981 26.7999 5.97679 27.4886 5.61074C28.1784 5.2447 28.8768 4.89562 29.5838 4.5623C30.2907 4.22898 31.0025 3.91626 31.7204 3.62294C32.4419 3.32598 33.1708 3.04599 33.907 2.78419C34.6432 2.52238 35.3854 2.27996 36.1338 2.05694C36.881 1.8315 37.633 1.62424 38.3923 1.43515C39.1517 1.24607 39.9134 1.07638 40.6801 0.924866C41.4468 0.773357 42.2158 0.641244 42.9898 0.526097C43.7638 0.41095 44.539 0.31277 45.3166 0.229137C46.0942 0.152777 46.873 0.0958074 47.6543 0.0570211C48.4356 0.0182348 49.2169 -0.00115857 49.9982 5.35043e-05C50.7794 5.35043e-05 51.5607 0.0194468 52.342 0.0570211C53.1233 0.0945954 53.9033 0.152777 54.6846 0.229137C55.4622 0.305498 56.2374 0.40004 57.0114 0.513975C57.7853 0.62791 58.5569 0.761239 59.3272 0.912748C60.0938 1.06426 60.8556 1.23516 61.6149 1.42303C62.3743 1.6109 63.1227 1.81938 63.8625 2.04725C64.6109 2.2739 65.3531 2.51632 66.0893 2.77449C66.8255 3.03266 67.5544 3.31508 68.2759 3.62294C68.9987 3.9199 69.7142 4.23504 70.4199 4.56715C71.1256 4.89926 71.824 5.24833 72.5138 5.61559C73.2025 5.98285 73.8814 6.36587 74.553 6.76464C75.2246 7.16341 75.8839 7.57915 76.5336 8.01186C77.1832 8.44457 77.8231 8.89183 78.4508 9.35484C79.0785 9.81785 79.6953 10.2954 80.2986 10.7887C80.9031 11.282 81.4955 11.7887 82.0744 12.3111C82.6534 12.8335 83.2202 13.3692 83.7723 13.9195C84.3244 14.4686 84.8632 15.031 85.3885 15.6079C85.9138 16.1849 86.4245 16.7727 86.9193 17.3727C87.4154 17.9739 87.8956 18.586 88.3612 19.2102C88.8268 19.8344 89.2766 20.4695 89.7117 21.1168C90.1456 21.7628 90.5637 22.4198 90.9659 23.0864C91.3681 23.7531 91.7533 24.4294 92.1214 25.1142C92.4895 25.8002 92.8405 26.4948 93.1745 27.1966C93.5084 27.8983 93.8253 28.6098 94.1251 29.3286C94.425 30.0461 94.7065 30.771 94.9686 31.5031C95.2306 32.2351 95.4744 32.9733 95.6999 33.7175C95.9266 34.4605 96.135 35.2084 96.3252 35.9635C96.5153 36.7186 96.6859 37.4762 96.8383 38.2385C96.9906 39.0009 97.1247 39.7694 97.2393 40.5415C97.3539 41.3136 97.4489 42.0857 97.5257 42.8553C97.6025 43.6286 97.661 44.4031 97.6988 45.1801C97.7366 45.957 97.7573 46.7303 97.761 47.5Z"
    fill="#E4E4EF" />
  <path
    d="M18.7653 5.20841C19.2187 3.63029 20.869 2.71397 22.4571 3.1588L89.2814 21.8623C90.0432 22.0756 90.688 22.5811 91.0731 23.2671C91.4583 23.9543 91.5534 24.7652 91.3364 25.5216L83.0946 54.2877L10.5234 33.9721L18.7653 5.20841Z"
    fill="#745DF9" />
  <path fill-rule="evenodd" clip-rule="evenodd"
    d="M99.254 12.6189C99.254 14.7206 97.9815 16.6163 96.0289 17.4199C94.0763 18.2247 91.8288 17.7811 90.3345 16.2939C88.839 14.8079 88.3929 12.5728 89.2022 10.6311C90.0103 8.68936 91.9166 7.42395 94.03 7.42395C96.915 7.42395 99.254 9.74992 99.254 12.6189ZM98.5068 12.6189C98.5056 10.4941 96.9955 8.66754 94.9003 8.25301C92.8051 7.83969 90.7075 8.95601 89.8908 10.9184C89.0742 12.8819 89.7653 15.1449 91.5412 16.3242C93.3182 17.5048 95.6852 17.272 97.1954 15.7703C98.0522 14.9449 98.5264 13.8043 98.5068 12.6189Z"
    fill="#1F1E40" />
  <path fill-rule="evenodd" clip-rule="evenodd"
    d="M18.7653 5.20841C19.2187 3.63029 20.869 2.71397 22.4571 3.1588L89.2814 21.8623C90.0432 22.0756 90.688 22.5811 91.0731 23.2671C91.4583 23.9543 91.5534 24.7652 91.3364 25.5216L83.0946 54.2877L10.5234 33.9721L18.7653 5.20841ZM90.6185 25.3191L82.5741 53.3677L11.4461 33.4594L19.4832 5.40962C19.8232 4.22663 21.0616 3.53939 22.2524 3.8715L89.0767 22.5762C89.6471 22.7362 90.131 23.1156 90.4198 23.6295C90.7087 24.1446 90.7806 24.7519 90.6185 25.3191Z"
    fill="black" />
  <path
    d="M10.4406 4.45558C10.4406 4.55254 10.4406 4.64951 10.4272 4.74647C10.4174 4.84344 10.4028 4.93919 10.3833 5.03495C10.365 5.12949 10.3407 5.22403 10.3126 5.31736C10.2846 5.41069 10.2517 5.50159 10.2139 5.59129C10.1773 5.68098 10.1371 5.76825 10.092 5.85431C10.0457 5.94037 9.99573 6.024 9.9421 6.10521C9.88725 6.18521 9.82874 6.26399 9.76658 6.33914C9.70564 6.41429 9.63982 6.48701 9.57035 6.55489C9.50087 6.62276 9.42896 6.68821 9.35339 6.75003C9.27783 6.81185 9.19982 6.87003 9.11816 6.92336C9.0365 6.9779 8.9524 7.0276 8.86708 7.07366C8.78176 7.11971 8.69278 7.16092 8.60137 7.19486C8.50996 7.2288 8.41976 7.26395 8.32591 7.29304C8.23206 7.32213 8.13821 7.34395 8.04192 7.36334C7.94563 7.38273 7.84934 7.39607 7.75184 7.40576C7.65433 7.41546 7.55682 7.42031 7.45931 7.42031C7.36181 7.42031 7.2643 7.41546 7.16679 7.40576C7.06929 7.39607 6.973 7.38273 6.87671 7.36334C6.78164 7.34395 6.68657 7.32092 6.59272 7.29304C6.49886 7.26516 6.40745 7.23122 6.31726 7.19486C6.22706 7.1585 6.13931 7.1185 6.05277 7.07366C5.88091 6.98154 5.71759 6.87245 5.56523 6.75003C5.48966 6.68821 5.41775 6.62276 5.34828 6.55489C5.2788 6.48701 5.2142 6.41429 5.15204 6.33914C5.08988 6.26399 5.03016 6.18521 4.97775 6.10521C4.86927 5.94279 4.77664 5.77067 4.70107 5.59129C4.66451 5.50159 4.6316 5.41069 4.60235 5.31736C4.57309 5.22403 4.55115 5.12949 4.53165 5.03495C4.51215 4.93919 4.49875 4.84344 4.48899 4.74647C4.47924 4.64951 4.47437 4.55254 4.47437 4.45558C4.47437 4.35861 4.47924 4.26164 4.48899 4.16468C4.49875 4.06771 4.51215 3.97196 4.53165 3.8762C4.55115 3.78045 4.57431 3.68712 4.60235 3.59379C4.63038 3.50046 4.66451 3.40956 4.70107 3.31986C4.73764 3.23017 4.7803 3.14169 4.82296 3.05563C4.86562 2.96957 4.91924 2.88715 4.97409 2.80595C5.02772 2.72474 5.08622 2.64716 5.14839 2.57201C5.21055 2.49686 5.27637 2.42535 5.34462 2.35626C5.41288 2.28718 5.48601 2.22172 5.56157 2.16112C5.63714 2.09931 5.71637 2.03991 5.79803 1.98658C5.87969 1.93325 5.96257 1.88355 6.04911 1.8375C6.13565 1.79265 6.22341 1.75265 6.3136 1.71629C6.4038 1.67871 6.49521 1.64599 6.58906 1.61811C6.68291 1.59023 6.77798 1.56599 6.87305 1.54781C6.96934 1.52842 7.06563 1.51387 7.16313 1.50418C7.26064 1.49569 7.35815 1.49084 7.45566 1.49084C7.55317 1.49084 7.65067 1.49084 7.74818 1.50418C7.84569 1.51387 7.94198 1.52842 8.03826 1.54781C8.13455 1.56599 8.2284 1.59023 8.32225 1.61811C8.4161 1.64599 8.50752 1.67871 8.59771 1.71629C8.68913 1.75386 8.77688 1.79507 8.86342 1.8375C8.94996 1.87992 9.03284 1.93325 9.1145 1.98658C9.19616 2.03991 9.27417 2.09931 9.34974 2.16112C9.50087 2.28354 9.63982 2.42172 9.76293 2.57201C9.82509 2.64716 9.88481 2.72474 9.93844 2.80595C9.99207 2.88715 10.042 2.97079 10.0884 3.05563C10.1347 3.14048 10.1761 3.22896 10.2102 3.31986C10.248 3.40956 10.2809 3.50046 10.309 3.59379C10.337 3.68712 10.3614 3.78045 10.3797 3.8762C10.3992 3.97196 10.4138 4.06771 10.4235 4.16468C10.4406 4.26164 10.4406 4.35861 10.4406 4.45558Z"
    fill="#988BFF" />
  <path
    d="M34.3299 92.3999C34.3299 92.4605 34.3299 92.5211 34.3213 92.5817C34.3128 92.6423 34.3055 92.7029 34.2933 92.7623C34.2823 92.8217 34.2677 92.8799 34.2494 92.938C34.2312 92.9962 34.2104 93.0544 34.1873 93.1102C34.1641 93.1659 34.1385 93.2205 34.1093 93.275C34.08 93.3295 34.0495 93.3804 34.0154 93.4301C33.9813 93.4798 33.9447 93.5295 33.9057 93.5768C33.8679 93.6241 33.8265 93.6689 33.7838 93.7113C33.74 93.755 33.6949 93.795 33.6473 93.8325C33.5998 93.8701 33.551 93.9077 33.5011 93.9416C33.4511 93.9756 33.3975 94.0059 33.3438 94.035C33.2902 94.0641 33.2341 94.0895 33.1781 94.1125C33.122 94.1356 33.0635 94.1562 33.005 94.1743C32.9465 94.1925 32.8831 94.2059 32.8283 94.218C32.7685 94.2301 32.7076 94.2386 32.6467 94.2447C32.5857 94.2447 32.5248 94.2543 32.4638 94.2543C32.4029 94.2543 32.3419 94.2543 32.281 94.2447C32.2201 94.2386 32.1603 94.2301 32.1006 94.218C32.0397 94.2059 31.9787 94.1913 31.9227 94.1743C31.8666 94.1574 31.8008 94.1356 31.7496 94.1125C31.6375 94.0665 31.529 94.0083 31.4278 93.9416C31.3766 93.9077 31.3279 93.8713 31.2803 93.8325C31.1865 93.755 31.0999 93.6689 31.0219 93.5756C30.9829 93.5283 30.9464 93.4798 30.9122 93.4289C30.8781 93.378 30.8476 93.3271 30.8184 93.2738C30.7891 93.2205 30.7635 93.1647 30.7404 93.1089C30.7172 93.0532 30.6965 92.995 30.6782 92.9368C30.6599 92.8786 30.6465 92.8156 30.6343 92.7611C30.6222 92.7065 30.6136 92.6399 30.6075 92.5805C30.6014 92.5211 30.5978 92.4593 30.5978 92.3987C30.5978 92.3381 30.5978 92.2775 30.6075 92.2169C30.6136 92.1563 30.6222 92.0956 30.6343 92.0362C30.6465 91.9769 30.6612 91.915 30.6782 91.8605C30.6953 91.806 30.7172 91.7393 30.7404 91.6884C30.7635 91.6375 30.7904 91.5781 30.8184 91.5235C30.8464 91.469 30.8793 91.4181 30.9122 91.3672C30.9452 91.3163 30.9829 91.269 31.0219 91.2217C31.0597 91.1745 31.1012 91.1296 31.1438 91.0872C31.1865 91.0436 31.2316 91.0036 31.2791 90.966C31.3266 90.9272 31.3754 90.8908 31.4266 90.8569C31.5278 90.7902 31.6362 90.7321 31.7484 90.686C31.8057 90.663 31.8629 90.6424 31.9214 90.6242C31.9799 90.606 32.0397 90.5915 32.0994 90.5806C32.1591 90.5684 32.2188 90.5587 32.2798 90.5539C32.3407 90.5539 32.4017 90.5442 32.4626 90.5442C32.5235 90.5442 32.5845 90.5442 32.6454 90.5539C32.7064 90.5587 32.7673 90.5684 32.827 90.5806C32.8868 90.5915 32.9453 90.606 33.0038 90.6242C33.0623 90.6424 33.1257 90.663 33.1768 90.686C33.2329 90.709 33.289 90.7345 33.3426 90.7636C33.3962 90.7927 33.4487 90.823 33.4998 90.8569C33.551 90.8908 33.5986 90.9272 33.6461 90.966C33.7412 91.0423 33.8277 91.1284 33.9045 91.2229C33.9435 91.2702 33.9801 91.3187 34.0142 91.3684C34.0483 91.4193 34.0788 91.4714 34.108 91.5248C34.1373 91.5781 34.1629 91.6338 34.1861 91.6896C34.2104 91.7453 34.2312 91.8035 34.2482 91.8617C34.2665 91.9199 34.2811 91.9781 34.2921 92.0375C34.3043 92.0968 34.314 92.1575 34.3201 92.2181C34.3226 92.2787 34.3299 92.3393 34.3299 92.3999Z"
    fill="#988BFF" />
  <path fill-rule="evenodd" clip-rule="evenodd"
    d="M32.4541 28.592C36.8018 28.6029 40.3364 25.1073 40.3486 20.7838H97.0151C98.6642 20.785 100 22.1134 100 23.7534V79.413C99.9988 81.0517 98.6629 82.3802 97.0151 82.3814H40.3486C40.295 78.0834 36.7762 74.6265 32.4541 74.6265C28.1309 74.6265 24.6121 78.0834 24.5585 82.3814H2.98495C1.33707 82.3802 0.00121884 81.0517 0 79.413V23.7522C0 22.1122 1.33585 20.7838 2.98495 20.7826H24.5585C24.5646 22.8589 25.3995 24.8491 26.8792 26.3133C28.36 27.7787 30.3663 28.598 32.4541 28.592Z"
    fill="white" />
  <path fill-rule="evenodd" clip-rule="evenodd"
    d="M32.4541 28.592C36.8018 28.6029 40.3364 25.1073 40.3486 20.7838H97.0151C98.6642 20.785 100 22.1134 100 23.7534V79.413C99.9988 81.0517 98.6629 82.3802 97.0151 82.3814H40.3486C40.295 78.0834 36.7762 74.6265 32.4541 74.6265C28.1309 74.6265 24.6121 78.0834 24.5585 82.3814H2.98495C1.33707 82.3802 0.00121884 81.0517 0 79.413V23.7522C0 22.1122 1.33585 20.7838 2.98495 20.7826H24.5585C24.5646 22.8589 25.3995 24.8491 26.8792 26.3133C28.36 27.7787 30.3663 28.598 32.4541 28.592ZM40.4875 23.9328C40.7971 23.1631 40.9909 22.3522 41.0628 21.5268H97.0151C98.251 21.528 99.2529 22.5243 99.2541 23.7534V79.413C99.2529 80.6421 98.251 81.6384 97.0151 81.6396H41.0628C40.8849 79.6336 40 77.7537 38.563 76.3343C36.1923 73.9744 32.6613 73.1926 29.507 74.3296C26.3538 75.4665 24.1465 78.3161 23.8479 81.6396H2.98129C1.74538 81.6384 0.743495 80.6421 0.743495 79.413V23.7522C0.743495 22.5231 1.74538 21.5268 2.98129 21.5256H23.8479C24.1392 24.757 26.2405 27.5484 29.2778 28.7338C32.4797 29.9883 36.1241 29.2416 38.5666 26.8308C39.4015 26.0066 40.0561 25.02 40.4875 23.9316V23.9328Z"
    fill="#1F1E40" />
  <path fill-rule="evenodd" clip-rule="evenodd"
    d="M88.8207 41.1972L51.5058 42.6759L51.4753 41.9341L88.7902 40.4493L88.8207 41.1972Z" fill="#1F1E40" />
  <path fill-rule="evenodd" clip-rule="evenodd"
    d="M82.8534 60.4885L51.5084 59.0037L51.473 59.7455L82.818 61.229L82.8534 60.4885Z" fill="black" />
  <path fill-rule="evenodd" clip-rule="evenodd"
    d="M31.7142 37.6663V35.6216H32.4602V37.6627L31.7142 37.6663ZM31.7142 45.8297V41.7486H32.4602V45.8297H31.7142ZM31.7142 53.9942V49.9119H32.4602V53.9942H31.7142ZM31.7142 62.1575V58.0752H32.4602V62.1575H31.7142ZM31.7142 68.2797V66.2386H32.4602V68.2797H31.7142Z"
    fill="#1F1E40" />
</svg>